<svg xmlns="http://www.w3.org/2000/svg" width="116pt" height="241pt" viewBox="0.00 0.00 116.00 241.00">
<g id="graph0" class="graph" transform="scale(1 1) rotate(0) translate(4 237)">
<title>G</title>
<polygon fill="none" stroke="none" points="-4,4 -4,-237 112,-237 112,4 -4,4" />
<polygon fill="none" stroke="black" points="8,-203.5 8,-228.5 100,-228.5 100,-203.5 8,-203.5" />
<text text-anchor="start" x="36" y="-213.3" font-family="Pirata One" font-weight="bold" font-size="14.00">Legend</text>
<polygon fill="#4cee65" fill-opacity="0.439216" stroke="none" points="8,-178.5 8,-203.5 100,-203.5 100,-178.5 8,-178.5" />
<polygon fill="none" stroke="black" points="8,-178.5 8,-203.5 100,-203.5 100,-178.5 8,-178.5" />
<text text-anchor="start" x="14.5" y="-187.3" font-family="Pirata One" font-size="14.00">Mainquest, new</text>
<polygon fill="#a1dbd6" fill-opacity="0.564706" stroke="none" points="8,-153.5 8,-178.5 100,-178.5 100,-153.5 8,-153.5" />
<polygon fill="none" stroke="black" points="8,-153.5 8,-178.5 100,-178.5 100,-153.5 8,-153.5" />
<text text-anchor="start" x="13" y="-162.3" font-family="Pirata One" font-size="14.00">Mainquest, done</text>
<polygon fill="#f29317" fill-opacity="0.564706" stroke="none" points="8,-128.5 8,-153.5 100,-153.5 100,-128.5 8,-128.5" />
<polygon fill="none" stroke="black" points="8,-128.5 8,-153.5 100,-153.5 100,-128.5 8,-128.5" />
<text text-anchor="start" x="16" y="-137.3" font-family="Pirata One" font-size="14.00">Sidequest, new</text>
<polygon fill="#d76b4a" fill-opacity="0.564706" stroke="none" points="8,-103.5 8,-128.5 100,-128.5 100,-103.5 8,-103.5" />
<polygon fill="none" stroke="black" points="8,-103.5 8,-128.5 100,-128.5 100,-103.5 8,-103.5" />
<text text-anchor="start" x="14.5" y="-112.3" font-family="Pirata One" font-size="14.00">Sidequest, done</text>
<polygon fill="#928ca2" fill-opacity="0.521569" stroke="none" points="8,-78.5 8,-103.5 100,-103.5 100,-78.5 8,-78.5" />
<polygon fill="none" stroke="black" points="8,-78.5 8,-103.5 100,-103.5 100,-78.5 8,-78.5" />
<text text-anchor="start" x="36" y="-87.3" font-family="Pirata One" font-size="14.00">Locked</text>
<polygon fill="#ff00ff" fill-opacity="0.564706" stroke="none" points="8,-53.5 8,-78.5 100,-78.5 100,-53.5 8,-53.5" />
<polygon fill="none" stroke="black" points="8,-53.5 8,-78.5 100,-78.5 100,-53.5 8,-53.5" />
<text text-anchor="start" x="39" y="-62.3" font-family="Pirata One" font-size="14.00">Failed</text>
<polygon fill="none" stroke="black" points="8,-28.5 8,-53.5 49,-53.5 49,-28.5 8,-28.5" />
<text text-anchor="start" x="17.5" y="-37.3" font-family="Pirata One" font-size="14.00">. . . .</text>
<polygon fill="none" stroke="black" points="49,-28.5 49,-53.5 100,-53.5 100,-28.5 49,-28.5" />
<text text-anchor="start" x="54.5" y="-37.3" font-family="Pirata One" font-size="14.00">Mention</text>
<polygon fill="none" stroke="black" points="8,-3.5 8,-28.5 49,-28.5 49,-3.5 8,-3.5" />
<text text-anchor="start" x="13" y="-12.3" font-family="Pirata One" font-size="14.00">- - - -</text>
<polygon fill="none" stroke="black" points="49,-3.5 49,-28.5 100,-28.5 100,-3.5 49,-3.5" />
<text text-anchor="start" x="55" y="-12.3" font-family="Pirata One" font-size="14.00">Indirect</text>
</g>
</svg>