<?xml version="1.0" standalone="no"?>
<!DOCTYPE svg PUBLIC "-//W3C//DTD SVG 20010904//EN"
 "http://www.w3.org/TR/2001/REC-SVG-20010904/DTD/svg10.dtd">
<svg version="1.0" xmlns="http://www.w3.org/2000/svg"
 width="920.000000pt" height="1256.000000pt" viewBox="0 0 920.000000 1256.000000"
 preserveAspectRatio="xMidYMid meet">
<metadata>
Created by potrace 1.16, written by Peter Selinger 2001-2019
</metadata>
<g transform="translate(0.000000,1256.000000) scale(0.100000,-0.100000)"
fill="#000000" stroke="none">
<path d="M1595 12398 c-3 -7 -4 -281 -3 -608 l3 -595 473 -3 472 -2 0 610 0
610 -470 0 c-367 0 -472 -3 -475 -12z m935 -598 l0 -590 -460 0 -460 0 0 590
0 590 460 0 460 0 0 -590z"/>
<path d="M2005 12149 c-4 -6 2 -13 14 -16 25 -6 25 -7 5 -67 -10 -30 -13 -51
-7 -57 6 -6 16 13 28 51 12 41 21 56 27 48 6 -10 12 -9 23 6 15 20 15 20 15 0
0 -10 -9 -34 -20 -52 -28 -46 -26 -62 9 -62 36 0 51 19 22 27 -19 5 -19 7 -6
34 15 28 20 81 9 92 -3 3 -18 0 -32 -6 -20 -9 -26 -9 -30 1 -5 15 -48 16 -57
1z"/>
<path d="M1884 11643 c4 -5 13 -8 19 -8 8 0 12 -23 12 -66 0 -49 3 -65 13 -62
8 3 12 27 12 68 0 52 3 64 18 68 9 3 -5 5 -32 6 -27 0 -46 -2 -42 -6z"/>
<path d="M1983 11603 c-8 -3 -13 -23 -13 -49 0 -44 1 -45 28 -42 25 3 27 7 30
51 3 48 -6 56 -45 40z m27 -49 c0 -21 -4 -33 -10 -29 -5 3 -10 19 -10 36 0 16
5 29 10 29 6 0 10 -16 10 -36z"/>
<path d="M2048 11560 c4 -49 4 -50 37 -50 56 0 65 8 65 56 0 43 0 44 -34 44
-34 0 -34 0 -29 -40 4 -26 2 -40 -6 -40 -6 0 -11 17 -11 40 0 25 -5 40 -12 40
-9 0 -12 -15 -10 -50z m82 -1 c0 -16 -4 -29 -10 -29 -5 0 -10 16 -10 36 0 21
4 33 10 29 6 -3 10 -19 10 -36z"/>
<path d="M2164 11594 c3 -9 6 -31 6 -50 0 -21 5 -34 13 -34 9 0 11 12 9 40 -3
25 0 40 7 40 6 0 11 -17 11 -40 0 -25 5 -40 13 -40 8 0 11 15 9 50 -4 50 -4
50 -39 50 -28 0 -34 -3 -29 -16z"/>
<path d="M1798 11373 c-2 -40 -1 -73 2 -73 17 1 30 19 25 36 -4 13 -2 12 6 -3
7 -13 18 -23 26 -23 20 0 16 14 -12 44 -25 27 -34 76 -15 76 6 0 10 -13 10
-30 0 -16 5 -30 10 -30 6 0 10 18 10 39 0 37 -2 40 -29 39 l-30 -1 -3 -74z"/>
<path d="M2209 11431 c8 -14 7 -20 -4 -25 -20 -7 -21 -96 -1 -96 10 0 12 11 8
45 -3 30 -1 45 7 45 6 0 11 -18 11 -45 0 -31 4 -45 14 -45 10 0 12 13 8 53 -5
61 -17 87 -38 87 -11 0 -12 -4 -5 -19z"/>
<path d="M1892 11401 c-8 -5 -12 -23 -10 -47 3 -33 7 -39 28 -42 20 -2 22 -1
10 8 -13 9 -13 12 3 24 9 7 17 25 17 40 0 27 -21 35 -48 17z m19 -44 c-8 -8
-11 -5 -11 9 0 27 14 41 18 19 2 -9 -1 -22 -7 -28z"/>
<path d="M1972 11401 c-8 -5 -12 -23 -10 -47 2 -33 7 -40 27 -42 23 -4 23 -3
8 13 -10 9 -17 28 -17 42 0 22 2 24 15 13 19 -15 28 -9 19 14 -7 18 -22 20
-42 7z"/>
<path d="M2052 11401 c-8 -5 -12 -23 -10 -47 3 -34 6 -39 28 -39 23 0 25 4 28
48 3 40 0 47 -15 47 -10 0 -24 -4 -31 -9z m28 -42 c0 -24 -4 -38 -10 -34 -17
10 -11 75 7 75 2 0 3 -18 3 -41z"/>
<path d="M2120 11360 c0 -36 4 -50 14 -50 11 0 13 10 9 40 -4 26 -2 40 6 40 6
0 11 -5 11 -11 0 -5 5 -7 10 -4 22 14 10 35 -20 35 -29 0 -30 -1 -30 -50z"/>
<path d="M2277 11403 c-4 -3 -7 -17 -7 -30 0 -17 5 -23 17 -21 11 2 19 -5 21
-17 4 -17 2 -18 -12 -6 -19 16 -35 6 -19 -10 6 -6 20 -8 32 -4 27 8 28 45 1
52 -11 3 -20 13 -19 22 0 10 2 11 6 3 5 -13 23 -7 23 9 0 10 -33 12 -43 2z"/>
<path d="M4891 12142 c-17 -31 -23 -87 -12 -114 9 -23 14 -26 33 -19 19 7 23
16 23 52 0 36 -3 44 -17 43 -14 -1 -16 2 -7 17 5 11 15 19 22 19 7 0 6 4 -3
10 -21 14 -28 12 -39 -8z m16 -99 c-3 -10 -5 -2 -5 17 0 19 2 27 5 18 2 -10 2
-26 0 -35z"/>
<path d="M4970 12142 c-18 -15 -21 -24 -15 -50 3 -18 13 -32 21 -32 18 0 18
-9 -1 -30 -14 -16 -14 -18 0 -23 26 -10 46 35 43 94 -3 59 -14 68 -48 41z m17
-49 c-3 -10 -5 -4 -5 12 0 17 2 24 5 18 2 -7 2 -21 0 -30z"/>
<path d="M6823 12150 c-19 -8 -22 -16 -22 -68 1 -78 9 -91 44 -68 23 15 26 22
20 52 -4 26 -3 34 9 34 8 0 20 8 25 18 9 15 10 14 11 -7 0 -13 -10 -39 -21
-58 -25 -40 -16 -56 25 -51 33 4 39 22 9 26 l-22 3 20 34 c26 43 22 79 -9 83
-16 2 -25 -3 -31 -20 -6 -13 -10 -18 -10 -12 -2 25 -26 42 -48 34z m14 -52
c-3 -7 -5 -2 -5 12 0 14 2 19 5 13 2 -7 2 -19 0 -25z m0 -60 c-3 -7 -5 -2 -5
12 0 14 2 19 5 13 2 -7 2 -19 0 -25z"/>
<path d="M7770 12142 c-18 -15 -21 -24 -15 -50 3 -18 13 -32 21 -32 18 0 18
-9 -1 -30 -14 -16 -14 -18 0 -23 26 -10 46 35 43 94 -3 59 -14 68 -48 41z m17
-49 c-3 -10 -5 -4 -5 12 0 17 2 24 5 18 2 -7 2 -21 0 -30z"/>
<path d="M7853 12147 c-13 -5 -23 -16 -23 -24 0 -19 17 -16 29 5 9 15 10 13
11 -10 0 -14 -6 -29 -12 -32 -10 -5 -10 -7 0 -12 6 -3 12 -18 11 -32 0 -15 -3
-21 -6 -14 -2 6 -12 12 -20 12 -10 0 -13 -6 -9 -16 3 -9 6 -17 6 -19 0 -2 13
1 29 6 28 10 29 13 29 69 0 66 -11 83 -45 67z"/>
<path d="M8717 12154 c-10 -11 3 -24 23 -24 19 0 19 -2 -2 -55 -15 -40 -18
-59 -10 -67 8 -8 17 9 32 60 12 39 19 76 15 82 -7 11 -48 14 -58 4z"/>
<path d="M8805 12137 c-15 -22 -21 -122 -7 -130 4 -3 17 -1 30 4 18 7 22 16
22 48 0 27 -6 43 -17 50 -17 10 -17 12 0 25 15 12 15 14 3 19 -9 4 -22 -3 -31
-16z m25 -83 c0 -13 -4 -24 -10 -24 -5 0 -10 14 -10 31 0 17 4 28 10 24 6 -3
10 -17 10 -31z"/>
<path d="M3020 12148 c-1 -2 -2 -35 -3 -75 -2 -60 0 -70 13 -63 12 6 14 23 12
74 -2 36 -8 66 -13 66 -5 0 -9 -1 -9 -2z"/>
<path d="M3939 12146 c-2 -2 -2 -34 -1 -70 3 -50 7 -66 18 -66 12 0 14 14 12
67 -3 58 -14 84 -29 69z"/>
<path d="M3980 12139 c0 -6 9 -8 20 -4 25 8 25 8 -1 -61 -14 -38 -18 -59 -11
-66 7 -7 17 12 31 59 12 39 21 73 21 77 0 3 -13 6 -30 6 -16 0 -30 -5 -30 -11z"/>
<path d="M5862 12138 c-11 -15 -8 -117 5 -128 4 -4 18 -4 30 0 19 8 22 16 22
74 0 62 -2 66 -23 66 -13 0 -28 -6 -34 -12z m25 -40 c-3 -7 -5 -2 -5 12 0 14
2 19 5 13 2 -7 2 -19 0 -25z m0 -60 c-3 -7 -5 -2 -5 12 0 14 2 19 5 13 2 -7 2
-19 0 -25z"/>
<path d="M5940 12148 c-1 -2 -2 -35 -3 -75 -2 -60 0 -70 13 -63 12 6 14 23 12
74 -2 36 -8 66 -13 66 -5 0 -9 -1 -9 -2z"/>
<path d="M3022 11523 l-2 -292 -24 -3 -24 -3 27 -74 28 -74 26 72 c15 40 27
74 27 76 0 2 -10 5 -22 7 l-23 3 -5 290 -5 290 -3 -292z"/>
<path d="M3983 11775 c0 -22 2 -30 4 -17 2 12 2 30 0 40 -3 9 -5 -1 -4 -23z"/>
<path d="M3982 11680 c0 -19 2 -27 5 -17 2 9 2 25 0 35 -3 9 -5 1 -5 -18z"/>
<path d="M3983 11585 c0 -22 2 -30 4 -17 2 12 2 30 0 40 -3 9 -5 -1 -4 -23z"/>
<path d="M3983 11495 c0 -22 2 -30 4 -17 2 12 2 30 0 40 -3 9 -5 -1 -4 -23z"/>
<path d="M3982 11400 c0 -19 2 -27 5 -17 2 9 2 25 0 35 -3 9 -5 1 -5 -18z"/>
<path d="M3983 11305 c0 -22 2 -30 4 -17 2 12 2 30 0 40 -3 9 -5 -1 -4 -23z"/>
<path d="M3980 11242 c0 -7 -11 -12 -25 -12 l-24 0 27 -74 c14 -41 28 -73 31
-70 4 4 51 133 51 141 0 2 -8 3 -18 3 -10 0 -23 5 -30 12 -9 9 -12 9 -12 0z"/>
<path d="M3930 10940 c-12 -22 -14 -127 -2 -133 4 -3 17 -1 30 4 20 8 23 15
20 51 -2 34 -7 43 -20 42 -14 -1 -15 2 -8 16 5 10 15 20 22 22 7 3 2 7 -10 10
-16 4 -25 1 -32 -12z m17 -97 c-3 -10 -5 -2 -5 17 0 19 2 27 5 18 2 -10 2 -26
0 -35z"/>
<path d="M4000 10914 c0 -37 3 -45 15 -40 11 4 15 -2 14 -22 0 -15 -3 -22 -5
-15 -3 7 -12 9 -19 6 -11 -4 -12 -10 -5 -24 9 -16 14 -17 35 -7 20 9 25 18 25
50 0 31 -3 38 -20 38 -27 0 -26 26 1 33 27 7 15 27 -17 27 -22 0 -24 -4 -24
-46z"/>
<path d="M3004 10936 c-11 -27 3 -43 14 -16 l11 25 0 -30 c1 -16 -8 -45 -20
-64 -13 -21 -17 -37 -11 -43 13 -13 54 -6 60 11 3 9 -2 11 -17 6 -26 -8 -26
-5 0 39 26 44 22 80 -9 84 -13 2 -24 -3 -28 -12z"/>
<path d="M2976 10589 c-3 -13 -91 -508 -196 -1099 -105 -591 -193 -1087 -196
-1102 -4 -22 -11 -28 -31 -28 -21 0 -24 -4 -20 -22 3 -13 9 -47 13 -75 3 -29
9 -53 13 -53 5 0 66 101 79 132 2 5 -8 8 -22 8 -22 0 -26 4 -21 23 19 83 395
2230 391 2234 -3 3 -7 -5 -10 -18z"/>
<path d="M3161 10588 c6 -13 50 -92 97 -177 82 -147 85 -154 66 -168 -18 -14
-16 -17 41 -68 33 -29 61 -53 61 -52 4 4 -24 148 -29 154 -4 3 -13 0 -22 -7
-9 -7 -17 -11 -19 -9 -1 2 -45 82 -97 176 -52 95 -98 173 -102 173 -4 0 -2
-10 4 -22z"/>
<path d="M3523 9983 c-15 -5 -18 -33 -3 -33 5 0 14 8 19 18 9 15 10 14 11 -8
0 -15 -6 -32 -12 -39 -10 -11 -10 -13 0 -7 8 5 12 -2 11 -26 0 -18 -3 -27 -6
-20 -6 15 -33 16 -33 2 0 -16 31 -24 49 -13 16 10 23 74 14 116 -4 16 -25 21
-50 10z"/>
<path d="M3542 9483 l-2 -172 -24 -3 -24 -3 27 -74 27 -73 24 63 c12 35 25 69
27 76 3 6 -6 13 -19 15 -23 3 -23 4 -28 173 l-6 170 -2 -172z"/>
<path d="M3969 9461 c179 -173 193 -189 182 -209 -11 -20 -7 -24 59 -57 38
-19 71 -35 73 -35 3 0 -13 34 -35 76 -37 69 -41 74 -57 60 -16 -14 -32 -1
-208 169 -105 102 -195 185 -200 185 -4 -1 79 -85 186 -189z"/>
<path d="M4499 9027 c-21 -11 -24 -20 -25 -65 -1 -62 12 -84 43 -72 19 8 22
16 22 74 0 36 -4 68 -8 70 -4 3 -18 -1 -32 -7z m8 -49 c-3 -7 -5 -2 -5 12 0
14 2 19 5 13 2 -7 2 -19 0 -25z m0 -60 c-3 -7 -5 -2 -5 12 0 14 2 19 5 13 2
-7 2 -19 0 -25z"/>
<path d="M3527 9024 c-4 -4 -7 -25 -7 -46 0 -27 4 -38 15 -38 19 0 19 -14 -1
-34 -14 -15 -14 -16 6 -16 26 0 42 39 38 94 -2 32 -7 42 -23 44 -12 2 -24 0
-28 -4z m33 -40 c0 -13 -4 -24 -10 -24 -5 0 -10 14 -10 31 0 17 4 28 10 24 6
-3 10 -17 10 -31z"/>
<path d="M3542 8523 l-2 -172 -24 -3 -24 -3 27 -74 27 -73 24 63 c12 35 25 69
27 76 3 6 -6 13 -19 15 -23 3 -23 4 -28 173 l-6 170 -2 -172z"/>
<path d="M3969 8501 c179 -173 193 -189 182 -209 -11 -20 -7 -24 59 -57 38
-19 71 -35 73 -35 3 0 -13 34 -35 76 -37 69 -41 74 -57 60 -16 -14 -32 -1
-208 169 -105 102 -195 185 -200 185 -4 -1 79 -85 186 -189z"/>
<path d="M2501 8037 c-27 -43 -27 -57 0 -57 17 0 20 -5 17 -25 -5 -26 -1 -30
20 -16 16 10 12 123 -4 128 -7 2 -21 -11 -33 -30z m19 -22 c0 -8 -4 -15 -10
-15 -5 0 -7 7 -4 15 4 8 8 15 10 15 2 0 4 -7 4 -15z"/>
<path d="M3520 8068 c-1 -2 -2 -35 -3 -75 -2 -60 0 -70 13 -63 12 6 14 23 12
74 -2 36 -8 66 -13 66 -5 0 -9 -1 -9 -2z"/>
<path d="M3560 8068 c-1 -2 -2 -35 -3 -75 -2 -60 0 -70 13 -63 12 6 14 23 12
74 -2 36 -8 66 -13 66 -5 0 -9 -1 -9 -2z"/>
<path d="M4460 8068 c-1 -2 -2 -35 -3 -73 l-2 -71 50 1 c49 0 75 17 36 23 -19
3 -19 3 0 37 26 43 22 79 -9 83 -16 2 -25 -3 -30 -19 l-9 -23 -5 22 c-4 12
-11 22 -17 22 -6 0 -11 -1 -11 -2z m51 -91 l-21 -32 0 33 c0 17 8 40 18 50 16
17 17 17 20 -1 2 -10 -6 -32 -17 -50z"/>
<path d="M3915 7782 c14 -15 426 -195 900 -393 389 -162 400 -168 397 -193
l-3 -26 78 0 78 1 -54 49 c-30 28 -58 50 -62 50 -4 0 -10 -9 -14 -19 -5 -18
-14 -16 -128 31 -248 102 -689 289 -927 393 -283 123 -278 122 -265 107z"/>
<path d="M2024 7540 c-209 -181 -220 -189 -235 -171 -18 21 -12 28 -67 -71
l-32 -56 70 27 c83 33 87 36 70 56 -16 19 -39 -4 215 215 239 206 221 190 209
190 -6 0 -109 -85 -230 -190z"/>
<path d="M2510 7560 c0 -166 0 -170 -21 -170 -23 0 -24 3 7 -92 11 -32 21 -58
24 -58 3 0 13 26 24 58 31 95 30 92 7 92 -21 0 -21 4 -21 170 0 107 -4 170
-10 170 -6 0 -10 -63 -10 -170z"/>
<path d="M3542 7563 l-2 -172 -24 -3 -24 -3 27 -74 27 -73 24 63 c12 35 25 69
27 76 3 6 -6 13 -19 15 -23 3 -23 4 -28 173 l-6 170 -2 -172z"/>
<path d="M1410 7074 c0 -41 2 -45 20 -39 17 5 20 2 20 -21 0 -22 -3 -24 -14
-15 -11 9 -16 9 -21 1 -11 -18 10 -33 34 -25 17 5 21 15 21 46 0 32 -3 39 -20
39 -26 0 -26 30 0 37 26 7 15 23 -16 23 -22 0 -24 -4 -24 -46z"/>
<path d="M2505 7097 c-15 -22 -21 -122 -7 -130 4 -3 17 -1 30 4 18 7 22 16 22
48 0 27 -6 43 -17 50 -17 10 -17 12 0 25 15 12 15 14 3 19 -9 4 -22 -3 -31
-16z m25 -83 c0 -13 -4 -24 -10 -24 -5 0 -10 14 -10 31 0 17 4 28 10 24 6 -3
10 -17 10 -31z"/>
<path d="M3500 7108 c-1 -2 -2 -35 -3 -75 -2 -60 0 -70 13 -63 12 6 14 23 12
74 -2 36 -8 66 -13 66 -5 0 -9 -1 -9 -2z"/>
<path d="M3547 7104 c-4 -4 -7 -36 -7 -71 0 -53 3 -63 18 -63 34 0 42 14 39
75 -2 52 -5 60 -22 63 -12 2 -24 0 -28 -4z m33 -29 c0 -8 -4 -17 -10 -20 -6
-4 -10 5 -10 20 0 15 4 24 10 20 6 -3 10 -12 10 -20z m0 -71 c0 -8 -4 -14 -10
-14 -5 0 -10 9 -10 21 0 11 5 17 10 14 6 -3 10 -13 10 -21z"/>
<path d="M5670 7108 c-1 -2 -2 -35 -3 -75 -2 -60 0 -70 13 -63 12 6 14 23 12
74 -2 36 -8 66 -13 66 -5 0 -9 -1 -9 -2z"/>
<path d="M5720 7091 c-5 -11 -10 -43 -10 -71 0 -50 1 -51 28 -48 25 3 27 6 27
48 0 36 -3 45 -17 44 -14 -1 -15 2 -8 16 5 10 15 21 22 23 7 3 3 6 -9 6 -12 1
-27 -8 -33 -18z m30 -77 c0 -13 -4 -24 -10 -24 -5 0 -10 14 -10 31 0 17 4 28
10 24 6 -3 10 -17 10 -31z"/>
<path d="M973 6585 c-111 -102 -207 -185 -212 -185 -6 0 -14 7 -19 16 -9 16
-28 -10 -76 -103 l-16 -32 72 31 c40 16 75 32 77 34 2 2 -3 12 -11 21 -15 17
-1 31 189 203 112 102 207 188 209 193 20 30 -38 -18 -213 -178z"/>
<path d="M1416 6743 c-3 -15 -8 -82 -11 -148 -8 -143 -11 -155 -36 -155 -10 0
-19 -3 -19 -7 0 -19 34 -153 39 -153 5 0 18 30 57 133 5 13 1 17 -15 17 -25 0
-26 15 -11 205 10 121 8 170 -4 108z"/>
<path d="M1660 6766 c0 -5 53 -64 117 -130 254 -261 239 -243 220 -264 -16
-17 -13 -20 59 -55 56 -28 72 -33 65 -20 -5 10 -21 45 -35 77 -25 57 -27 59
-44 42 -16 -16 -27 -7 -199 171 -100 103 -182 184 -183 179z"/>
<path d="M3060 6634 c-350 -271 -318 -249 -339 -230 -18 16 -20 14 -59 -46
-22 -35 -38 -65 -37 -66 6 -6 145 42 145 49 0 4 -4 11 -10 14 -5 3 -10 10 -10
15 0 5 107 90 238 191 252 193 272 209 257 209 -6 0 -89 -61 -185 -136z"/>
<path d="M3446 6744 c-9 -36 1 -43 14 -10 12 33 12 36 1 36 -5 0 -12 -12 -15
-26z"/>
<path d="M3611 6738 c40 -138 79 -300 74 -308 -3 -6 -13 -10 -21 -10 -9 0 -14
-4 -12 -8 9 -22 84 -131 91 -131 4 -1 7 35 7 80 0 76 -1 80 -22 77 -19 -3 -25
10 -66 165 -25 92 -49 167 -53 167 -4 0 -3 -15 2 -32z"/>
<path d="M3852 6757 c10 -7 125 -96 257 -197 228 -176 238 -185 225 -205 -13
-20 -11 -22 57 -44 39 -12 73 -21 75 -18 2 2 -14 32 -36 66 -39 60 -42 62 -59
46 -18 -15 -31 -7 -260 170 -133 102 -249 188 -259 191 -16 5 -16 5 0 -9z"/>
<path d="M5710 6600 c0 -163 -1 -170 -20 -170 -11 0 -20 -3 -20 -7 0 -14 45
-133 50 -133 5 0 50 119 50 133 0 4 -9 7 -20 7 -19 0 -20 7 -20 170 0 107 -4
170 -10 170 -6 0 -10 -63 -10 -170z"/>
<path d="M6143 6580 c189 -184 197 -193 181 -211 -16 -18 -14 -20 42 -45 32
-14 67 -30 77 -35 13 -7 8 9 -20 65 -35 71 -38 74 -55 60 -16 -15 -30 -4 -208
167 -105 101 -196 186 -203 188 -6 2 77 -83 186 -189z"/>
<path d="M3416 6654 c-9 -36 1 -43 14 -10 12 33 12 36 1 36 -5 0 -12 -12 -15
-26z"/>
<path d="M3392 6571 c-7 -19 -10 -36 -7 -39 6 -7 26 49 22 62 -2 6 -9 -5 -15
-23z"/>
<path d="M3365 6480 c-4 -17 -5 -34 -2 -36 3 -3 8 9 12 26 4 17 5 34 2 36 -3
3 -8 -9 -12 -26z"/>
<path d="M3340 6394 c-13 -32 -13 -51 -1 -38 10 11 24 64 16 64 -3 0 -10 -12
-15 -26z"/>
<path d="M3315 6300 c-4 -17 -5 -34 -2 -36 3 -3 8 9 12 26 4 17 5 34 2 36 -3
3 -8 -9 -12 -26z"/>
<path d="M3297 6227 c-4 -10 -7 -28 -6 -40 0 -21 1 -21 10 2 5 14 8 32 7 40
-3 13 -5 13 -11 -2z"/>
<path d="M359 6146 c-2 -2 -2 -34 -1 -70 3 -50 7 -66 18 -66 12 0 14 14 12 67
-3 58 -14 84 -29 69z"/>
<path d="M412 6141 c-9 -5 -12 -26 -10 -67 3 -55 4 -59 28 -59 24 0 25 3 28
68 3 59 1 67 -15 67 -10 0 -24 -4 -31 -9z m28 -37 c0 -14 -4 -23 -10 -19 -5 3
-10 15 -10 26 0 10 5 19 10 19 6 0 10 -12 10 -26z m0 -61 c-1 -24 -2 -26 -11
-10 -5 9 -7 22 -4 27 10 17 15 11 15 -17z"/>
<path d="M1320 6148 c-4 -24 -4 -148 0 -148 3 0 11 4 18 9 17 11 12 133 -5
139 -7 2 -13 2 -13 0z"/>
<path d="M1367 6143 c-4 -3 -7 -21 -7 -40 0 -25 5 -36 22 -42 l21 -8 -21 -21
c-18 -18 -19 -21 -4 -27 21 -8 39 16 47 66 9 52 -1 79 -29 79 -12 0 -26 -3
-29 -7z m30 -50 c-3 -10 -5 -4 -5 12 0 17 2 24 5 18 2 -7 2 -21 0 -30z"/>
<path d="M2279 6146 c-2 -2 -2 -34 -1 -70 3 -49 7 -66 18 -66 9 0 14 11 14 29
0 24 3 28 20 24 13 -4 20 -14 20 -30 0 -15 5 -23 13 -21 7 3 13 29 15 71 2 55
0 67 -13 67 -8 0 -23 -16 -33 -37 l-17 -36 -5 33 c-5 30 -19 47 -31 36z"/>
<path d="M3275 6120 c-4 -17 -5 -34 -2 -36 3 -3 8 9 12 26 4 17 5 34 2 36 -3
3 -8 -9 -12 -26z"/>
<path d="M3743 6143 c-15 -5 -18 -43 -3 -43 5 0 14 8 19 18 10 16 10 15 11 -3
0 -11 -9 -35 -20 -53 -34 -55 -28 -65 35 -58 30 3 59 8 65 11 5 3 9 34 9 69
l0 64 -52 0 c-29 -1 -58 -3 -64 -5z m97 -27 c0 -7 -7 -19 -16 -27 -14 -11 -14
-13 0 -21 18 -10 22 -38 6 -38 -5 0 -10 5 -10 10 0 7 -6 7 -19 0 -35 -18 -42
-12 -25 23 27 53 64 84 64 53z"/>
<path d="M4701 6117 c-27 -43 -27 -57 0 -57 17 0 20 -5 17 -25 -5 -26 -1 -30
20 -16 16 10 12 123 -4 128 -7 2 -21 -11 -33 -30z m19 -22 c0 -8 -4 -15 -10
-15 -5 0 -7 7 -4 15 4 8 8 15 10 15 2 0 4 -7 4 -15z"/>
<path d="M4772 6138 c-16 -16 -15 -28 2 -28 8 0 17 8 19 18 3 11 5 8 6 -8 0
-15 -5 -32 -11 -39 -10 -11 -10 -13 0 -7 8 5 12 -2 12 -26 0 -23 -3 -29 -9
-19 -5 7 -14 12 -20 10 -23 -8 7 -32 33 -25 25 6 26 9 23 69 -2 54 -5 62 -22
65 -11 1 -26 -3 -33 -10z"/>
<path d="M5663 6143 c-16 -6 -17 -43 -3 -43 6 0 15 10 20 23 9 22 9 22 9 -3 1
-14 -8 -40 -20 -59 -25 -42 -19 -63 18 -59 16 2 27 8 25 13 -2 6 -10 9 -18 7
-18 -4 -18 17 1 42 8 11 15 35 15 53 0 33 -13 40 -47 26z"/>
<path d="M5730 6109 l-21 -41 20 -5 c14 -4 21 -14 21 -30 0 -15 5 -23 13 -21
7 3 13 29 15 71 4 81 -15 91 -48 26z"/>
<path d="M6623 6143 c-16 -6 -17 -43 -3 -43 6 0 15 10 20 23 9 22 9 22 9 -3 1
-14 -8 -40 -20 -59 -25 -42 -19 -63 18 -59 16 2 27 8 25 13 -2 6 -10 9 -18 7
-18 -4 -18 17 1 42 8 11 15 35 15 53 0 33 -13 40 -47 26z"/>
<path d="M6682 6113 c2 -29 7 -38 21 -37 11 1 17 -5 17 -21 0 -18 -4 -22 -20
-18 -16 4 -19 2 -14 -11 4 -10 15 -16 28 -14 17 2 22 11 24 46 3 37 1 42 -17
42 -28 0 -27 28 2 40 20 8 19 9 -11 9 -32 1 -33 0 -30 -36z"/>
<path d="M3257 6037 c-4 -10 -7 -26 -7 -35 1 -15 2 -15 11 1 6 10 9 25 7 35
-3 16 -4 15 -11 -1z"/>
<path d="M3240 5946 c0 -8 -3 -21 -6 -30 -3 -9 -2 -16 4 -16 5 0 12 14 14 30
3 17 1 30 -4 30 -4 0 -8 -6 -8 -14z"/>
<path d="M3220 5838 c0 -36 4 -35 14 5 4 16 2 27 -4 27 -5 0 -10 -14 -10 -32z"/>
<path d="M410 5645 c-5 -169 -5 -170 -28 -173 -13 -2 -22 -9 -19 -15 2 -7 15
-41 27 -75 l23 -64 27 74 27 73 -23 3 c-23 3 -24 4 -26 175 l-3 172 -5 -170z"/>
<path d="M720 5786 c14 -13 365 -297 780 -631 929 -749 864 -694 849 -711 -8
-9 -9 -18 -3 -24 12 -12 126 -51 132 -46 6 6 -69 126 -79 126 -4 0 -12 -7 -17
-16 -8 -13 -157 103 -841 655 -457 369 -834 671 -838 671 -4 0 4 -11 17 -24z"/>
<path d="M3496 5635 c-70 -96 -129 -175 -132 -175 -3 0 -13 4 -23 10 -16 8
-21 1 -40 -63 -11 -40 -21 -75 -21 -79 0 -4 29 13 66 38 62 44 64 47 48 65
-16 17 -10 27 102 181 66 89 125 170 132 180 7 10 9 18 4 18 -4 0 -66 -79
-136 -175z"/>
<path d="M5282 5623 c-179 -172 -195 -185 -210 -170 -15 15 -19 11 -54 -55
-21 -40 -36 -73 -34 -75 2 -2 36 13 76 32 68 34 71 37 56 54 -16 18 -6 29 181
210 108 105 193 191 187 191 -5 0 -96 -84 -202 -187z"/>
<path d="M5710 5640 c0 -166 0 -170 -21 -170 -23 0 -24 3 7 -92 11 -32 21 -58
24 -58 3 0 13 26 24 58 31 95 30 92 7 92 -21 0 -21 4 -21 170 0 107 -4 170
-10 170 -6 0 -10 -63 -10 -170z"/>
<path d="M6670 5640 c0 -163 -1 -170 -20 -170 -11 0 -20 -3 -20 -7 0 -14 45
-133 50 -133 5 0 50 119 50 133 0 4 -9 7 -20 7 -19 0 -20 7 -20 170 0 107 -4
170 -10 170 -6 0 -10 -63 -10 -170z"/>
<path d="M7103 5620 c188 -183 197 -193 181 -211 -15 -17 -13 -20 57 -53 41
-19 75 -33 76 -32 1 1 -14 34 -35 74 -35 66 -39 70 -54 55 -15 -15 -31 -2
-207 168 -105 101 -197 186 -204 188 -6 2 77 -83 186 -189z"/>
<path d="M3206 5752 c-5 -18 -5 -36 -2 -39 7 -7 19 43 13 59 -2 7 -7 -2 -11
-20z"/>
<path d="M3188 5650 c-3 -16 -1 -30 3 -30 4 0 9 14 11 30 3 17 1 30 -3 30 -4
0 -9 -13 -11 -30z"/>
<path d="M3177 5566 c-5 -15 -6 -31 -3 -34 8 -8 18 25 14 45 -3 13 -6 10 -11
-11z"/>
<path d="M3160 5491 c0 -5 -10 -11 -23 -13 l-23 -3 16 -80 16 -80 37 72 c20
40 37 75 37 78 0 3 -9 5 -20 5 -11 0 -20 7 -20 15 0 8 -4 15 -10 15 -5 0 -10
-4 -10 -9z"/>
<path d="M3523 5371 c-29 -33 -53 -61 -53 -64 0 -4 151 23 158 28 2 2 -48 95
-51 95 -1 0 -26 -27 -54 -59z"/>
<path d="M4713 5187 c-13 -5 -23 -16 -23 -24 0 -19 17 -16 29 5 9 15 10 13 11
-10 0 -14 -6 -29 -12 -32 -10 -5 -10 -7 0 -12 6 -3 12 -18 11 -32 0 -15 -3
-21 -6 -14 -2 6 -12 12 -20 12 -10 0 -13 -6 -9 -16 3 -9 6 -17 6 -19 0 -2 13
1 29 6 28 10 29 13 29 69 0 66 -11 83 -45 67z"/>
<path d="M4793 5187 c-13 -5 -23 -18 -23 -29 0 -23 16 -23 29 0 10 16 10 15
11 -3 0 -11 -9 -35 -20 -53 -29 -48 -26 -64 12 -60 35 3 52 28 19 28 -21 0
-21 1 -6 30 16 30 20 86 8 93 -5 3 -18 0 -30 -6z"/>
<path d="M5663 5187 c-13 -5 -23 -16 -23 -24 0 -19 28 -16 33 5 3 11 5 8 6 -8
0 -15 -4 -31 -11 -38 -9 -9 -9 -12 0 -12 7 0 11 -12 11 -27 -1 -16 -3 -21 -6
-11 -2 9 -10 15 -18 12 -7 -3 -11 -14 -8 -25 6 -22 4 -22 37 -9 23 8 25 14 25
69 -1 67 -12 84 -46 68z"/>
<path d="M5753 5189 c-21 -7 -23 -15 -23 -73 0 -36 3 -67 8 -69 4 -3 17 -1 30
4 20 7 22 15 22 73 0 36 -3 67 -7 69 -5 3 -18 1 -30 -4z m17 -39 c0 -11 -4
-20 -10 -20 -5 0 -10 9 -10 20 0 11 5 20 10 20 6 0 10 -9 10 -20z m0 -65 c0
-8 -4 -15 -10 -15 -5 0 -10 7 -10 15 0 8 5 15 10 15 6 0 10 -7 10 -15z"/>
<path d="M7583 5187 c-13 -5 -23 -16 -23 -24 0 -19 28 -16 33 5 3 11 5 8 6 -8
0 -15 -4 -31 -11 -38 -9 -9 -9 -12 0 -12 7 0 11 -12 11 -27 -1 -16 -3 -21 -6
-11 -2 9 -10 15 -18 12 -7 -3 -11 -14 -8 -25 6 -22 4 -22 37 -9 23 8 25 14 25
69 -1 67 -12 84 -46 68z"/>
<path d="M7660 5160 c-25 -50 -25 -60 1 -60 17 0 20 -5 16 -25 -3 -20 -1 -25
12 -23 23 5 29 133 6 141 -10 5 -21 -5 -35 -33z"/>
<path d="M373 5172 c-3 -9 -8 -20 -10 -24 -2 -5 1 -8 7 -8 6 0 15 10 20 23 8
21 9 20 9 -7 1 -16 -8 -44 -20 -62 -11 -19 -17 -39 -14 -45 7 -10 72 -8 91 4
5 3 8 34 6 69 l-4 64 -39 1 c-30 2 -42 -2 -46 -15z m67 -54 c0 -50 -2 -53 -25
-54 -15 -1 -25 1 -23 5 2 4 12 28 23 54 11 26 21 47 23 47 1 0 2 -24 2 -52z"/>
<path d="M3063 5183 c-16 -6 -17 -43 -3 -43 6 0 15 10 20 23 9 22 9 22 9 -3 1
-14 -8 -40 -20 -59 -25 -42 -19 -63 18 -59 16 2 27 8 25 13 -2 6 -10 9 -18 7
-18 -4 -18 17 1 42 8 11 15 35 15 53 0 33 -13 40 -47 26z"/>
<path d="M3129 5163 c-5 -15 -9 -45 -7 -67 3 -36 6 -41 28 -41 23 0 25 4 25
45 0 31 -4 44 -12 43 -18 -4 -16 12 3 31 14 15 14 16 -6 16 -13 0 -24 -10 -31
-27z m31 -70 c0 -28 -3 -34 -10 -23 -13 20 -13 60 0 60 6 0 10 -17 10 -37z"/>
<path d="M6612 5178 c-16 -16 -15 -28 2 -28 8 0 17 8 19 18 3 11 5 8 6 -8 0
-15 -5 -32 -11 -39 -10 -11 -10 -13 0 -7 8 5 12 -2 12 -26 0 -23 -3 -29 -9
-19 -5 7 -14 12 -20 10 -23 -8 7 -32 33 -25 25 6 26 9 23 69 -2 54 -5 62 -22
65 -11 1 -26 -3 -33 -10z"/>
<path d="M6692 5178 c-16 -16 -15 -28 2 -28 8 0 17 8 19 18 3 11 5 8 6 -8 0
-15 -5 -32 -11 -39 -10 -11 -10 -13 0 -7 8 5 12 -2 12 -26 0 -23 -3 -29 -9
-19 -5 7 -14 12 -20 10 -23 -8 7 -32 33 -25 25 6 26 9 23 69 -2 54 -5 62 -22
65 -11 1 -26 -3 -33 -10z"/>
<path d="M413 4815 c0 -22 2 -30 4 -17 2 12 2 30 0 40 -3 9 -5 -1 -4 -23z"/>
<path d="M2959 4683 c-58 -151 -67 -168 -87 -166 -27 3 -34 -21 -30 -101 l3
-57 53 63 c49 59 51 64 32 72 -11 5 -20 12 -20 16 0 8 119 319 127 333 2 4 0
7 -4 7 -5 0 -38 -75 -74 -167z"/>
<path d="M413 4725 c0 -22 2 -30 4 -17 2 12 2 30 0 40 -3 9 -5 -1 -4 -23z"/>
<path d="M412 4630 c0 -19 2 -27 5 -17 2 9 2 25 0 35 -3 9 -5 1 -5 -18z"/>
<path d="M410 4545 c-4 -22 -11 -31 -27 -33 -13 -2 -23 -4 -23 -5 0 -6 48
-139 51 -142 3 -2 16 30 31 71 l26 74 -23 0 c-19 0 -24 6 -27 33 l-4 32 -4
-30z"/>
<path d="M6670 4520 c0 -5 -10 -10 -21 -10 -23 0 -24 3 7 -92 11 -32 21 -58
24 -58 3 0 13 26 24 58 31 95 30 92 7 92 -11 0 -21 5 -21 10 0 6 -4 10 -10 10
-5 0 -10 -4 -10 -10z"/>
<path d="M363 4229 c-32 -12 -33 -78 -3 -86 19 -5 20 -7 5 -29 -11 -17 -12
-25 -3 -30 13 -8 38 22 38 47 0 12 6 15 25 11 19 -3 25 -11 25 -29 0 -19 4
-24 16 -19 9 3 16 6 17 6 1 0 0 29 -1 65 -4 77 -21 85 -51 28 -19 -35 -20 -36
-21 -12 0 38 -20 59 -47 48z m14 -56 c-3 -10 -5 -4 -5 12 0 17 2 24 5 18 2 -7
2 -21 0 -30z"/>
<path d="M6620 4200 c-25 -50 -25 -60 1 -60 17 0 20 -5 16 -25 -3 -20 -1 -25
12 -23 23 5 29 133 6 141 -10 5 -21 -5 -35 -33z"/>
<path d="M6713 4229 c-21 -7 -23 -15 -23 -73 0 -36 3 -67 8 -69 4 -3 17 -1 30
4 20 7 22 15 22 73 0 36 -3 67 -7 69 -5 3 -18 1 -30 -4z m17 -39 c0 -11 -4
-20 -10 -20 -5 0 -10 9 -10 20 0 11 5 20 10 20 6 0 10 -9 10 -20z m0 -65 c0
-8 -4 -15 -10 -15 -5 0 -10 7 -10 15 0 8 5 15 10 15 6 0 10 -7 10 -15z"/>
<path d="M2704 4215 c-11 -27 3 -41 14 -15 l11 25 0 -30 c1 -16 -8 -45 -19
-63 -11 -18 -18 -37 -15 -42 9 -15 128 -7 133 9 3 9 -2 11 -17 6 -26 -8 -26
-4 -1 46 12 23 18 48 15 60 -9 26 -45 25 -53 -3 l-5 -22 -8 22 c-9 25 -47 30
-55 7z m81 -71 c-15 -28 -52 -51 -62 -40 -7 7 38 74 52 80 8 3 16 13 16 23 1
11 4 8 6 -7 3 -14 -3 -39 -12 -56z"/>
<path d="M3120 3891 c0 -4 140 -97 310 -205 171 -109 310 -200 310 -202 0 -3
-4 -13 -9 -23 -9 -16 -1 -20 62 -34 40 -10 76 -17 80 -17 7 0 -40 64 -86 115
-5 6 -13 3 -22 -9 -13 -17 -25 -11 -207 105 -106 67 -248 158 -315 201 -68 43
-123 74 -123 69z"/>
<path d="M410 3725 c-5 -167 -5 -170 -27 -173 -13 -2 -23 -4 -23 -5 0 -6 48
-139 51 -142 3 -2 16 30 31 71 l26 74 -24 0 -24 0 -2 173 -3 172 -5 -170z"/>
<path d="M2322 3703 c-179 -172 -195 -185 -210 -170 -15 15 -19 11 -54 -55
-21 -40 -36 -73 -35 -74 1 -2 36 13 76 32 70 33 73 35 57 53 -16 18 -8 27 181
210 108 105 193 191 187 191 -5 0 -96 -84 -202 -187z"/>
<path d="M2750 3720 c0 -166 0 -170 -21 -170 -23 0 -24 3 7 -92 11 -32 21 -58
24 -58 3 0 13 26 24 58 31 95 30 92 7 92 -21 0 -21 4 -21 170 0 107 -4 170
-10 170 -6 0 -10 -63 -10 -170z"/>
<path d="M363 3269 c-32 -12 -33 -78 -3 -86 19 -5 19 -7 6 -28 -13 -20 -13
-24 -1 -29 19 -7 34 21 41 76 7 54 -10 80 -43 67z m14 -56 c-3 -10 -5 -4 -5
12 0 17 2 24 5 18 2 -7 2 -21 0 -30z"/>
<path d="M422 3238 c2 -34 7 -43 21 -42 12 1 17 -6 17 -23 0 -21 -3 -23 -14
-14 -17 15 -34 -5 -18 -21 13 -13 43 -7 55 13 13 21 1 69 -18 69 -20 0 -19 26
1 34 22 8 7 26 -22 26 -23 0 -25 -3 -22 -42z"/>
<path d="M1743 3267 c-13 -5 -23 -16 -23 -24 0 -19 28 -16 33 5 3 11 5 8 6 -8
0 -15 -4 -31 -11 -38 -9 -9 -9 -12 0 -12 7 0 11 -12 11 -27 -1 -16 -3 -21 -6
-11 -2 9 -10 15 -18 12 -7 -3 -11 -14 -8 -25 6 -22 4 -22 37 -9 23 8 25 14 25
69 -1 67 -12 84 -46 68z"/>
<path d="M1810 3234 c0 -41 2 -46 20 -41 16 4 20 0 20 -20 0 -21 -3 -23 -14
-14 -17 15 -31 -2 -19 -23 6 -9 15 -11 31 -5 18 7 22 16 22 49 0 33 -3 40 -20
40 -27 0 -26 26 1 33 27 7 15 27 -17 27 -22 0 -24 -4 -24 -46z"/>
<path d="M2703 3267 c-13 -5 -23 -16 -23 -24 0 -19 28 -16 33 5 3 11 5 8 6 -8
0 -15 -4 -31 -11 -38 -9 -9 -9 -12 0 -12 7 0 11 -12 11 -27 -1 -16 -3 -21 -6
-11 -2 9 -10 15 -18 12 -7 -3 -11 -14 -8 -25 6 -22 4 -22 37 -9 23 8 25 14 25
69 -1 67 -12 84 -46 68z"/>
<path d="M2785 3257 c-15 -22 -21 -122 -7 -130 4 -3 17 -1 30 4 18 7 22 16 22
48 0 27 -6 43 -17 50 -17 10 -17 12 0 25 15 12 15 14 3 19 -9 4 -22 -3 -31
-16z m25 -83 c0 -13 -4 -24 -10 -24 -5 0 -10 14 -10 31 0 17 4 28 10 24 6 -3
10 -17 10 -31z"/>
<path d="M4183 3263 c-15 -5 -18 -33 -3 -33 5 0 14 8 19 18 9 15 10 14 11 -8
0 -15 -6 -32 -12 -39 -10 -11 -10 -13 0 -7 8 5 12 -2 11 -26 0 -18 -3 -27 -6
-20 -6 15 -33 16 -33 2 0 -16 31 -24 49 -13 16 10 23 74 14 116 -4 16 -25 21
-50 10z"/>
<path d="M4260 3268 c-1 -2 -2 -35 -3 -75 -2 -60 0 -70 13 -63 12 6 14 23 12
74 -2 36 -8 66 -13 66 -5 0 -9 -1 -9 -2z"/>
<path d="M3789 2743 c-184 -182 -189 -186 -208 -169 -19 18 -21 16 -56 -54
-20 -40 -35 -73 -33 -75 2 -1 36 13 76 32 70 33 73 35 57 53 -15 17 -6 28 177
209 106 105 189 191 184 191 -5 0 -94 -84 -197 -187z"/>
<path d="M4222 2763 l-2 -173 -25 0 -24 0 27 -74 c14 -41 28 -73 30 -71 4 3
52 136 52 142 0 1 -10 3 -22 5 -23 3 -23 6 -28 173 l-6 170 -2 -172z"/>
<path d="M4649 2741 c179 -173 193 -189 182 -209 -11 -20 -7 -24 59 -57 38
-19 71 -35 73 -35 3 0 -13 34 -35 76 -37 69 -41 74 -57 60 -16 -14 -32 -1
-208 169 -105 102 -195 185 -200 185 -4 -1 79 -85 186 -189z"/>
<path d="M3301 2563 c0 -21 4 -58 7 -83 l7 -44 43 67 c23 38 42 70 42 71 0 3
-83 26 -94 26 -3 0 -6 -17 -5 -37z"/>
<path d="M3287 2313 c-14 -13 -6 -24 13 -18 25 8 25 8 -1 -61 -14 -38 -18 -59
-11 -66 12 -12 57 126 47 142 -7 11 -38 13 -48 3z"/>
<path d="M4173 2307 c-13 -5 -23 -16 -23 -24 0 -19 17 -16 29 5 9 15 10 13 11
-10 0 -14 -6 -29 -12 -32 -10 -5 -10 -7 0 -12 6 -3 12 -18 11 -32 0 -15 -3
-21 -6 -14 -2 6 -12 12 -20 12 -10 0 -13 -6 -9 -16 3 -9 6 -17 6 -19 0 -2 13
1 29 6 28 10 29 13 29 69 0 66 -11 83 -45 67z"/>
<path d="M4259 2307 c-21 -11 -24 -20 -25 -65 -1 -62 12 -84 43 -72 19 8 22
16 22 74 0 36 -4 68 -8 70 -4 3 -18 -1 -32 -7z m8 -49 c-3 -7 -5 -2 -5 12 0
14 2 19 5 13 2 -7 2 -19 0 -25z m0 -60 c-3 -7 -5 -2 -5 12 0 14 2 19 5 13 2
-7 2 -19 0 -25z"/>
<path d="M5133 2307 c-13 -5 -23 -16 -23 -24 0 -19 17 -16 29 5 9 15 10 13 11
-10 0 -14 -6 -29 -12 -32 -10 -5 -10 -7 0 -12 6 -3 12 -18 11 -32 0 -15 -3
-21 -6 -14 -2 6 -12 12 -20 12 -10 0 -13 -6 -9 -16 3 -9 6 -17 6 -19 0 -2 13
1 29 6 28 10 29 13 29 69 0 66 -11 83 -45 67z"/>
<path d="M5212 2304 c-31 -21 -28 -84 4 -84 18 0 18 -9 -1 -30 -14 -16 -14
-18 0 -23 26 -10 46 35 43 94 -3 58 -12 67 -46 43z m15 -51 c-3 -10 -5 -4 -5
12 0 17 2 24 5 18 2 -7 2 -21 0 -30z"/>
<path d="M3207 2303 c-11 -10 -8 -33 3 -33 6 0 10 7 10 16 0 8 5 12 10 9 14
-9 12 -45 -2 -45 -9 0 -9 -3 0 -12 15 -15 16 -58 2 -58 -5 0 -10 5 -10 10 0 6
-4 10 -10 10 -5 0 -10 -7 -10 -16 0 -11 8 -14 28 -12 26 3 27 5 29 71 3 64 2
67 -21 67 -12 0 -26 -3 -29 -7z"/>
<path d="M3262 1803 l-2 -172 -24 -3 -24 -3 27 -74 27 -73 24 63 c12 35 25 69
27 76 3 6 -6 13 -19 15 -23 3 -23 4 -28 173 l-6 170 -2 -172z"/>
<path d="M3287 1353 c-14 -13 -6 -24 13 -18 25 8 25 8 -1 -61 -14 -38 -18 -59
-11 -66 12 -12 57 126 47 142 -7 11 -38 13 -48 3z"/>
<path d="M3210 1309 l-21 -41 20 -5 c14 -4 21 -14 21 -30 0 -15 5 -23 13 -21
7 3 13 29 15 71 4 81 -15 91 -48 26z"/>
<path d="M3262 843 l-2 -173 -25 0 -24 0 27 -74 c14 -41 28 -73 30 -71 4 3 52
136 52 142 0 1 -10 3 -22 5 -23 3 -23 6 -28 173 l-6 170 -2 -172z"/>
<path d="M3210 363 c0 -35 14 -58 29 -49 7 5 11 -1 11 -13 0 -12 -3 -20 -7
-20 -27 4 -33 -2 -23 -21 9 -17 14 -18 35 -8 20 9 25 18 25 50 0 31 -3 38 -20
38 -11 0 -20 7 -20 15 0 8 6 15 14 15 8 0 18 5 21 10 4 6 -8 10 -29 10 -33 0
-36 -3 -36 -27z"/>
<path d="M3295 316 c0 -63 2 -73 15 -66 12 6 14 23 12 74 -5 95 -27 89 -27 -8z"/>
</g>
</svg>
