<svg xmlns="http://www.w3.org/2000/svg" width="1094pt" height="942pt" viewBox="0.00 0.00 1094.00 942.00">
<g id="graph0" class="graph" transform="scale(1 1) rotate(0) translate(4 938)">
<title>G</title>
<polygon fill="none" stroke="none" points="-4,4 -4,-938 1090,-938 1090,4 -4,4" />
<g id="clust1" class="cluster">
<title>cluster_0</title>
<polygon fill="none" stroke="black" points="88,-836 88,-926 158,-926 158,-836 88,-836" />
<text text-anchor="middle" x="123" y="-858.8" font-family="Pirata One" font-size="14.00">Town</text>
<text text-anchor="middle" x="123" y="-843.8" font-family="Pirata One" font-size="14.00"> Records</text>
</g>

<g id="node1" class="node">
<title>72</title>
<polygon fill="#d76b4a" fill-opacity="0.564706" stroke="#d76b4a" stroke-opacity="0.564706" points="150,-918 96,-918 96,-882 150,-882 150,-918" />
<text text-anchor="middle" x="123" y="-896.3" font-family="Pirata One" font-size="14.00">72</text>
</g>

<g id="node2" class="node">
<title>1</title>
<polygon fill="#a1dbd6" fill-opacity="0.564706" stroke="#a1dbd6" stroke-opacity="0.564706" points="222,-918 168,-918 168,-882 222,-882 222,-918" />
<text text-anchor="middle" x="195" y="-896.3" font-family="Pirata One" font-size="14.00">1</text>
</g>

<g id="node3" class="node">
<title>2</title>
<polygon fill="#a1dbd6" fill-opacity="0.564706" stroke="#a1dbd6" stroke-opacity="0.564706" points="222,-828 168,-828 168,-792 222,-792 222,-828" />
<text text-anchor="middle" x="195" y="-806.3" font-family="Pirata One" font-size="14.00">2</text>
</g>

<g id="edge1" class="edge">
<title>1-&gt;2</title>
<path fill="none" stroke="black" d="M195,-881.61C195,-869.68 195,-853.57 195,-839.74" />
<polygon fill="black" stroke="black" points="198.5,-839.86 195,-829.86 191.5,-839.86 198.5,-839.86" />
</g>

<g id="node4" class="node">
<title>3</title>
<polygon fill="#a1dbd6" fill-opacity="0.564706" stroke="#a1dbd6" stroke-opacity="0.564706" points="250,-756 196,-756 196,-720 250,-720 250,-756" />
<text text-anchor="middle" x="223" y="-734.3" font-family="Pirata One" font-size="14.00">3</text>
</g>

<g id="edge2" class="edge">
<title>2-&gt;3</title>
<path fill="none" stroke="black" d="M201.92,-791.7C204.94,-784.15 208.55,-775.12 211.93,-766.68" />
<polygon fill="black" stroke="black" points="215.13,-768.09 215.6,-757.51 208.63,-765.49 215.13,-768.09" />
</g>

<g id="node6" class="node">
<title>4</title>
<polygon fill="#a1dbd6" fill-opacity="0.564706" stroke="#a1dbd6" stroke-opacity="0.564706" points="195,-612 141,-612 141,-576 195,-576 195,-612" />
<text text-anchor="middle" x="168" y="-590.3" font-family="Pirata One" font-size="14.00">4</text>
</g>

<g id="edge4" class="edge">
<title>2-&gt;4</title>
<path fill="none" stroke="black" d="M192.27,-791.83C190.65,-781.47 188.61,-767.99 187,-756 180.78,-709.75 174.65,-655.87 171.1,-623.64" />
<polygon fill="black" stroke="black" points="174.6,-623.48 170.03,-613.92 167.64,-624.24 174.6,-623.48" />
</g>

<g id="node5" class="node">
<title>9</title>
<polygon fill="#a1dbd6" fill-opacity="0.564706" stroke="#a1dbd6" stroke-opacity="0.564706" points="322,-684 268,-684 268,-648 322,-648 322,-684" />
<text text-anchor="middle" x="295" y="-662.3" font-family="Pirata One" font-size="14.00">9</text>
</g>

<g id="edge3" class="edge">
<title>3-&gt;9</title>
<path fill="none" stroke="black" d="M240.8,-719.7C249.28,-711.45 259.59,-701.43 268.93,-692.35" />
<polygon fill="black" stroke="black" points="271.34,-694.88 276.07,-685.4 266.46,-689.86 271.34,-694.88" />
</g>

<g id="node7" class="node">
<title>8</title>
<polygon fill="#928ca2" fill-opacity="0.188235" stroke="#928ca2" stroke-opacity="0.188235" points="250,-684 196,-684 196,-648 250,-648 250,-684" />
<text text-anchor="middle" x="223" y="-662.3" font-family="Pirata One" font-size="14.00">8</text>
</g>

<g id="edge5" class="edge">
<title>3-&gt;8</title>
<path fill="none" stroke="black" d="M223,-719.7C223,-712.41 223,-703.73 223,-695.54" />
<polygon fill="black" stroke="black" points="226.5,-695.62 223,-685.62 219.5,-695.62 226.5,-695.62" />
</g>

<g id="node11" class="node">
<title>11</title>
<polygon fill="#a1dbd6" fill-opacity="0.564706" stroke="#a1dbd6" stroke-opacity="0.564706" points="366,-612 312,-612 312,-576 366,-576 366,-612" />
<text text-anchor="middle" x="339" y="-590.3" font-family="Pirata One" font-size="14.00">11</text>
</g>

<g id="edge9" class="edge">
<title>9-&gt;11</title>
<path fill="none" stroke="black" d="M305.88,-647.7C310.78,-639.9 316.68,-630.51 322.14,-621.83" />
<polygon fill="black" stroke="black" points="325.08,-623.71 327.44,-613.39 319.16,-619.99 325.08,-623.71" />
</g>

<g id="node12" class="node">
<title>12</title>
<polygon fill="#928ca2" fill-opacity="0.188235" stroke="#928ca2" stroke-opacity="0.188235" points="294,-612 240,-612 240,-576 294,-576 294,-612" />
<text text-anchor="middle" x="267" y="-590.3" font-family="Pirata One" font-size="14.00">12</text>
</g>

<g id="edge10" class="edge">
<title>9-&gt;12</title>
<path fill="none" stroke="black" d="M288.08,-647.7C285.06,-640.15 281.45,-631.12 278.07,-622.68" />
<polygon fill="black" stroke="black" points="281.37,-621.49 274.4,-613.51 274.87,-624.09 281.37,-621.49" />
</g>

<g id="node8" class="node">
<title>5</title>
<polygon fill="#a1dbd6" fill-opacity="0.564706" stroke="#a1dbd6" stroke-opacity="0.564706" points="145,-540 91,-540 91,-504 145,-504 145,-540" />
<text text-anchor="middle" x="118" y="-518.3" font-family="Pirata One" font-size="14.00">5</text>
</g>

<g id="edge6" class="edge">
<title>4-&gt;5</title>
<path fill="none" stroke="black" d="M155.64,-575.7C149.95,-567.73 143.07,-558.1 136.76,-549.26" />
<polygon fill="black" stroke="black" points="139.76,-547.44 131.1,-541.34 134.06,-551.51 139.76,-547.44" />
</g>

<g id="node18" class="node">
<title>6</title>
<polygon fill="#4cee65" fill-opacity="0.439216" stroke="#4cee65" stroke-opacity="0.439216" points="217,-540 163,-540 163,-504 217,-504 217,-540" />
<text text-anchor="middle" x="190" y="-518.3" font-family="Pirata One" font-size="14.00">6</text>
</g>

<g id="edge17" class="edge">
<title>4-&gt;6</title>
<path fill="none" stroke="black" d="M173.44,-575.7C175.78,-568.24 178.58,-559.32 181.21,-550.97" />
<polygon fill="black" stroke="black" points="184.51,-552.14 184.17,-541.55 177.83,-550.04 184.51,-552.14" />
</g>

<g id="node9" class="node">
<title>10</title>
<polygon fill="#a1dbd6" fill-opacity="0.564706" stroke="#a1dbd6" stroke-opacity="0.564706" points="73,-468 19,-468 19,-432 73,-432 73,-468" />
<text text-anchor="middle" x="46" y="-446.3" font-family="Pirata One" font-size="14.00">10</text>
</g>

<g id="edge7" class="edge">
<title>5-&gt;10</title>
<path fill="none" stroke="black" d="M100.2,-503.7C91.72,-495.45 81.41,-485.43 72.07,-476.35" />
<polygon fill="black" stroke="black" points="74.54,-473.86 64.93,-469.4 69.66,-478.88 74.54,-473.86" />
</g>

<g id="node16" class="node">
<title>14</title>
<polygon fill="#a1dbd6" fill-opacity="0.564706" stroke="#a1dbd6" stroke-opacity="0.564706" points="217,-468 163,-468 163,-432 217,-432 217,-468" />
<text text-anchor="middle" x="190" y="-446.3" font-family="Pirata One" font-size="14.00">14</text>
</g>

<g id="edge14" class="edge">
<title>5-&gt;14</title>
<path fill="none" stroke="black" d="M135.8,-503.7C144.28,-495.45 154.59,-485.43 163.93,-476.35" />
<polygon fill="black" stroke="black" points="166.34,-478.88 171.07,-469.4 161.46,-473.86 166.34,-478.88" />
</g>

<g id="node21" class="node">
<title>19</title>
<polygon fill="#a1dbd6" fill-opacity="0.564706" stroke="#a1dbd6" stroke-opacity="0.564706" points="145,-468 91,-468 91,-432 145,-432 145,-468" />
<text text-anchor="middle" x="118" y="-446.3" font-family="Pirata One" font-size="14.00">19</text>
</g>

<g id="edge20" class="edge">
<title>5-&gt;19</title>
<path fill="none" stroke="black" d="M118,-503.7C118,-496.41 118,-487.73 118,-479.54" />
<polygon fill="black" stroke="black" points="121.5,-479.62 118,-469.62 114.5,-479.62 121.5,-479.62" />
</g>

<g id="node10" class="node">
<title>21</title>
<polygon fill="#a1dbd6" fill-opacity="0.564706" stroke="#a1dbd6" stroke-opacity="0.564706" points="54,-396 0,-396 0,-360 54,-360 54,-396" />
<text text-anchor="middle" x="27" y="-374.3" font-family="Pirata One" font-size="14.00">21</text>
</g>

<g id="edge8" class="edge">
<title>10-&gt;21</title>
<path fill="none" stroke="black" d="M41.3,-431.7C39.28,-424.24 36.86,-415.32 34.59,-406.97" />
<polygon fill="black" stroke="black" points="38.04,-406.3 32.04,-397.57 31.28,-408.13 38.04,-406.3" />
</g>

<g id="node19" class="node">
<title>22</title>
<polygon fill="#a1dbd6" fill-opacity="0.564706" stroke="#a1dbd6" stroke-opacity="0.564706" points="283,-324 229,-324 229,-288 283,-288 283,-324" />
<text text-anchor="middle" x="256" y="-302.3" font-family="Pirata One" font-size="14.00">22</text>
</g>

<g id="edge18" class="edge">
<title>10-&gt;22</title>
<path fill="none" stroke="black" d="M52.42,-431.78C60.72,-411.8 77,-379.14 101,-360 135.01,-332.87 183.71,-319.24 217.41,-312.66" />
<polygon fill="black" stroke="black" points="217.95,-316.12 227.17,-310.89 216.7,-309.23 217.95,-316.12" />
</g>

<g id="node29" class="node">
<title>94</title>
<polygon fill="#d76b4a" fill-opacity="0.564706" stroke="#d76b4a" stroke-opacity="0.564706" points="54,-324 0,-324 0,-288 54,-288 54,-324" />
<text text-anchor="middle" x="27" y="-302.3" font-family="Pirata One" font-size="14.00">94</text>
</g>

<g id="edge30" class="edge">
<title>21-&gt;94</title>
<path fill="none" stroke="black" stroke-dasharray="5,2" d="M27,-359.7C27,-352.41 27,-343.73 27,-335.54" />
<polygon fill="black" stroke="black" points="30.5,-335.62 27,-325.62 23.5,-335.62 30.5,-335.62" />
</g>

<g id="node13" class="node">
<title>18</title>
<polygon fill="#a1dbd6" fill-opacity="0.564706" stroke="#a1dbd6" stroke-opacity="0.564706" points="344,-540 290,-540 290,-504 344,-504 344,-540" />
<text text-anchor="middle" x="317" y="-518.3" font-family="Pirata One" font-size="14.00">18</text>
</g>

<g id="edge11" class="edge">
<title>11-&gt;18</title>
<path fill="none" stroke="black" d="M333.56,-575.7C331.22,-568.24 328.42,-559.32 325.79,-550.97" />
<polygon fill="black" stroke="black" points="329.17,-550.04 322.83,-541.55 322.49,-552.14 329.17,-550.04" />
</g>

<g id="node14" class="node">
<title>16</title>
<polygon fill="#a1dbd6" fill-opacity="0.564706" stroke="#a1dbd6" stroke-opacity="0.564706" points="471,-540 417,-540 417,-504 471,-504 471,-540" />
<text text-anchor="middle" x="444" y="-518.3" font-family="Pirata One" font-size="14.00">16</text>
</g>

<g id="edge12" class="edge">
<title>11-&gt;16</title>
<path fill="none" stroke="black" d="M365.23,-575.52C378.35,-566.76 394.43,-556.04 408.64,-546.58" />
<polygon fill="black" stroke="black" points="410.47,-549.56 416.85,-541.1 406.59,-543.73 410.47,-549.56" />
</g>

<g id="edge15" class="edge">
<title>18-&gt;14</title>
<path fill="none" stroke="black" d="M289.76,-505.98C271.51,-495.93 247.25,-482.56 227.23,-471.52" />
<polygon fill="black" stroke="black" points="228.97,-468.48 218.53,-466.72 225.59,-474.61 228.97,-468.48" />
</g>

<g id="node17" class="node">
<title>23</title>
<polygon fill="#a1dbd6" fill-opacity="0.564706" stroke="#a1dbd6" stroke-opacity="0.564706" points="399,-468 345,-468 345,-432 399,-432 399,-468" />
<text text-anchor="middle" x="372" y="-446.3" font-family="Pirata One" font-size="14.00">23</text>
</g>

<g id="edge16" class="edge">
<title>18-&gt;23</title>
<path fill="none" stroke="black" d="M330.6,-503.7C336.92,-495.64 344.58,-485.89 351.59,-476.98" />
<polygon fill="black" stroke="black" points="354.2,-479.32 357.63,-469.29 348.7,-475 354.2,-479.32" />
</g>

<g id="node22" class="node">
<title>26</title>
<polygon fill="#a1dbd6" fill-opacity="0.564706" stroke="#a1dbd6" stroke-opacity="0.564706" points="314,-396 260,-396 260,-360 314,-360 314,-396" />
<text text-anchor="middle" x="287" y="-374.3" font-family="Pirata One" font-size="14.00">26</text>
</g>

<g id="edge21" class="edge">
<title>18-&gt;26</title>
<path fill="none" stroke="black" stroke-dasharray="5,2" d="M313.32,-503.59C308.23,-479.5 298.99,-435.75 292.92,-407.03" />
<polygon fill="black" stroke="black" points="296.42,-406.65 290.93,-397.59 289.57,-408.1 296.42,-406.65" />
</g>

<g id="node23" class="node">
<title>43</title>
<polygon fill="#a1dbd6" fill-opacity="0.564706" stroke="#a1dbd6" stroke-opacity="0.564706" points="289,-468 235,-468 235,-432 289,-432 289,-468" />
<text text-anchor="middle" x="262" y="-446.3" font-family="Pirata One" font-size="14.00">43</text>
</g>

<g id="edge22" class="edge">
<title>18-&gt;43</title>
<path fill="none" stroke="black" d="M303.4,-503.7C297.08,-495.64 289.42,-485.89 282.41,-476.98" />
<polygon fill="black" stroke="black" points="285.3,-475 276.37,-469.29 279.8,-479.32 285.3,-475" />
</g>

<g id="node15" class="node">
<title>24</title>
<polygon fill="#a1dbd6" fill-opacity="0.564706" stroke="#a1dbd6" stroke-opacity="0.564706" points="471,-468 417,-468 417,-432 471,-432 471,-468" />
<text text-anchor="middle" x="444" y="-446.3" font-family="Pirata One" font-size="14.00">24</text>
</g>

<g id="edge13" class="edge">
<title>16-&gt;24</title>
<path fill="none" stroke="black" d="M444,-503.7C444,-496.41 444,-487.73 444,-479.54" />
<polygon fill="black" stroke="black" points="447.5,-479.62 444,-469.62 440.5,-479.62 447.5,-479.62" />
</g>

<g id="node20" class="node">
<title>25</title>
<polygon fill="#a1dbd6" fill-opacity="0.564706" stroke="#a1dbd6" stroke-opacity="0.564706" points="543,-468 489,-468 489,-432 543,-432 543,-468" />
<text text-anchor="middle" x="516" y="-446.3" font-family="Pirata One" font-size="14.00">25</text>
</g>

<g id="edge19" class="edge">
<title>16-&gt;25</title>
<path fill="none" stroke="black" d="M461.8,-503.7C470.28,-495.45 480.59,-485.43 489.93,-476.35" />
<polygon fill="black" stroke="black" points="492.34,-478.88 497.07,-469.4 487.46,-473.86 492.34,-478.88" />
</g>

<g id="node24" class="node">
<title>32</title>
<polygon fill="#a1dbd6" fill-opacity="0.564706" stroke="#a1dbd6" stroke-opacity="0.564706" points="471,-396 417,-396 417,-360 471,-360 471,-396" />
<text text-anchor="middle" x="444" y="-374.3" font-family="Pirata One" font-size="14.00">32</text>
</g>

<g id="edge24" class="edge">
<title>24-&gt;32</title>
<path fill="none" stroke="black" d="M444,-431.7C444,-424.41 444,-415.73 444,-407.54" />
<polygon fill="black" stroke="black" points="447.5,-407.62 444,-397.62 440.5,-407.62 447.5,-407.62" />
</g>

<g id="node25" class="node">
<title>30</title>
<polygon fill="#4cee65" fill-opacity="0.439216" stroke="#4cee65" stroke-opacity="0.439216" points="399,-396 345,-396 345,-360 399,-360 399,-396" />
<text text-anchor="middle" x="372" y="-374.3" font-family="Pirata One" font-size="14.00">30</text>
</g>

<g id="edge25" class="edge">
<title>24-&gt;30</title>
<path fill="none" stroke="black" d="M426.2,-431.7C417.72,-423.45 407.41,-413.43 398.07,-404.35" />
<polygon fill="black" stroke="black" points="400.54,-401.86 390.93,-397.4 395.66,-406.88 400.54,-401.86" />
</g>

<g id="edge23" class="edge">
<title>23-&gt;26</title>
<path fill="none" stroke="black" d="M350.99,-431.7C340.67,-423.2 328.06,-412.81 316.77,-403.51" />
<polygon fill="black" stroke="black" points="319.18,-400.96 309.23,-397.31 314.73,-406.37 319.18,-400.96" />
</g>

<g id="node31" class="node">
<title>35</title>
<polygon fill="#928ca2" fill-opacity="0.188235" stroke="#928ca2" stroke-opacity="0.188235" points="211,-252 157,-252 157,-216 211,-216 211,-252" />
<text text-anchor="middle" x="184" y="-230.3" font-family="Pirata One" font-size="14.00">35</text>
</g>

<g id="edge33" class="edge">
<title>22-&gt;35</title>
<path fill="none" stroke="black" d="M238.2,-287.7C229.72,-279.45 219.41,-269.43 210.07,-260.35" />
<polygon fill="black" stroke="black" points="212.54,-257.86 202.93,-253.4 207.66,-262.88 212.54,-257.86" />
</g>

<g id="node32" class="node">
<title>36</title>
<polygon fill="#928ca2" fill-opacity="0.188235" stroke="#928ca2" stroke-opacity="0.188235" points="283,-252 229,-252 229,-216 283,-216 283,-252" />
<text text-anchor="middle" x="256" y="-230.3" font-family="Pirata One" font-size="14.00">36</text>
</g>

<g id="edge34" class="edge">
<title>22-&gt;36</title>
<path fill="none" stroke="black" d="M256,-287.7C256,-280.41 256,-271.73 256,-263.54" />
<polygon fill="black" stroke="black" points="259.5,-263.62 256,-253.62 252.5,-263.62 259.5,-263.62" />
</g>

<g id="node33" class="node">
<title>31</title>
<polygon fill="#a1dbd6" fill-opacity="0.564706" stroke="#a1dbd6" stroke-opacity="0.564706" points="393,-252 339,-252 339,-216 393,-216 393,-252" />
<text text-anchor="middle" x="366" y="-230.3" font-family="Pirata One" font-size="14.00">31</text>
</g>

<g id="edge35" class="edge">
<title>22-&gt;31</title>
<path fill="none" stroke="black" d="M283.47,-287.52C297.36,-278.68 314.4,-267.84 329.38,-258.3" />
<polygon fill="black" stroke="black" points="331.04,-261.39 337.6,-253.07 327.28,-255.49 331.04,-261.39" />
</g>

<g id="node26" class="node">
<title>33</title>
<polygon fill="#a1dbd6" fill-opacity="0.564706" stroke="#a1dbd6" stroke-opacity="0.564706" points="615,-396 561,-396 561,-360 615,-360 615,-396" />
<text text-anchor="middle" x="588" y="-374.3" font-family="Pirata One" font-size="14.00">33</text>
</g>

<g id="edge27" class="edge">
<title>25-&gt;33</title>
<path fill="none" stroke="black" d="M533.8,-431.7C542.28,-423.45 552.59,-413.43 561.93,-404.35" />
<polygon fill="black" stroke="black" points="564.34,-406.88 569.07,-397.4 559.46,-401.86 564.34,-406.88" />
</g>

<g id="node27" class="node">
<title>34</title>
<polygon fill="#928ca2" fill-opacity="0.188235" stroke="#928ca2" stroke-opacity="0.188235" points="543,-396 489,-396 489,-360 543,-360 543,-396" />
<text text-anchor="middle" x="516" y="-374.3" font-family="Pirata One" font-size="14.00">34</text>
</g>

<g id="edge28" class="edge">
<title>25-&gt;34</title>
<path fill="none" stroke="black" d="M516,-431.7C516,-424.41 516,-415.73 516,-407.54" />
<polygon fill="black" stroke="black" points="519.5,-407.62 516,-397.62 512.5,-407.62 519.5,-407.62" />
</g>

<g id="node44" class="node">
<title>27</title>
<polygon fill="#a1dbd6" fill-opacity="0.564706" stroke="#a1dbd6" stroke-opacity="0.564706" points="164,-396 110,-396 110,-360 164,-360 164,-396" />
<text text-anchor="middle" x="137" y="-374.3" font-family="Pirata One" font-size="14.00">27</text>
</g>

<g id="edge46" class="edge">
<title>19-&gt;27</title>
<path fill="none" stroke="black" d="M122.7,-431.7C124.72,-424.24 127.14,-415.32 129.41,-406.97" />
<polygon fill="black" stroke="black" points="132.72,-408.13 131.96,-397.57 125.96,-406.3 132.72,-408.13" />
</g>

<g id="edge32" class="edge">
<title>26-&gt;22</title>
<path fill="none" stroke="black" d="M279.34,-359.7C275.96,-352.07 271.91,-342.92 268.13,-334.4" />
<polygon fill="black" stroke="black" points="271.44,-333.21 264.19,-325.49 265.04,-336.05 271.44,-333.21" />
</g>

<g id="edge26" class="edge">
<title>43-&gt;26</title>
<path fill="none" stroke="black" stroke-dasharray="1,5" d="M268.18,-431.7C270.87,-424.15 274.1,-415.12 277.11,-406.68" />
<polygon fill="black" stroke="black" points="280.31,-408.12 280.38,-397.53 273.72,-405.77 280.31,-408.12" />
</g>

<g id="node34" class="node">
<title>37</title>
<polygon fill="#a1dbd6" fill-opacity="0.564706" stroke="#a1dbd6" stroke-opacity="0.564706" points="321,-180 267,-180 267,-144 321,-144 321,-180" />
<text text-anchor="middle" x="294" y="-158.3" font-family="Pirata One" font-size="14.00">37</text>
</g>

<g id="edge39" class="edge">
<title>43-&gt;37</title>
<path fill="none" stroke="black" stroke-dasharray="1,5" d="M254.68,-431.79C247.95,-413.24 240.47,-383.26 251,-360 261,-337.91 281.86,-346.03 292,-324 311.67,-281.26 306.34,-225.12 300.38,-191.68" />
<polygon fill="black" stroke="black" points="303.83,-191.08 298.49,-181.94 296.96,-192.42 303.83,-191.08" />
</g>

<g id="node28" class="node">
<title>40</title>
<polygon fill="#a1dbd6" fill-opacity="0.564706" stroke="#a1dbd6" stroke-opacity="0.564706" points="501,-324 447,-324 447,-288 501,-288 501,-324" />
<text text-anchor="middle" x="474" y="-302.3" font-family="Pirata One" font-size="14.00">40</text>
</g>

<g id="edge43" class="edge">
<title>32-&gt;40</title>
<path fill="none" stroke="black" d="M451.42,-359.7C454.65,-352.15 458.52,-343.12 462.14,-334.68" />
<polygon fill="black" stroke="black" points="465.35,-336.07 466.07,-325.5 458.92,-333.31 465.35,-336.07" />
</g>

<g id="edge29" class="edge">
<title>33-&gt;40</title>
<path fill="none" stroke="black" stroke-dasharray="1,5" d="M560.69,-360.23C545.86,-351.12 527.29,-339.72 511.16,-329.82" />
<polygon fill="black" stroke="black" points="513.12,-326.91 502.77,-324.66 509.46,-332.88 513.12,-326.91" />
</g>

<g id="node41" class="node">
<title>41</title>
<polygon fill="#a1dbd6" fill-opacity="0.564706" stroke="#a1dbd6" stroke-opacity="0.564706" points="501,-252 447,-252 447,-216 501,-216 501,-252" />
<text text-anchor="middle" x="474" y="-230.3" font-family="Pirata One" font-size="14.00">41</text>
</g>

<g id="edge44" class="edge">
<title>40-&gt;41</title>
<path fill="none" stroke="black" d="M474,-287.7C474,-280.41 474,-271.73 474,-263.54" />
<polygon fill="black" stroke="black" points="477.5,-263.62 474,-253.62 470.5,-263.62 477.5,-263.62" />
</g>

<g id="node30" class="node">
<title>95</title>
<polygon fill="#d76b4a" fill-opacity="0.564706" stroke="#d76b4a" stroke-opacity="0.564706" points="54,-252 0,-252 0,-216 54,-216 54,-252" />
<text text-anchor="middle" x="27" y="-230.3" font-family="Pirata One" font-size="14.00">95</text>
</g>

<g id="edge31" class="edge">
<title>94-&gt;95</title>
<path fill="none" stroke="black" d="M27,-287.7C27,-280.41 27,-271.73 27,-263.54" />
<polygon fill="black" stroke="black" points="30.5,-263.62 27,-253.62 23.5,-263.62 30.5,-263.62" />
</g>

<g id="edge36" class="edge">
<title>31-&gt;37</title>
<path fill="none" stroke="black" d="M348.2,-215.7C339.72,-207.45 329.41,-197.43 320.07,-188.35" />
<polygon fill="black" stroke="black" points="322.54,-185.86 312.93,-181.4 317.66,-190.88 322.54,-185.86" />
</g>

<g id="node35" class="node">
<title>38</title>
<polygon fill="#4cee65" fill-opacity="0.439216" stroke="#4cee65" stroke-opacity="0.439216" points="393,-180 339,-180 339,-144 393,-144 393,-180" />
<text text-anchor="middle" x="366" y="-158.3" font-family="Pirata One" font-size="14.00">38</text>
</g>

<g id="edge37" class="edge">
<title>31-&gt;38</title>
<path fill="none" stroke="black" d="M366,-215.7C366,-208.41 366,-199.73 366,-191.54" />
<polygon fill="black" stroke="black" points="369.5,-191.62 366,-181.62 362.5,-191.62 369.5,-191.62" />
</g>

<g id="node36" class="node">
<title>39</title>
<polygon fill="#4cee65" fill-opacity="0.439216" stroke="#4cee65" stroke-opacity="0.439216" points="465,-180 411,-180 411,-144 465,-144 465,-180" />
<text text-anchor="middle" x="438" y="-158.3" font-family="Pirata One" font-size="14.00">39</text>
</g>

<g id="edge38" class="edge">
<title>31-&gt;39</title>
<path fill="none" stroke="black" d="M383.8,-215.7C392.28,-207.45 402.59,-197.43 411.93,-188.35" />
<polygon fill="black" stroke="black" points="414.34,-190.88 419.07,-181.4 409.46,-185.86 414.34,-190.88" />
</g>

<g id="node37" class="node">
<title>47</title>
<polygon fill="#a1dbd6" fill-opacity="0.564706" stroke="#a1dbd6" stroke-opacity="0.564706" points="321,-108 267,-108 267,-72 321,-72 321,-108" />
<text text-anchor="middle" x="294" y="-86.3" font-family="Pirata One" font-size="14.00">47</text>
</g>

<g id="edge40" class="edge">
<title>37-&gt;47</title>
<path fill="none" stroke="black" d="M294,-143.7C294,-136.41 294,-127.73 294,-119.54" />
<polygon fill="black" stroke="black" points="297.5,-119.62 294,-109.62 290.5,-119.62 297.5,-119.62" />
</g>

<g id="node38" class="node">
<title>51</title>
<polygon fill="#4cee65" fill-opacity="0.439216" stroke="#4cee65" stroke-opacity="0.439216" points="321,-36 267,-36 267,0 321,0 321,-36" />
<text text-anchor="middle" x="294" y="-14.3" font-family="Pirata One" font-size="14.00">51</text>
</g>

<g id="edge41" class="edge">
<title>47-&gt;51</title>
<path fill="none" stroke="black" d="M294,-71.7C294,-64.41 294,-55.73 294,-47.54" />
<polygon fill="black" stroke="black" points="297.5,-47.62 294,-37.62 290.5,-47.62 297.5,-47.62" />
</g>

<g id="node39" class="node">
<title>17</title>
<polygon fill="#a1dbd6" fill-opacity="0.564706" stroke="#a1dbd6" stroke-opacity="0.564706" points="294,-918 240,-918 240,-882 294,-882 294,-918" />
<text text-anchor="middle" x="267" y="-896.3" font-family="Pirata One" font-size="14.00">17</text>
</g>

<g id="node40" class="node">
<title>65</title>
<polygon fill="#d76b4a" fill-opacity="0.564706" stroke="#d76b4a" stroke-opacity="0.564706" points="294,-828 240,-828 240,-792 294,-792 294,-828" />
<text text-anchor="middle" x="267" y="-806.3" font-family="Pirata One" font-size="14.00">65</text>
</g>

<g id="edge42" class="edge">
<title>17-&gt;65</title>
<path fill="none" stroke="black" stroke-dasharray="5,2" d="M267,-881.61C267,-869.68 267,-853.57 267,-839.74" />
<polygon fill="black" stroke="black" points="270.5,-839.86 267,-829.86 263.5,-839.86 270.5,-839.86" />
</g>

<g id="node42" class="node">
<title>57</title>
<polygon fill="#d76b4a" fill-opacity="0.564706" stroke="#d76b4a" stroke-opacity="0.564706" points="366,-918 312,-918 312,-882 366,-882 366,-918" />
<text text-anchor="middle" x="339" y="-896.3" font-family="Pirata One" font-size="14.00">57</text>
</g>

<g id="node43" class="node">
<title>58</title>
<polygon fill="#d76b4a" fill-opacity="0.564706" stroke="#d76b4a" stroke-opacity="0.564706" points="366,-828 312,-828 312,-792 366,-792 366,-828" />
<text text-anchor="middle" x="339" y="-806.3" font-family="Pirata One" font-size="14.00">58</text>
</g>

<g id="edge45" class="edge">
<title>57-&gt;58</title>
<path fill="none" stroke="black" d="M339,-881.61C339,-869.68 339,-853.57 339,-839.74" />
<polygon fill="black" stroke="black" points="342.5,-839.86 339,-829.86 335.5,-839.86 342.5,-839.86" />
</g>

<g id="node45" class="node">
<title>69</title>
<polygon fill="#d76b4a" fill-opacity="0.564706" stroke="#d76b4a" stroke-opacity="0.564706" points="438,-918 384,-918 384,-882 438,-882 438,-918" />
<text text-anchor="middle" x="411" y="-896.3" font-family="Pirata One" font-size="14.00">69</text>
</g>

<g id="node46" class="node">
<title>81</title>
<polygon fill="#d76b4a" fill-opacity="0.564706" stroke="#d76b4a" stroke-opacity="0.564706" points="510,-918 456,-918 456,-882 510,-882 510,-918" />
<text text-anchor="middle" x="483" y="-896.3" font-family="Pirata One" font-size="14.00">81</text>
</g>

<g id="node47" class="node">
<title>82</title>
<polygon fill="#d76b4a" fill-opacity="0.564706" stroke="#d76b4a" stroke-opacity="0.564706" points="582,-918 528,-918 528,-882 582,-882 582,-918" />
<text text-anchor="middle" x="555" y="-896.3" font-family="Pirata One" font-size="14.00">82</text>
</g>

<g id="node48" class="node">
<title>93</title>
<polygon fill="#d76b4a" fill-opacity="0.564706" stroke="#d76b4a" stroke-opacity="0.564706" points="654,-918 600,-918 600,-882 654,-882 654,-918" />
<text text-anchor="middle" x="627" y="-896.3" font-family="Pirata One" font-size="14.00">93</text>
</g>

<g id="node49" class="node">
<title>91</title>
<polygon fill="#d76b4a" fill-opacity="0.564706" stroke="#d76b4a" stroke-opacity="0.564706" points="726,-918 672,-918 672,-882 726,-882 726,-918" />
<text text-anchor="middle" x="699" y="-896.3" font-family="Pirata One" font-size="14.00">91</text>
</g>

<g id="node50" class="node">
<title>68</title>
<polygon fill="#d76b4a" fill-opacity="0.564706" stroke="#d76b4a" stroke-opacity="0.564706" points="798,-918 744,-918 744,-882 798,-882 798,-918" />
<text text-anchor="middle" x="771" y="-896.3" font-family="Pirata One" font-size="14.00">68</text>
</g>

<g id="node51" class="node">
<title>61</title>
<polygon fill="#d76b4a" fill-opacity="0.564706" stroke="#d76b4a" stroke-opacity="0.564706" points="870,-918 816,-918 816,-882 870,-882 870,-918" />
<text text-anchor="middle" x="843" y="-896.3" font-family="Pirata One" font-size="14.00">61</text>
</g>

<g id="node52" class="node">
<title>62</title>
<polygon fill="#d76b4a" fill-opacity="0.564706" stroke="#d76b4a" stroke-opacity="0.564706" points="870,-828 816,-828 816,-792 870,-792 870,-828" />
<text text-anchor="middle" x="843" y="-806.3" font-family="Pirata One" font-size="14.00">62</text>
</g>

<g id="edge47" class="edge">
<title>61-&gt;62</title>
<path fill="none" stroke="black" d="M843,-881.61C843,-869.68 843,-853.57 843,-839.74" />
<polygon fill="black" stroke="black" points="846.5,-839.86 843,-829.86 839.5,-839.86 846.5,-839.86" />
</g>

<g id="node53" class="node">
<title>73</title>
<polygon fill="#d76b4a" fill-opacity="0.564706" stroke="#d76b4a" stroke-opacity="0.564706" points="942,-918 888,-918 888,-882 942,-882 942,-918" />
<text text-anchor="middle" x="915" y="-896.3" font-family="Pirata One" font-size="14.00">73</text>
</g>

<g id="node54" class="node">
<title>79</title>
<polygon fill="#f29317" fill-opacity="0.564706" stroke="#f29317" stroke-opacity="0.564706" points="1014,-918 960,-918 960,-882 1014,-882 1014,-918" />
<text text-anchor="middle" x="987" y="-896.3" font-family="Pirata One" font-size="14.00">79</text>
</g>

<g id="node55" class="node">
<title>76</title>
<polygon fill="#f29317" fill-opacity="0.564706" stroke="#f29317" stroke-opacity="0.564706" points="1086,-918 1032,-918 1032,-882 1086,-882 1086,-918" />
<text text-anchor="middle" x="1059" y="-896.3" font-family="Pirata One" font-size="14.00">76</text>
</g>
</g>
</svg>