<?xml version="1.0" standalone="no"?>
<!DOCTYPE svg PUBLIC "-//W3C//DTD SVG 20010904//EN"
 "http://www.w3.org/TR/2001/REC-SVG-20010904/DTD/svg10.dtd">
<svg version="1.0" xmlns="http://www.w3.org/2000/svg"
 width="360.000000pt" height="326.000000pt" viewBox="0 0 360.000000 326.000000"
 preserveAspectRatio="xMidYMid meet">
<metadata>
Created by potrace 1.16, written by Peter Selinger 2001-2019
</metadata>
<g transform="translate(0.000000,326.000000) scale(0.100000,-0.100000)"
fill="#000000" stroke="none">
<path d="M1790 3247 c0 -2 -18 -120 -40 -263 -59 -378 -173 -1185 -214 -1514
-62 -491 -87 -765 -93 -1007 l-6 -231 43 -22 c23 -12 80 -57 125 -100 159
-150 237 -148 405 10 47 44 99 85 117 92 29 11 32 16 38 70 26 222 -92 1251
-300 2628 -52 338 -52 340 -65 340 -6 0 -10 -2 -10 -3z"/>
<path d="M16 2678 c5 -18 9 -224 9 -458 1 -373 3 -432 18 -485 41 -140 134
-235 360 -369 361 -213 427 -277 475 -464 15 -59 17 -114 15 -436 -2 -286 0
-372 10 -378 14 -9 92 -10 123 -2 12 3 27 15 33 27 19 35 59 59 145 88 l81 27
17 213 c10 118 29 320 42 449 23 217 23 241 10 304 -48 231 -187 346 -668 553
-302 130 -327 152 -375 329 -101 370 -145 477 -251 597 -40 47 -55 48 -44 5z"/>
<path d="M3526 2653 c-92 -115 -141 -232 -211 -494 -25 -94 -55 -189 -65 -209
-28 -55 -109 -104 -326 -200 -250 -110 -322 -146 -431 -219 -157 -105 -219
-192 -246 -348 -9 -52 -6 -110 17 -349 16 -158 34 -358 40 -446 l11 -160 73
-23 c83 -26 147 -65 157 -94 7 -22 33 -31 95 -31 78 0 74 -18 66 322 -14 612
15 679 404 909 322 192 388 251 442 400 23 63 23 70 23 489 0 234 4 444 9 468
12 58 -3 54 -58 -15z"/>
</g>
</svg>
