<?xml version="1.0" standalone="no"?>
<!DOCTYPE svg PUBLIC "-//W3C//DTD SVG 20010904//EN"
 "http://www.w3.org/TR/2001/REC-SVG-20010904/DTD/svg10.dtd">
<svg version="1.0" xmlns="http://www.w3.org/2000/svg"
 width="416.000000pt" height="416.000000pt" viewBox="0 0 416.000000 416.000000"
 preserveAspectRatio="xMidYMid meet">
<metadata>
Created by potrace 1.16, written by Peter Selinger 2001-2019
</metadata>
<g transform="translate(0.000000,416.000000) scale(0.100000,-0.100000)"
fill="#000000" stroke="none">
<path d="M2330 4146 c-19 -11 -53 -74 -136 -253 l-112 -238 -93 -7 c-52 -4
-125 -12 -162 -19 -38 -6 -70 -9 -71 -8 -2 2 -72 96 -156 209 -154 208 -181
234 -230 223 -46 -11 -525 -274 -553 -304 -15 -16 -27 -37 -27 -47 0 -9 40
-127 89 -262 l89 -244 -72 -86 c-56 -66 -119 -147 -131 -167 0 -1 -118 15
-260 36 -166 25 -268 35 -282 30 -12 -4 -29 -19 -37 -32 -17 -25 -186 -579
-186 -606 1 -48 28 -65 267 -176 l238 -111 7 -97 c4 -53 12 -122 17 -153 6
-32 11 -61 11 -66 0 -4 -96 -80 -214 -169 -226 -169 -239 -183 -217 -240 5
-14 68 -135 141 -270 124 -231 171 -299 205 -299 8 0 126 40 262 90 l247 90
46 -40 c25 -23 81 -68 125 -101 44 -34 81 -62 81 -63 1 0 -15 -118 -36 -261
-40 -273 -40 -292 2 -319 13 -8 136 -48 273 -89 337 -101 327 -99 362 -86 34
11 32 8 178 323 44 92 84 169 89 171 6 1 65 8 131 14 66 7 134 15 152 18 31 5
34 2 188 -203 96 -129 166 -213 182 -220 17 -7 38 -8 56 -3 40 11 516 267 544
292 41 36 38 54 -58 317 l-91 250 54 59 c30 32 76 88 103 125 45 61 51 66 79
61 96 -17 453 -65 481 -65 63 0 70 14 161 315 80 268 95 342 74 375 -5 8 -116
65 -247 126 l-238 110 -11 115 c-6 63 -14 137 -18 164 l-7 50 196 145 c108 80
205 153 216 163 41 38 28 75 -121 352 -134 250 -171 305 -208 305 -10 0 -129
-41 -266 -90 l-248 -91 -57 54 c-31 29 -85 75 -121 101 -36 26 -66 49 -68 51
-1 1 13 109 33 240 19 132 35 254 35 272 0 61 -21 71 -336 166 -160 48 -297
87 -305 87 -8 -1 -25 -7 -39 -14z m13 -776 c536 -116 928 -517 1033 -1057 26
-130 23 -357 -5 -490 -110 -526 -508 -923 -1034 -1034 -135 -29 -361 -31 -491
-6 -278 56 -505 175 -696 367 -616 615 -481 1632 275 2073 135 79 337 147 496
167 110 13 310 4 422 -20z"/>
<path d="M1889 3175 c-340 -64 -618 -263 -784 -560 -51 -90 -102 -238 -121
-348 -21 -122 -14 -328 15 -446 105 -415 409 -718 828 -823 72 -18 116 -22
248 -22 168 -1 223 7 355 52 579 193 893 817 703 1397 -119 366 -417 641 -795
736 -110 27 -341 35 -449 14z m359 -371 c149 -31 325 -143 417 -266 101 -135
145 -254 152 -419 7 -146 -11 -239 -72 -364 -76 -156 -183 -263 -340 -340
-115 -57 -194 -75 -326 -75 -384 0 -691 274 -740 660 -42 336 176 676 504 785
132 44 256 50 405 19z"/>
</g>
</svg>
