<?xml version="1.0" standalone="no"?>
<!DOCTYPE svg PUBLIC "-//W3C//DTD SVG 20010904//EN"
 "http://www.w3.org/TR/2001/REC-SVG-20010904/DTD/svg10.dtd">
<svg version="1.0" xmlns="http://www.w3.org/2000/svg"
 width="418.000000pt" height="417.000000pt" viewBox="0 0 418.000000 417.000000"
 preserveAspectRatio="xMidYMid meet">
<metadata>
Created by potrace 1.16, written by Peter Selinger 2001-2019
</metadata>
<g transform="translate(0.000000,417.000000) scale(0.100000,-0.100000)"
fill="#000000" stroke="none">
<path d="M2644 4110 c34 -170 33 -511 -3 -684 -43 -207 -119 -410 -218 -578
-50 -85 -143 -217 -153 -218 -3 0 -16 30 -28 68 -13 37 -49 117 -79 179 -193
392 -535 736 -963 966 -86 46 -160 80 -160 74 0 -3 32 -28 70 -56 336 -250
604 -674 689 -1088 25 -123 33 -173 28 -173 -2 0 -61 23 -131 50 -266 106
-521 153 -821 154 -263 0 -489 -37 -715 -116 -83 -29 -159 -65 -115 -54 53 13
161 26 265 32 367 20 785 -96 1090 -301 162 -110 161 -92 13 -153 -136 -55
-287 -140 -424 -238 -101 -72 -319 -280 -406 -389 -121 -150 -273 -395 -329
-530 -20 -48 -18 -47 44 38 256 352 690 623 1131 707 61 12 117 20 125 18 10
-2 3 -29 -30 -110 -161 -392 -205 -843 -123 -1266 20 -104 114 -407 128 -417
4 -2 2 26 -6 63 -20 100 -28 369 -14 487 36 303 140 591 300 831 96 143 90
143 139 16 144 -372 449 -736 827 -987 81 -53 394 -222 375 -202 -3 3 -33 26
-67 51 -379 278 -652 728 -728 1198 -7 43 -9 78 -6 78 4 0 44 -16 89 -35 432
-182 947 -221 1397 -105 102 26 318 100 312 106 -2 2 -41 -4 -87 -13 -132 -24
-433 -22 -580 5 -287 52 -541 157 -755 310 -44 32 -78 62 -75 67 3 5 51 28
107 51 468 191 867 574 1117 1073 62 122 70 146 29 86 -49 -73 -152 -192 -233
-269 -258 -242 -583 -410 -923 -475 -160 -31 -151 -36 -106 69 72 168 134 404
159 610 15 125 12 402 -5 536 -20 147 -53 288 -100 424 -38 108 -61 157 -51
110z m-534 -1448 c78 -116 125 -268 118 -383 l-3 -56 71 48 c110 74 164 145
206 269 l19 55 -6 -63 c-13 -137 -79 -289 -171 -390 -64 -71 -63 -71 71 -79
108 -6 209 13 303 57 35 16 66 30 69 30 3 0 -19 -20 -48 -44 -121 -101 -293
-166 -435 -166 l-73 0 41 -61 c76 -115 168 -184 293 -221 l60 -17 -55 6 c-160
17 -322 85 -426 178 l-61 54 -7 -46 c-19 -142 -1 -273 54 -392 35 -75 19 -66
-46 25 -89 124 -134 255 -136 390 l-1 81 -61 -41 c-117 -78 -185 -169 -221
-296 l-15 -55 5 62 c13 145 84 313 175 416 31 34 46 58 40 62 -6 4 -55 9 -108
12 -115 6 -213 -12 -311 -57 l-66 -30 40 36 c110 98 267 163 418 173 l97 6
-41 60 c-79 114 -148 168 -270 209 l-74 25 55 -6 c157 -17 320 -87 421 -180
l58 -54 8 48 c11 70 8 200 -7 263 -7 30 -28 89 -46 130 -33 71 -33 73 -9 45
14 -16 48 -63 75 -103z"/>
</g>
</svg>
