<?xml version="1.0" standalone="no"?>
<!DOCTYPE svg PUBLIC "-//W3C//DTD SVG 20010904//EN"
 "http://www.w3.org/TR/2001/REC-SVG-20010904/DTD/svg10.dtd">
<svg version="1.0" xmlns="http://www.w3.org/2000/svg"
 width="385.000000pt" height="412.000000pt" viewBox="0 0 385.000000 412.000000"
 preserveAspectRatio="xMidYMid meet">
<metadata>
Created by potrace 1.16, written by Peter Selinger 2001-2019
</metadata>
<g transform="translate(0.000000,412.000000) scale(0.100000,-0.100000)"
fill="#000000" stroke="none">
<path d="M1692 4093 c-83 -116 -1362 -2130 -1362 -2144 0 -10 52 -129 115
-265 63 -135 115 -257 115 -269 0 -13 -27 -97 -60 -186 -32 -90 -58 -165 -56
-166 2 -2 33 11 69 27 l66 31 139 352 c77 194 222 560 322 815 101 254 185
461 186 459 2 -2 -46 -151 -106 -332 -60 -181 -108 -330 -106 -332 2 -2 119
93 260 212 157 133 258 224 261 238 5 26 195 1509 198 1551 3 39 -17 43 -41 9z"/>
<path d="M2003 2843 c-535 -450 -975 -827 -978 -838 -3 -12 10 -138 29 -281
20 -143 36 -270 36 -282 0 -14 -51 -91 -131 -195 l-131 -172 -91 3 c-145 6
-245 -35 -340 -137 -56 -60 -93 -135 -109 -221 -22 -117 21 -262 103 -351 l40
-44 -7 65 c-3 39 -1 90 6 125 7 33 14 93 16 133 3 74 32 158 59 169 8 2 26 -2
41 -10 26 -14 30 -13 73 18 25 18 61 40 79 49 17 9 32 22 32 29 0 19 218 21
292 2 33 -8 63 -15 68 -15 5 0 57 64 116 142 126 168 152 198 173 198 39 1 45
17 61 177 10 87 17 159 16 160 -1 1 -100 -135 -220 -302 l-217 -304 -42 30
c-23 17 -42 34 -42 39 0 10 1175 1470 1182 1470 3 0 1 -6 -4 -12 -39 -49 -494
-691 -491 -693 2 -2 160 76 352 174 l350 176 342 750 c189 412 340 753 338
757 -3 4 -11 8 -17 8 -7 0 -450 -368 -984 -817z"/>
<path d="M2684 2264 c-626 -312 -1144 -572 -1151 -578 -7 -7 -23 -122 -41
-292 -16 -155 -32 -286 -36 -292 -6 -11 -308 -260 -332 -275 -6 -3 -37 2 -68
13 -214 76 -438 -15 -538 -217 -32 -65 -33 -72 -33 -183 0 -114 1 -117 38
-192 45 -91 112 -157 207 -202 61 -29 73 -31 175 -31 108 0 113 1 187 38 171
84 270 271 239 449 -6 34 -7 65 -3 69 39 33 285 230 310 249 l33 24 290 -29
c250 -25 292 -27 303 -14 22 23 1555 1967 1568 1989 9 13 9 23 2 30 -7 7 -361
-164 -1150 -556z m25 -367 c-8 -7 -331 -284 -718 -617 -387 -333 -707 -606
-711 -608 -4 -2 -22 16 -40 38 -28 35 -31 43 -19 55 25 24 1492 1145 1498
1145 3 0 -1 -6 -10 -13z m-1765 -1194 l38 -6 -4 -61 c-3 -34 -15 -80 -26 -102
-19 -38 -99 -120 -108 -112 -2 3 1 20 6 39 13 43 13 164 1 206 -8 28 -7 32 12
36 36 7 40 7 81 0z m-248 -187 c-4 -23 -18 -59 -31 -81 l-24 -40 -1 46 c0 50
14 99 39 139 l16 24 3 -23 c2 -13 1 -43 -2 -65z m460 19 c22 -54 18 -151 -10
-211 -42 -89 -143 -155 -240 -154 -50 1 -143 31 -137 45 3 6 27 16 53 22 71
19 125 49 185 105 60 58 97 116 115 182 7 25 14 46 16 46 1 0 10 -16 18 -35z"/>
<path d="M831 1549 c-73 -221 -130 -403 -127 -406 3 -3 28 -6 57 -7 l52 -1 30
83 c30 81 32 85 81 109 31 15 64 42 84 69 l32 44 -34 251 c-19 138 -36 253
-38 255 -2 2 -64 -177 -137 -397z"/>
<path d="M277 966 c-118 -49 -203 -135 -246 -250 -77 -207 16 -439 217 -538
59 -29 77 -33 170 -36 l103 -4 -27 48 c-29 53 -89 101 -169 138 -56 25 -119
90 -142 143 -29 71 -8 230 35 257 6 3 20 36 32 72 12 36 42 95 66 130 24 35
38 64 31 64 -6 0 -38 -11 -70 -24z"/>
</g>
</svg>
