<?xml version="1.0" standalone="no"?>
<!DOCTYPE svg PUBLIC "-//W3C//DTD SVG 20010904//EN"
 "http://www.w3.org/TR/2001/REC-SVG-20010904/DTD/svg10.dtd">
<svg version="1.0" xmlns="http://www.w3.org/2000/svg"
 width="375.000000pt" height="417.000000pt" viewBox="0 0 375.000000 417.000000"
 preserveAspectRatio="xMidYMid meet">
<metadata>
Created by potrace 1.16, written by Peter Selinger 2001-2019
</metadata>
<g transform="translate(0.000000,417.000000) scale(0.100000,-0.100000)"
fill="#000000" stroke="none">
<path d="M1653 3833 c-142 -181 -373 -473 -513 -651 -140 -178 -256 -329 -257
-335 -3 -13 945 -662 953 -654 6 5 552 1335 556 1353 3 10 -452 597 -472 609
-5 3 -125 -142 -267 -322z"/>
<path d="M2761 3428 c-11 -24 -141 -295 -291 -603 -170 -351 -268 -565 -263
-572 9 -14 985 -774 989 -770 1 1 124 139 273 307 149 167 270 307 269 312 -7
19 -944 1367 -951 1367 -4 1 -16 -18 -26 -41z"/>
<path d="M314 2413 c-132 -148 -254 -285 -273 -305 l-33 -38 478 -690 c444
-641 479 -689 490 -668 63 120 574 1192 572 1199 -3 10 -980 769 -989 769 -4
0 -114 -120 -245 -267z"/>
<path d="M1881 1958 c-5 -13 -122 -300 -261 -638 -139 -338 -261 -636 -271
-662 l-18 -47 235 -298 c129 -164 239 -299 243 -301 14 -5 1044 1309 1035
1318 -8 6 -920 630 -946 646 -4 3 -12 -5 -17 -18z"/>
</g>
</svg>
