<?xml version="1.0" standalone="no"?>
<!DOCTYPE svg PUBLIC "-//W3C//DTD SVG 20010904//EN"
 "http://www.w3.org/TR/2001/REC-SVG-20010904/DTD/svg10.dtd">
<svg version="1.0" xmlns="http://www.w3.org/2000/svg"
 width="407.000000pt" height="358.000000pt" viewBox="0 0 407.000000 358.000000"
 preserveAspectRatio="xMidYMid meet">
<metadata>
Created by potrace 1.16, written by Peter Selinger 2001-2019
</metadata>
<g transform="translate(0.000000,358.000000) scale(0.100000,-0.100000)"
fill="#000000" stroke="none">
<path d="M1870 3574 c-14 -3 -58 -14 -99 -25 -66 -18 -83 -19 -150 -8 -89 13
-188 5 -275 -21 -33 -11 -97 -26 -140 -35 -160 -33 -288 -99 -341 -175 -19
-27 -46 -48 -91 -69 -179 -84 -325 -215 -394 -354 -22 -45 -46 -111 -52 -147
-11 -57 -20 -74 -70 -134 -32 -39 -73 -99 -91 -135 -27 -56 -32 -78 -34 -148
-2 -80 -3 -83 -47 -142 -92 -125 -106 -254 -40 -354 24 -36 27 -52 29 -127 1
-96 21 -152 74 -213 40 -45 137 -94 203 -103 l49 -7 -39 -41 c-54 -56 -72 -95
-72 -159 0 -74 22 -131 80 -208 164 -219 575 -419 861 -419 l39 0 0 -66 c0
-134 -40 -328 -95 -458 -11 -25 84 39 187 128 122 104 202 205 263 331 61 125
86 211 87 301 l1 62 40 6 c51 8 125 47 159 83 29 30 67 107 68 136 0 22 3 22
48 -6 102 -64 219 -82 317 -49 l60 21 60 -21 c49 -17 77 -19 155 -15 174 9
276 71 341 209 30 64 34 83 34 153 0 57 -5 89 -18 113 l-18 32 39 -6 c24 -4
61 0 99 11 l60 17 94 -33 c78 -27 113 -33 204 -37 192 -8 299 31 421 152 79
80 122 157 131 239 3 29 14 69 24 89 64 126 37 378 -59 562 -40 76 -112 155
-160 175 -20 9 -32 22 -36 41 -7 40 -120 157 -211 219 -90 63 -189 109 -250
118 -39 5 -49 12 -89 64 -79 102 -197 174 -315 194 -31 5 -65 23 -109 57 -145
111 -307 160 -520 158 -86 -1 -119 3 -167 20 -59 21 -193 34 -245 24z"/>
</g>
</svg>
