<?xml version="1.0" standalone="no"?>
<!DOCTYPE svg PUBLIC "-//W3C//DTD SVG 20010904//EN"
 "http://www.w3.org/TR/2001/REC-SVG-20010904/DTD/svg10.dtd">
<svg version="1.0" xmlns="http://www.w3.org/2000/svg"
 width="418.000000pt" height="417.000000pt" viewBox="0 0 418.000000 417.000000"
 preserveAspectRatio="xMidYMid meet">
<metadata>
Created by potrace 1.16, written by Peter Selinger 2001-2019
</metadata>
<g transform="translate(0.000000,417.000000) scale(0.100000,-0.100000)"
fill="#000000" stroke="none">
<path d="M2083 4144 c-23 -62 -323 -797 -326 -801 -3 -2 -161 118 -352 267
-191 149 -349 269 -350 268 -2 -2 24 -198 57 -436 33 -238 58 -435 56 -437 -2
-3 -197 22 -433 55 -236 33 -432 59 -436 58 -4 -2 114 -158 262 -347 148 -190
269 -348 269 -351 0 -4 -182 -80 -405 -170 -223 -90 -405 -167 -405 -170 0 -3
182 -79 405 -169 223 -90 405 -166 405 -170 0 -3 -121 -161 -269 -351 -148
-190 -268 -346 -266 -348 1 -2 197 24 435 58 238 33 435 58 438 56 2 -3 -23
-200 -56 -438 -33 -238 -59 -434 -58 -436 2 -1 159 120 351 269 244 190 350
267 355 258 5 -7 79 -188 166 -403 86 -215 160 -394 163 -398 4 -4 80 175 171
398 90 223 166 407 170 409 3 2 161 -117 351 -264 239 -186 345 -263 347 -252
1 9 -24 205 -57 436 -32 231 -57 421 -56 423 1 2 197 -24 435 -58 238 -33 435
-58 437 -56 3 2 -118 161 -267 352 l-271 347 63 27 c35 14 219 89 410 166 191
76 348 141 348 144 0 3 -184 79 -408 169 -224 90 -408 165 -410 166 -2 2 119
159 268 350 149 191 269 349 267 351 -3 3 -199 -22 -437 -56 -238 -33 -434
-59 -435 -58 -1 2 24 192 56 423 33 231 58 428 57 437 -2 12 -101 -60 -348
-253 -189 -147 -348 -265 -352 -261 -4 4 -80 187 -169 407 -88 220 -163 402
-165 404 -2 2 -7 -5 -11 -15z m190 -1049 c322 -56 597 -264 742 -560 84 -170
100 -244 100 -455 0 -152 -3 -186 -23 -260 -100 -365 -384 -646 -750 -741
-100 -26 -284 -35 -393 -20 -416 61 -747 358 -856 769 -23 84 -26 117 -26 252
0 135 3 168 26 252 141 528 647 856 1180 763z"/>
<path d="M1988 2720 c-140 -24 -285 -104 -377 -207 -61 -68 -123 -185 -146
-271 -19 -75 -22 -216 -5 -298 16 -84 90 -229 150 -296 128 -143 348 -232 529
-214 98 10 147 24 241 68 70 34 100 55 170 127 96 97 138 171 170 298 49 188
3 401 -119 553 -149 185 -386 278 -613 240z"/>
</g>
</svg>
