<?xml version="1.0" standalone="no"?>
<!DOCTYPE svg PUBLIC "-//W3C//DTD SVG 20010904//EN"
 "http://www.w3.org/TR/2001/REC-SVG-20010904/DTD/svg10.dtd">
<svg version="1.0" xmlns="http://www.w3.org/2000/svg"
 width="212.000000pt" height="417.000000pt" viewBox="0 0 212.000000 417.000000"
 preserveAspectRatio="xMidYMid meet">
<metadata>
Created by potrace 1.16, written by Peter Selinger 2001-2019
</metadata>
<g transform="translate(0.000000,417.000000) scale(0.100000,-0.100000)"
fill="#000000" stroke="none">
<path d="M912 3233 c-78 -511 -142 -934 -142 -940 0 -10 25 -13 90 -13 50 0
90 2 90 5 0 31 103 672 109 678 10 10 9 18 67 -365 l48 -318 93 0 c92 0 93 0
88 23 -5 21 -285 1841 -285 1852 0 3 -4 5 -8 5 -4 0 -72 -417 -150 -927z"/>
<path d="M297 3870 c-6 -24 -287 -1847 -287 -1862 0 -5 40 -8 89 -8 84 0 89 1
94 23 3 12 26 162 52 332 26 171 49 317 52 325 11 30 22 -27 68 -330 25 -168
48 -315 50 -327 5 -22 10 -23 95 -23 50 0 90 2 90 5 0 20 -282 1836 -288 1860
l-9 30 -6 -25z"/>
<path d="M1810 3885 c0 -5 -63 -421 -140 -925 -77 -503 -142 -924 -143 -935
-2 -19 4 -20 88 -20 l90 0 47 300 c25 165 49 319 53 343 3 23 10 42 14 42 4 0
22 -96 40 -212 18 -117 42 -273 53 -345 l21 -133 88 0 c78 0 89 2 89 18 0 41
-283 1858 -291 1867 -5 5 -9 5 -9 0z"/>
<path d="M992 2194 l-22 -15 0 -1090 0 -1090 93 3 92 3 3 1076 2 1076 -21 27
c-17 22 -28 26 -73 26 -30 0 -61 -6 -74 -16z"/>
<path d="M226 1908 c-14 -20 -16 -124 -16 -926 l0 -903 93 3 92 3 3 899 c2
793 0 902 -13 923 -14 20 -23 23 -80 23 -55 0 -66 -3 -79 -22z"/>
<path d="M1744 1916 c-19 -14 -19 -35 -19 -923 l0 -908 93 -3 92 -3 0 909 c0
868 -1 910 -18 925 -24 21 -120 23 -148 3z"/>
</g>
</svg>
