<?xml version="1.0" standalone="no"?>
<!DOCTYPE svg PUBLIC "-//W3C//DTD SVG 20010904//EN"
 "http://www.w3.org/TR/2001/REC-SVG-20010904/DTD/svg10.dtd">
<svg version="1.0" xmlns="http://www.w3.org/2000/svg"
 width="418.000000pt" height="417.000000pt" viewBox="0 0 418.000000 417.000000"
 preserveAspectRatio="xMidYMid meet">
<metadata>
Created by potrace 1.16, written by Peter Selinger 2001-2019
</metadata>
<g transform="translate(0.000000,417.000000) scale(0.100000,-0.100000)"
fill="#000000" stroke="none">
<path d="M1924 4160 c-313 -24 -667 -140 -929 -305 -496 -312 -828 -785 -951
-1356 -24 -110 -27 -152 -31 -374 -4 -224 -3 -264 17 -378 146 -866 786 -1530
1650 -1712 169 -36 511 -46 694 -21 666 93 1245 501 1561 1099 98 186 160 364
207 597 20 102 23 144 23 365 0 266 -5 314 -55 515 -163 656 -655 1206 -1293
1444 -272 102 -600 148 -893 126z m364 -221 c424 -46 818 -235 1122 -539 665
-663 733 -1717 159 -2460 -440 -570 -1169 -838 -1869 -688 -362 77 -705 267
-958 533 -263 274 -421 585 -499 980 -28 141 -25 502 4 650 78 382 234 686
491 957 397 417 978 630 1550 567z"/>
<path d="M1872 3738 c-257 -32 -538 -144 -767 -307 -108 -76 -296 -266 -378
-381 -128 -181 -229 -413 -279 -643 -19 -89 -22 -132 -22 -327 0 -195 3 -238
22 -327 50 -230 151 -463 279 -643 83 -116 270 -305 378 -381 319 -226 674
-332 1054 -316 1062 44 1814 1061 1545 2089 -174 666 -732 1152 -1424 1237
-99 13 -305 12 -408 -1z m323 -207 c362 -31 664 -170 920 -426 205 -204 339
-449 401 -735 27 -122 27 -458 0 -580 -62 -286 -196 -531 -401 -735 -164 -165
-365 -290 -575 -358 -137 -45 -151 -43 -55 8 383 200 651 570 721 994 26 159
16 387 -24 543 -68 263 -186 464 -388 658 -194 187 -441 310 -713 355 -161 27
-398 17 -551 -23 -245 -65 -432 -169 -623 -350 -50 -47 -74 -65 -63 -47 123
198 319 390 519 507 162 95 399 170 589 187 131 12 122 12 243 2z m-195 -481
c481 -63 879 -424 979 -890 11 -52 7 -47 -48 50 -41 72 -160 203 -242 266
-184 141 -424 214 -658 201 -436 -26 -795 -324 -907 -752 -22 -85 -26 -121
-26 -240 0 -118 4 -155 25 -236 69 -265 230 -481 457 -615 41 -24 70 -44 63
-44 -6 0 -50 11 -98 25 -385 112 -690 425 -792 812 -31 120 -42 327 -24 455
25 169 107 368 211 508 62 83 197 215 275 267 233 157 519 227 785 193z m276
-610 c273 -69 492 -285 566 -557 27 -101 29 -276 4 -378 -38 -157 -151 -334
-273 -427 -108 -83 -247 -146 -358 -161 -40 -6 -40 -6 -15 10 14 9 60 52 103
94 61 61 86 96 118 162 77 160 85 331 24 493 -89 236 -330 404 -580 404 -196
0 -416 -115 -515 -270 -18 -28 -34 -49 -36 -48 -2 2 4 37 12 78 64 311 306
546 629 614 62 12 247 5 321 -14z m-283 -599 c111 -38 188 -109 241 -221 28
-59 31 -74 31 -165 0 -88 -3 -107 -28 -159 -53 -114 -133 -188 -245 -227 -89
-32 -218 -24 -303 18 -165 81 -260 262 -229 433 28 154 137 280 283 325 64 21
184 18 250 -4z"/>
</g>
</svg>
