<?xml version="1.0" standalone="no"?>
<!DOCTYPE svg PUBLIC "-//W3C//DTD SVG 20010904//EN"
 "http://www.w3.org/TR/2001/REC-SVG-20010904/DTD/svg10.dtd">
<svg version="1.0" xmlns="http://www.w3.org/2000/svg"
 width="419.000000pt" height="409.000000pt" viewBox="0 0 419.000000 409.000000"
 preserveAspectRatio="xMidYMid meet">
<metadata>
Created by potrace 1.16, written by Peter Selinger 2001-2019
</metadata>
<g transform="translate(0.000000,409.000000) scale(0.100000,-0.100000)"
fill="#000000" stroke="none">
<path d="M1962 4079 c-321 -27 -674 -151 -947 -334 -104 -70 -215 -155 -201
-155 4 0 34 14 67 31 130 65 345 126 529 148 561 70 1160 -165 1521 -597 219
-263 346 -540 400 -877 22 -131 17 -417 -9 -557 -117 -628 -564 -1144 -1162
-1342 -207 -69 -287 -80 -550 -80 -206 0 -248 2 -338 22 -136 30 -246 65 -364
117 -54 24 -98 42 -98 40 0 -9 205 -157 283 -204 184 -111 409 -199 635 -248
122 -27 137 -28 417 -28 280 0 295 1 417 28 577 125 1055 471 1349 974 290
497 355 1121 173 1671 -42 128 -152 357 -224 467 -159 243 -393 473 -632 621
-280 174 -594 277 -923 304 -143 11 -193 11 -343 -1z"/>
<path d="M1095 3310 c-209 -33 -412 -118 -585 -243 -86 -62 -231 -215 -292
-308 -159 -240 -225 -478 -215 -769 13 -332 134 -609 371 -846 248 -248 552
-374 900 -374 219 0 396 43 589 142 356 183 606 528 672 928 25 145 17 367
-18 500 -127 491 -482 840 -967 951 -99 23 -359 34 -455 19z"/>
</g>
</svg>
