<?xml version="1.0" standalone="no"?>
<!DOCTYPE svg PUBLIC "-//W3C//DTD SVG 20010904//EN"
 "http://www.w3.org/TR/2001/REC-SVG-20010904/DTD/svg10.dtd">
<svg version="1.0" xmlns="http://www.w3.org/2000/svg"
 width="216.000000pt" height="413.000000pt" viewBox="0 0 216.000000 413.000000"
 preserveAspectRatio="xMidYMid meet">
<metadata>
Created by potrace 1.16, written by Peter Selinger 2001-2019
</metadata>
<g transform="translate(0.000000,413.000000) scale(0.100000,-0.100000)"
fill="#000000" stroke="none">
<path d="M800 4101 c-200 -43 -365 -141 -478 -284 -73 -91 -114 -173 -177
-354 -63 -179 -62 -173 -24 -325 10 -42 19 -86 19 -97 0 -14 -22 -38 -65 -72
-45 -35 -65 -58 -65 -73 0 -12 29 -64 65 -116 104 -151 106 -156 93 -283 -10
-107 -5 -199 12 -227 7 -11 21 -3 67 41 32 30 96 86 143 125 118 98 116 96 91
137 -12 19 -21 49 -21 66 0 39 51 163 86 208 22 29 31 33 72 33 52 0 169 -30
244 -62 97 -42 63 -93 -215 -326 -387 -324 -577 -503 -577 -544 0 -10 48 -120
106 -246 161 -344 252 -555 296 -684 46 -138 46 -137 -24 -395 l-41 -153 76
-93 c84 -103 117 -128 142 -107 23 19 19 39 -35 186 l-51 136 32 56 c17 31 50
81 72 111 l40 54 -22 136 c-19 119 -26 143 -60 201 -23 39 -91 209 -170 426
-72 198 -131 363 -131 366 0 3 55 42 123 87 l124 82 78 -77 77 -77 -6 -51 c-3
-29 -21 -101 -41 -161 -19 -61 -35 -121 -35 -134 0 -14 52 -140 116 -280 64
-140 129 -287 145 -327 l29 -73 -65 -243 c-36 -134 -68 -268 -71 -298 l-6 -55
66 -74 c45 -50 69 -86 76 -115 29 -117 66 -163 97 -120 32 44 3 165 -66 272
-44 69 -41 104 20 269 67 181 93 284 86 343 -6 50 -48 166 -152 415 -77 185
-77 189 -30 420 27 138 62 223 115 288 36 42 51 46 80 17 20 -20 20 -20 40 0
11 11 26 20 34 20 21 0 72 -65 106 -135 32 -64 90 -330 90 -408 0 -29 -21 -92
-66 -202 -102 -248 -144 -363 -150 -409 -9 -60 10 -138 77 -324 69 -192 72
-224 28 -294 -44 -68 -78 -156 -79 -200 0 -96 50 -120 82 -38 10 25 22 63 28
85 6 26 32 65 75 114 50 57 65 81 65 105 0 38 -26 145 -91 383 l-50 183 29 72
c16 40 84 192 150 339 l121 265 -40 123 c-21 68 -42 147 -45 176 l-6 52 77 77
78 77 124 -82 c68 -45 123 -84 123 -87 0 -7 -56 -162 -171 -476 -55 -147 -115
-294 -134 -325 -30 -48 -38 -75 -56 -192 l-22 -135 48 -65 c26 -35 58 -85 71
-111 l24 -48 -19 -52 c-79 -216 -86 -238 -75 -255 6 -10 18 -19 27 -21 19 -4
86 62 154 151 46 59 46 60 35 101 -47 164 -84 319 -85 361 -2 89 72 279 304
778 71 152 129 287 129 299 0 38 -306 322 -600 557 -184 147 -240 209 -240
264 0 20 10 29 48 45 75 32 192 62 244 62 42 0 50 -4 73 -34 36 -48 84 -164
85 -205 0 -18 -9 -49 -21 -68 -25 -41 -27 -39 91 -137 47 -39 111 -95 144
-125 49 -45 60 -51 68 -38 15 28 20 139 10 231 -6 50 -6 101 -1 118 4 16 42
80 83 141 42 62 76 122 76 134 0 14 -21 38 -65 72 -43 34 -65 58 -65 72 0 11
9 55 19 97 38 152 39 146 -24 325 -62 177 -102 259 -172 350 -95 124 -264 231
-438 278 -69 19 -112 23 -300 25 -185 3 -234 1 -305 -15z m350 -1560 c44 -46
100 -153 100 -191 0 -54 -68 -90 -170 -90 -100 0 -170 36 -170 88 0 37 57 148
99 192 52 55 90 55 141 1z"/>
</g>
</svg>
