<?xml version="1.0" standalone="no"?>
<!DOCTYPE svg PUBLIC "-//W3C//DTD SVG 20010904//EN"
 "http://www.w3.org/TR/2001/REC-SVG-20010904/DTD/svg10.dtd">
<svg version="1.0" xmlns="http://www.w3.org/2000/svg"
 width="330.000000pt" height="416.000000pt" viewBox="0 0 330.000000 416.000000"
 preserveAspectRatio="xMidYMid meet">
<metadata>
Created by potrace 1.16, written by Peter Selinger 2001-2019
</metadata>
<g transform="translate(0.000000,416.000000) scale(0.100000,-0.100000)"
fill="#000000" stroke="none">
<path d="M1689 3130 c-552 -567 -1005 -1035 -1007 -1041 -2 -5 215 -9 572 -9
468 0 578 -2 582 -13 2 -7 -220 -471 -496 -1030 -275 -559 -500 -1019 -500
-1022 0 -3 6 -5 14 -5 11 0 2280 2402 2340 2478 10 12 16 25 13 28 -2 2 -283
23 -623 46 -341 22 -623 44 -627 48 -5 4 163 351 373 770 240 481 378 766 372
772 -6 6 -381 -372 -1013 -1022z"/>
<path d="M445 2489 c-25 -69 -444 -1503 -440 -1507 3 -3 106 12 230 33 124 21
227 37 229 34 2 -2 45 -202 96 -444 51 -242 97 -444 101 -449 5 -5 12 -7 15
-3 6 6 83 1118 84 1210 0 47 0 47 -32 46 -18 0 -109 -13 -203 -28 -93 -16
-174 -25 -178 -21 -5 4 22 258 59 564 50 413 64 560 56 568 -8 8 -13 8 -17 -3z"/>
<path d="M2670 1286 c-327 -156 -595 -288 -595 -294 0 -5 60 -56 133 -112 72
-55 132 -106 132 -113 0 -7 -250 -174 -556 -371 -484 -314 -592 -390 -533
-378 35 7 1699 736 1699 744 0 5 -69 54 -152 109 -84 55 -154 105 -156 112 -1
7 146 138 328 291 181 153 330 283 330 287 0 5 -8 9 -17 8 -10 0 -286 -128
-613 -283z"/>
</g>
</svg>
