<?xml version="1.0" standalone="no"?>
<!DOCTYPE svg PUBLIC "-//W3C//DTD SVG 20010904//EN"
 "http://www.w3.org/TR/2001/REC-SVG-20010904/DTD/svg10.dtd">
<svg version="1.0" xmlns="http://www.w3.org/2000/svg"
 width="407.000000pt" height="404.000000pt" viewBox="0 0 407.000000 404.000000"
 preserveAspectRatio="xMidYMid meet">
<metadata>
Created by potrace 1.16, written by Peter Selinger 2001-2019
</metadata>
<g transform="translate(0.000000,404.000000) scale(0.100000,-0.100000)"
fill="#000000" stroke="none">
<path d="M2222 4019 c-341 -21 -664 -100 -904 -219 -163 -80 -336 -207 -352
-256 -3 -10 77 -514 178 -1119 101 -605 183 -1101 182 -1102 0 -1 -28 5 -61
13 -326 78 -749 -54 -1013 -315 -161 -160 -242 -332 -242 -513 0 -477 643
-655 1200 -332 289 167 472 430 473 679 0 73 -28 247 -152 931 -83 463 -151
852 -151 865 0 19 17 36 78 76 297 200 832 306 1457 290 121 -3 263 -13 316
-21 119 -19 224 -44 242 -60 11 -8 41 -223 113 -783 54 -425 96 -775 93 -777
-3 -3 -41 1 -84 9 -497 89 -1087 -258 -1201 -705 -12 -47 -15 -91 -12 -157 4
-78 10 -102 40 -166 65 -135 191 -232 365 -279 93 -25 299 -29 403 -9 445 87
811 411 863 763 11 76 5 128 -161 1476 -141 1141 -176 1402 -191 1422 -27 38
-143 106 -257 150 -307 120 -744 170 -1222 139z"/>
</g>
</svg>
