<?xml version="1.0" standalone="no"?>
<!DOCTYPE svg PUBLIC "-//W3C//DTD SVG 20010904//EN"
 "http://www.w3.org/TR/2001/REC-SVG-20010904/DTD/svg10.dtd">
<svg version="1.0" xmlns="http://www.w3.org/2000/svg"
 width="408.000000pt" height="417.000000pt" viewBox="0 0 408.000000 417.000000"
 preserveAspectRatio="xMidYMid meet">
<metadata>
Created by potrace 1.16, written by Peter Selinger 2001-2019
</metadata>
<g transform="translate(0.000000,417.000000) scale(0.100000,-0.100000)"
fill="#000000" stroke="none">
<path d="M1984 4131 c-51 -37 -120 -112 -223 -241 -46 -58 -98 -119 -114 -137
l-30 -32 -141 74 c-172 90 -297 142 -385 161 l-66 14 -48 -52 c-59 -66 -147
-196 -204 -305 -25 -46 -47 -83 -51 -83 -3 0 -63 27 -134 60 -146 68 -259 109
-328 117 -43 5 -50 3 -63 -18 -35 -56 -54 -253 -39 -401 10 -87 9 -102 -9
-148 -54 -143 -50 -489 12 -1013 l21 -177 -86 -95 c-47 -53 -86 -101 -86 -108
0 -27 222 -413 255 -442 56 -51 245 -158 551 -312 312 -157 325 -161 359 -109
15 22 14 33 -4 133 -38 198 -31 233 118 562 119 262 127 294 93 360 -9 19 -28
43 -42 52 -16 12 -124 36 -315 72 l-290 53 -3 178 -2 178 34 34 c26 26 42 34
71 34 20 0 227 -48 459 -106 311 -78 427 -111 444 -127 50 -47 50 -62 -27
-459 -39 -201 -71 -377 -71 -390 0 -46 21 -98 54 -133 l33 -35 310 0 c303 0
311 0 338 22 34 27 64 92 65 138 0 20 -31 200 -70 400 -75 393 -77 412 -28
457 27 24 839 233 905 233 45 0 88 -32 98 -72 3 -12 4 -97 3 -187 l-3 -165
-290 -53 c-188 -35 -299 -60 -315 -72 -14 -9 -33 -33 -42 -52 -34 -65 -26 -95
93 -358 61 -135 117 -270 125 -300 19 -73 17 -155 -6 -271 -21 -108 -15 -138
33 -154 26 -9 58 4 320 137 306 153 495 260 553 312 21 18 78 110 149 238
l116 208 -92 100 -92 99 17 127 c66 503 73 918 19 1057 -11 28 -15 62 -12 106
13 209 -3 392 -38 449 -14 21 -20 23 -63 18 -71 -9 -188 -51 -332 -119 -71
-34 -130 -59 -132 -57 -2 2 -27 47 -56 99 -65 118 -135 220 -197 287 l-48 52
-53 -10 c-83 -16 -202 -65 -378 -155 l-162 -82 -29 31 c-17 18 -75 88 -130
157 -133 165 -223 250 -264 250 -9 0 -34 -13 -55 -29z"/>
<path d="M1585 859 c-70 -16 -161 -71 -270 -164 l-105 -90 2 -229 3 -229 40
-14 c84 -30 345 -92 460 -109 165 -25 485 -25 650 0 115 17 376 79 460 109
l40 14 3 230 2 230 -105 89 c-208 176 -200 174 -730 173 -225 -1 -428 -5 -450
-10z"/>
</g>
</svg>
