<?xml version="1.0" standalone="no"?>
<!DOCTYPE svg PUBLIC "-//W3C//DTD SVG 20010904//EN"
 "http://www.w3.org/TR/2001/REC-SVG-20010904/DTD/svg10.dtd">
<svg version="1.0" xmlns="http://www.w3.org/2000/svg"
 width="417.000000pt" height="218.000000pt" viewBox="0 0 417.000000 218.000000"
 preserveAspectRatio="xMidYMid meet">
<metadata>
Created by potrace 1.16, written by Peter Selinger 2001-2019
</metadata>
<g transform="translate(0.000000,218.000000) scale(0.100000,-0.100000)"
fill="#000000" stroke="none">
<path d="M3485 2165 c-75 -17 -434 -121 -441 -128 -5 -5 100 -384 109 -393 3
-3 101 22 218 56 175 51 214 59 225 48 14 -14 144 -453 144 -486 0 -23 -19
-29 -295 -107 -71 -21 -133 -40 -137 -44 -6 -5 96 -388 106 -398 5 -6 477 137
511 154 151 79 244 246 233 420 -6 93 -144 578 -186 657 -59 110 -169 192
-292 220 -82 19 -115 19 -195 1z"/>
<path d="M1475 1594 c-759 -216 -1390 -399 -1403 -406 -34 -18 -62 -70 -62
-116 0 -61 196 -754 218 -770 26 -21 592 -303 592 -296 0 3 -27 97 -60 209
-33 112 -60 208 -60 214 0 6 135 -57 301 -140 166 -82 302 -149 303 -147 2 2
-25 101 -59 221 -36 126 -57 217 -51 215 7 -2 141 -70 300 -151 158 -82 289
-147 291 -145 3 2 -23 102 -57 221 -33 120 -58 220 -55 223 3 3 130 -62 284
-144 153 -82 288 -154 300 -161 20 -10 21 -9 12 22 -88 313 -115 417 -105 414
6 -3 141 -72 301 -155 159 -83 291 -149 293 -148 1 2 -24 99 -57 217 -33 117
-58 215 -56 217 2 2 137 -64 299 -147 163 -84 296 -148 296 -144 1 26 -367
1293 -375 1292 -5 -1 -631 -178 -1390 -395z"/>
</g>
</svg>
