<?xml version="1.0" standalone="no"?>
<!DOCTYPE svg PUBLIC "-//W3C//DTD SVG 20010904//EN"
 "http://www.w3.org/TR/2001/REC-SVG-20010904/DTD/svg10.dtd">
<svg version="1.0" xmlns="http://www.w3.org/2000/svg"
 width="417.000000pt" height="363.000000pt" viewBox="0 0 417.000000 363.000000"
 preserveAspectRatio="xMidYMid meet">
<metadata>
Created by potrace 1.16, written by Peter Selinger 2001-2019
</metadata>
<g transform="translate(0.000000,363.000000) scale(0.100000,-0.100000)"
fill="#000000" stroke="none">
<path d="M22 3614 c-12 -8 -22 -22 -22 -29 0 -18 955 -1673 980 -1699 14 -15
24 -17 39 -10 26 11 991 1679 991 1711 0 12 -9 27 -19 33 -13 7 -338 10 -983
10 -856 0 -966 -2 -986 -16z"/>
<path d="M2178 3619 c-10 -5 -18 -21 -18 -34 0 -35 962 -1697 989 -1709 17 -7
26 -5 40 10 17 18 963 1652 976 1686 4 10 -2 25 -14 37 -21 21 -22 21 -988 21
-639 -1 -974 -4 -985 -11z"/>
<path d="M2057 3163 c-3 -5 -149 -259 -326 -566 -177 -307 -321 -566 -319
-575 3 -16 49 -17 668 -17 606 0 665 1 668 16 2 9 -144 271 -324 583 -317 548
-347 594 -367 559z"/>
<path d="M1085 1736 c-16 -24 -7 -41 473 -873 464 -803 492 -848 520 -851 29
-3 33 4 513 835 266 461 485 848 487 861 8 55 60 52 -999 52 l-979 0 -15 -24z"/>
</g>
</svg>
