<?xml version="1.0" standalone="no"?>
<!DOCTYPE svg PUBLIC "-//W3C//DTD SVG 20010904//EN"
 "http://www.w3.org/TR/2001/REC-SVG-20010904/DTD/svg10.dtd">
<svg version="1.0" xmlns="http://www.w3.org/2000/svg"
 width="415.000000pt" height="380.000000pt" viewBox="0 0 415.000000 380.000000"
 preserveAspectRatio="xMidYMid meet">
<metadata>
Created by potrace 1.16, written by Peter Selinger 2001-2019
</metadata>
<g transform="translate(0.000000,380.000000) scale(0.100000,-0.100000)"
fill="#000000" stroke="none">
<path d="M961 3734 c-64 -70 -154 -248 -182 -363 -30 -118 -24 -190 21 -266
44 -73 156 -194 218 -235 40 -27 54 -31 94 -27 106 9 256 122 293 220 18 47
18 50 -3 132 -26 107 -94 252 -176 375 -69 103 -175 220 -199 220 -8 0 -38
-25 -66 -56z"/>
<path d="M3050 3723 c-157 -172 -310 -471 -310 -607 0 -80 97 -191 215 -247
107 -52 165 -33 285 91 123 126 169 224 154 330 -14 105 -59 229 -126 343 -45
77 -116 157 -140 157 -9 0 -44 -30 -78 -67z"/>
<path d="M2025 3403 c-101 -54 -418 -346 -490 -452 l-29 -43 23 -42 c164 -296
276 -530 288 -601 6 -35 5 -35 -32 -35 -80 0 -335 110 -535 229 -309 186 -562
410 -742 658 l-60 83 -33 -26 c-82 -62 -171 -219 -201 -352 -12 -52 -15 -101
-12 -163 6 -99 5 -98 171 -394 62 -111 90 -171 82 -173 -19 -5 -152 49 -230
92 -36 21 -97 67 -135 102 l-68 65 -8 -67 c-3 -37 -5 -163 -2 -280 l5 -213 34
-57 c45 -75 157 -195 233 -248 110 -78 250 -136 330 -136 36 0 32 -11 -12 -39
-171 -109 -372 -269 -372 -296 0 -18 139 -79 271 -118 192 -58 277 -71 451
-72 87 0 158 -3 158 -6 0 -8 -90 -133 -131 -182 l-31 -37 84 -40 c85 -40 283
-110 310 -110 7 0 32 -30 53 -67 92 -158 215 -333 234 -333 4 0 2 33 -6 73
-16 82 -19 237 -5 283 13 41 -14 106 -183 438 l-132 259 -116 28 c-64 16 -145
42 -180 58 -80 36 -147 99 -147 139 0 52 89 150 187 208 34 20 46 23 62 15 11
-6 77 -74 147 -151 69 -77 128 -140 129 -140 2 0 66 62 142 138 156 156 269
244 392 305 75 38 92 42 156 42 64 0 80 -4 158 -43 126 -62 235 -147 391 -304
136 -136 139 -139 158 -121 11 10 70 73 130 141 61 67 119 127 130 133 25 13
83 -20 163 -92 93 -85 106 -134 54 -194 -17 -19 -63 -51 -102 -70 -66 -32
-244 -85 -288 -85 -15 0 -49 -61 -153 -268 -74 -147 -146 -297 -161 -332 -27
-63 -27 -67 -15 -147 10 -69 9 -99 -5 -193 -9 -62 -14 -114 -12 -117 13 -12
159 197 248 354 13 24 31 43 40 43 43 0 369 126 382 148 3 4 -15 32 -40 62
-39 47 -113 153 -113 162 0 2 73 3 163 4 129 0 183 5 267 23 194 42 450 135
450 165 0 7 -6 19 -12 28 -23 28 -170 141 -285 218 -62 41 -112 78 -113 81 0
3 25 9 55 13 70 8 170 46 249 93 80 49 214 178 270 262 l46 66 9 165 c6 104 7
210 1 285 -5 66 -10 122 -10 124 0 2 -33 -27 -72 -65 -47 -45 -103 -85 -156
-112 -80 -42 -182 -82 -208 -82 -6 0 47 107 119 238 l132 237 0 130 c-1 109
-4 140 -23 195 -33 92 -97 196 -161 260 l-54 55 -21 -29 c-200 -278 -400 -468
-693 -660 -243 -159 -604 -317 -654 -286 -29 18 60 225 228 534 l76 139 -19
35 c-24 46 -222 251 -327 340 -163 138 -208 159 -272 125z"/>
<path d="M2005 1479 c-68 -14 -196 -78 -276 -138 -91 -69 -209 -195 -209 -224
0 -35 100 -227 119 -227 9 0 32 5 51 10 57 17 222 41 229 34 17 -18 -128 -115
-223 -148 -24 -8 -18 -42 29 -142 32 -69 37 -76 57 -69 145 47 204 56 323 52
94 -4 138 -11 204 -32 46 -14 87 -23 91 -18 10 9 80 178 80 191 0 4 -34 23
-75 41 -71 31 -165 101 -165 122 0 12 57 5 189 -23 92 -19 95 -19 109 -1 22
28 102 198 102 217 0 25 -165 185 -254 245 -136 93 -269 132 -381 110z"/>
<path d="M1942 465 c-34 -7 -82 -24 -105 -37 -39 -21 -43 -28 -50 -77 -8 -46
-2 -141 8 -141 1 0 23 11 46 25 60 34 111 33 138 -1 12 -15 26 -44 32 -66 9
-34 7 -46 -10 -81 -19 -38 -19 -42 -4 -59 23 -26 132 -25 164 1 l23 18 -22 28
c-25 32 -28 72 -8 118 31 73 84 87 162 42 38 -22 45 -24 50 -11 10 26 0 174
-12 186 -7 7 -43 23 -80 37 -87 31 -237 40 -332 18z"/>
</g>
</svg>
