<?xml version="1.0" standalone="no"?>
<!DOCTYPE svg PUBLIC "-//W3C//DTD SVG 20010904//EN"
 "http://www.w3.org/TR/2001/REC-SVG-20010904/DTD/svg10.dtd">
<svg version="1.0" xmlns="http://www.w3.org/2000/svg"
 width="372.000000pt" height="182.000000pt" viewBox="0 0 372.000000 182.000000"
 preserveAspectRatio="xMidYMid meet">
<metadata>
Created by potrace 1.16, written by Peter Selinger 2001-2019
</metadata>
<g transform="translate(0.000000,182.000000) scale(0.100000,-0.100000)"
fill="#000000" stroke="none">
<path d="M1665 1808 c-385 -18 -868 -179 -1270 -422 -60 -37 -120 -69 -132
-72 -16 -4 -44 6 -91 35 -106 64 -118 52 -50 -49 l41 -63 -74 -68 c-41 -37
-69 -68 -64 -68 6 -1 61 6 124 13 l113 14 202 -202 c452 -455 860 -751 1224
-887 l102 -39 223 0 c231 0 360 10 462 36 82 21 248 102 441 216 l162 95 248
7 c273 8 368 16 386 34 13 13 23 -2 -181 279 -213 292 -285 379 -490 584 -305
304 -485 432 -706 502 -153 48 -398 68 -670 55z m-135 -309 c-92 -45 -116 -62
-190 -138 -47 -47 -94 -104 -105 -126 -11 -22 -21 -42 -23 -45 -2 -3 -12 6
-22 20 l-20 25 0 -30 c0 -79 63 -223 144 -332 128 -170 362 -323 576 -376 65
-16 116 -21 215 -21 114 1 140 4 211 27 137 45 243 132 323 264 18 29 44 60
57 71 25 18 25 19 14 82 -6 35 -23 92 -37 127 -14 35 -23 66 -21 69 12 11 250
-258 314 -355 l28 -43 -22 -19 c-32 -25 -456 -238 -584 -293 -573 -244 -1095
-51 -1962 726 l-49 44 60 32 c131 69 515 211 743 272 181 49 284 68 380 69
l75 0 -105 -50z m503 -83 c139 -38 274 -138 296 -221 15 -55 14 -159 -3 -198
-16 -39 -91 -108 -161 -148 -86 -49 -89 -44 -48 74 42 118 49 197 20 240 -25
39 -103 93 -169 118 -50 18 -73 21 -190 17 -125 -3 -136 -5 -188 -33 -74 -40
-162 -130 -178 -181 -30 -102 -62 -92 -62 19 0 96 16 150 60 199 45 51 133
106 198 125 64 18 345 11 425 -11z m-213 -221 c0 -2 -16 -41 -36 -86 -63 -143
-57 -228 21 -297 117 -103 344 -129 489 -55 75 38 157 126 191 206 15 37 32
67 36 67 15 0 21 -48 17 -142 -3 -87 -5 -96 -37 -141 -85 -118 -272 -179 -497
-163 -162 11 -267 51 -355 133 -117 109 -132 246 -39 363 41 52 144 120 181
120 16 0 29 -2 29 -5z m220 -55 c46 -46 10 -182 -64 -248 -46 -40 -79 -41
-117 -3 -39 39 -39 88 0 157 58 101 135 140 181 94z"/>
</g>
</svg>
