<?xml version="1.0" encoding="UTF-8"?>
<svg xmlns="http://www.w3.org/2000/svg" xmlns:xlink="http://www.w3.org/1999/xlink" width="16px" height="15px" viewBox="0 0 16 15" version="1.1">
<g id="surface1">
<path style=" stroke:none;fill-rule:nonzero;fill:rgb(0%,0%,0%);fill-opacity:1;" d="M 7.957031 0.0703125 C 7.957031 0.078125 7.875 0.621094 7.777344 1.277344 C 7.515625 3.015625 7.007812 6.722656 6.828125 8.234375 C 6.550781 10.492188 6.441406 11.75 6.414062 12.863281 L 6.386719 13.925781 L 6.578125 14.027344 C 6.679688 14.082031 6.933594 14.289062 7.132812 14.484375 C 7.839844 15.175781 8.1875 15.164062 8.933594 14.4375 C 9.140625 14.238281 9.375 14.046875 9.453125 14.015625 C 9.582031 13.964844 9.59375 13.941406 9.621094 13.695312 C 9.738281 12.675781 9.214844 7.945312 8.289062 1.617188 C 8.058594 0.0625 8.058594 0.0546875 8 0.0546875 C 7.972656 0.0546875 7.957031 0.0625 7.957031 0.0703125 Z M 7.957031 0.0703125 "/>
<path style=" stroke:none;fill-rule:nonzero;fill:rgb(0%,0%,0%);fill-opacity:1;" d="M 0.0703125 2.683594 C 0.09375 2.765625 0.109375 3.714844 0.109375 4.789062 C 0.117188 6.503906 0.125 6.773438 0.191406 7.015625 C 0.375 7.660156 0.785156 8.097656 1.792969 8.714844 C 3.394531 9.691406 3.6875 9.984375 3.902344 10.84375 C 3.96875 11.117188 3.976562 11.371094 3.96875 12.847656 C 3.960938 14.164062 3.96875 14.558594 4.011719 14.585938 C 4.074219 14.628906 4.421875 14.632812 4.558594 14.59375 C 4.613281 14.582031 4.679688 14.527344 4.707031 14.472656 C 4.792969 14.3125 4.96875 14.199219 5.351562 14.066406 L 5.710938 13.941406 L 5.785156 12.964844 C 5.832031 12.421875 5.914062 11.492188 5.972656 10.902344 C 6.074219 9.902344 6.074219 9.792969 6.019531 9.503906 C 5.804688 8.441406 5.1875 7.914062 3.050781 6.960938 C 1.707031 6.363281 1.59375 6.265625 1.382812 5.449219 C 0.933594 3.75 0.738281 3.257812 0.265625 2.707031 C 0.0898438 2.492188 0.0234375 2.484375 0.0703125 2.683594 Z M 0.0703125 2.683594 "/>
<path style=" stroke:none;fill-rule:nonzero;fill:rgb(0%,0%,0%);fill-opacity:1;" d="M 15.671875 2.796875 C 15.261719 3.328125 15.042969 3.863281 14.734375 5.070312 C 14.621094 5.5 14.488281 5.9375 14.445312 6.03125 C 14.320312 6.28125 13.960938 6.507812 12.996094 6.949219 C 11.882812 7.453125 11.5625 7.621094 11.078125 7.953125 C 10.382812 8.4375 10.105469 8.835938 9.988281 9.554688 C 9.945312 9.792969 9.960938 10.058594 10.0625 11.15625 C 10.132812 11.882812 10.214844 12.804688 10.238281 13.207031 L 10.289062 13.941406 L 10.613281 14.046875 C 10.980469 14.167969 11.265625 14.347656 11.3125 14.480469 C 11.34375 14.582031 11.457031 14.625 11.734375 14.625 C 12.078125 14.625 12.0625 14.707031 12.027344 13.144531 C 11.964844 10.332031 12.09375 10.023438 13.820312 8.964844 C 15.253906 8.082031 15.546875 7.8125 15.785156 7.128906 C 15.890625 6.839844 15.890625 6.804688 15.890625 4.878906 C 15.890625 3.804688 15.90625 2.839844 15.929688 2.730469 C 15.980469 2.464844 15.914062 2.480469 15.671875 2.796875 Z M 15.671875 2.796875 "/>
</g>
</svg>
