<?xml version="1.0" encoding="UTF-8"?>
<svg xmlns="http://www.w3.org/2000/svg" xmlns:xlink="http://www.w3.org/1999/xlink" width="15px" height="15px" viewBox="0 0 15 15" version="1.1">
<g id="surface1">
<path style=" stroke:none;fill-rule:nonzero;fill:rgb(0%,0%,0%);fill-opacity:1;" d="M 8.402344 0.0507812 C 8.332031 0.0898438 8.210938 0.316406 7.910156 0.960938 L 7.507812 1.820312 L 7.171875 1.847656 C 6.984375 1.859375 6.722656 1.890625 6.585938 1.914062 C 6.449219 1.9375 6.335938 1.945312 6.332031 1.945312 C 6.324219 1.9375 6.070312 1.597656 5.769531 1.191406 C 5.214844 0.441406 5.117188 0.347656 4.941406 0.386719 C 4.773438 0.425781 3.046875 1.375 2.945312 1.480469 C 2.890625 1.539062 2.847656 1.617188 2.847656 1.652344 C 2.847656 1.683594 2.992188 2.109375 3.167969 2.597656 L 3.492188 3.476562 L 3.230469 3.785156 C 3.027344 4.023438 2.800781 4.316406 2.757812 4.386719 C 2.757812 4.390625 2.332031 4.335938 1.820312 4.257812 C 1.222656 4.167969 0.855469 4.132812 0.804688 4.148438 C 0.761719 4.164062 0.699219 4.21875 0.671875 4.265625 C 0.609375 4.355469 0 6.351562 0 6.449219 C 0.00390625 6.625 0.101562 6.683594 0.960938 7.085938 L 1.820312 7.484375 L 1.847656 7.835938 C 1.859375 8.027344 1.890625 8.273438 1.90625 8.386719 C 1.929688 8.503906 1.945312 8.605469 1.945312 8.625 C 1.945312 8.640625 1.601562 8.914062 1.175781 9.234375 C 0.359375 9.84375 0.3125 9.894531 0.394531 10.101562 C 0.410156 10.148438 0.636719 10.585938 0.902344 11.074219 C 1.347656 11.90625 1.519531 12.152344 1.640625 12.152344 C 1.667969 12.152344 2.09375 12.007812 2.585938 11.828125 L 3.476562 11.503906 L 3.640625 11.648438 C 3.730469 11.730469 3.933594 11.890625 4.09375 12.011719 C 4.25 12.132812 4.382812 12.234375 4.382812 12.238281 C 4.386719 12.238281 4.332031 12.664062 4.253906 13.179688 C 4.109375 14.164062 4.109375 14.230469 4.261719 14.328125 C 4.308594 14.359375 4.753906 14.503906 5.246094 14.648438 C 6.460938 15.015625 6.425781 15.007812 6.550781 14.960938 C 6.675781 14.921875 6.667969 14.929688 7.195312 13.796875 C 7.351562 13.464844 7.496094 13.1875 7.515625 13.179688 C 7.535156 13.175781 7.75 13.148438 7.988281 13.128906 C 8.226562 13.101562 8.46875 13.074219 8.535156 13.0625 C 8.648438 13.046875 8.65625 13.054688 9.210938 13.796875 C 9.558594 14.261719 9.8125 14.5625 9.867188 14.589844 C 9.929688 14.613281 10.007812 14.617188 10.070312 14.601562 C 10.214844 14.558594 11.929688 13.636719 12.03125 13.546875 C 12.179688 13.417969 12.167969 13.351562 11.824219 12.402344 L 11.496094 11.503906 L 11.691406 11.289062 C 11.796875 11.175781 11.964844 10.972656 12.0625 10.839844 C 12.222656 10.617188 12.246094 10.601562 12.347656 10.617188 C 12.691406 10.679688 13.980469 10.851562 14.082031 10.851562 C 14.308594 10.851562 14.332031 10.804688 14.660156 9.71875 C 14.949219 8.75 15.003906 8.484375 14.929688 8.367188 C 14.910156 8.335938 14.507812 8.132812 14.039062 7.910156 L 13.179688 7.515625 L 13.140625 7.101562 C 13.117188 6.871094 13.089844 6.605469 13.074219 6.507812 L 13.050781 6.328125 L 13.757812 5.804688 C 14.144531 5.515625 14.496094 5.253906 14.535156 5.21875 C 14.683594 5.082031 14.636719 4.945312 14.097656 3.949219 C 13.617188 3.046875 13.480469 2.847656 13.347656 2.847656 C 13.3125 2.847656 12.882812 2.996094 12.390625 3.171875 L 11.496094 3.5 L 11.289062 3.304688 C 11.179688 3.203125 10.984375 3.035156 10.851562 2.941406 C 10.722656 2.847656 10.617188 2.765625 10.609375 2.757812 C 10.605469 2.753906 10.65625 2.367188 10.726562 1.894531 C 10.796875 1.417969 10.851562 0.976562 10.851562 0.914062 C 10.851562 0.691406 10.777344 0.65625 9.640625 0.3125 C 9.066406 0.140625 8.570312 0 8.542969 0 C 8.511719 0.00390625 8.453125 0.0234375 8.402344 0.0507812 Z M 8.449219 2.847656 C 10.382812 3.265625 11.792969 4.710938 12.171875 6.660156 C 12.265625 7.128906 12.257812 7.945312 12.15625 8.425781 C 11.757812 10.324219 10.324219 11.753906 8.425781 12.15625 C 7.941406 12.257812 7.125 12.265625 6.65625 12.175781 C 5.652344 11.976562 4.835938 11.546875 4.148438 10.851562 C 1.925781 8.636719 2.414062 4.96875 5.136719 3.378906 C 5.625 3.09375 6.351562 2.847656 6.925781 2.777344 C 7.324219 2.730469 8.042969 2.761719 8.449219 2.847656 Z M 8.449219 2.847656 "/>
<path style=" stroke:none;fill-rule:nonzero;fill:rgb(0%,0%,0%);fill-opacity:1;" d="M 6.8125 3.550781 C 5.585938 3.78125 4.582031 4.5 3.984375 5.570312 C 3.800781 5.894531 3.617188 6.429688 3.546875 6.824219 C 3.472656 7.265625 3.496094 8.007812 3.601562 8.433594 C 3.980469 9.929688 5.078125 11.023438 6.585938 11.402344 C 6.847656 11.464844 7.007812 11.480469 7.480469 11.480469 C 8.085938 11.484375 8.285156 11.457031 8.761719 11.292969 C 10.851562 10.597656 11.980469 8.347656 11.296875 6.257812 C 10.867188 4.9375 9.792969 3.945312 8.429688 3.601562 C 8.035156 3.503906 7.199219 3.476562 6.8125 3.550781 Z M 8.105469 4.890625 C 8.644531 5 9.277344 5.40625 9.609375 5.847656 C 9.972656 6.335938 10.132812 6.765625 10.15625 7.359375 C 10.183594 7.886719 10.117188 8.222656 9.898438 8.671875 C 9.625 9.234375 9.238281 9.621094 8.671875 9.898438 C 8.257812 10.101562 7.972656 10.167969 7.496094 10.167969 C 6.113281 10.167969 5.003906 9.179688 4.828125 7.789062 C 4.675781 6.578125 5.460938 5.351562 6.644531 4.957031 C 7.121094 4.800781 7.570312 4.777344 8.105469 4.890625 Z M 8.105469 4.890625 "/>
</g>
</svg>
