<?xml version="1.0" encoding="UTF-8"?>
<svg xmlns="http://www.w3.org/2000/svg" xmlns:xlink="http://www.w3.org/1999/xlink" width="15px" height="14px" viewBox="0 0 15 14" version="1.1">
<g id="surface1">
<path style=" stroke:none;fill-rule:nonzero;fill:rgb(0%,0%,0%);fill-opacity:1;" d="M 9.484375 0.203125 C 9.605469 0.773438 9.601562 1.917969 9.472656 2.496094 C 9.320312 3.191406 9.046875 3.875 8.691406 4.4375 C 8.515625 4.722656 8.179688 5.167969 8.144531 5.171875 C 8.132812 5.171875 8.085938 5.070312 8.042969 4.941406 C 8 4.816406 7.867188 4.550781 7.761719 4.339844 C 7.070312 3.023438 5.84375 1.871094 4.3125 1.097656 C 4.003906 0.945312 3.738281 0.828125 3.738281 0.847656 C 3.738281 0.859375 3.851562 0.945312 3.988281 1.039062 C 5.191406 1.875 6.152344 3.300781 6.457031 4.691406 C 6.546875 5.101562 6.574219 5.269531 6.558594 5.269531 C 6.550781 5.269531 6.339844 5.195312 6.089844 5.101562 C 5.136719 4.746094 4.222656 4.589844 3.144531 4.585938 C 2.203125 4.585938 1.394531 4.710938 0.585938 4.976562 C 0.285156 5.074219 0.015625 5.195312 0.171875 5.15625 C 0.363281 5.113281 0.75 5.070312 1.121094 5.050781 C 2.4375 4.980469 3.933594 5.371094 5.027344 6.058594 C 5.609375 6.429688 5.605469 6.367188 5.074219 6.574219 C 4.585938 6.757812 4.046875 7.042969 3.554688 7.371094 C 3.191406 7.613281 2.410156 8.3125 2.101562 8.679688 C 1.667969 9.183594 1.121094 10.003906 0.921875 10.457031 C 0.847656 10.621094 0.855469 10.617188 1.078125 10.332031 C 1.996094 9.148438 3.550781 8.238281 5.132812 7.957031 C 5.351562 7.917969 5.550781 7.890625 5.578125 7.894531 C 5.613281 7.902344 5.589844 7.992188 5.472656 8.265625 C 4.894531 9.582031 4.738281 11.097656 5.03125 12.515625 C 5.101562 12.863281 5.441406 13.882812 5.488281 13.917969 C 5.503906 13.921875 5.496094 13.828125 5.46875 13.703125 C 5.398438 13.367188 5.367188 12.464844 5.417969 12.070312 C 5.546875 11.050781 5.917969 10.085938 6.492188 9.28125 C 6.835938 8.800781 6.816406 8.800781 6.992188 9.226562 C 7.507812 10.476562 8.601562 11.695312 9.953125 12.539062 C 10.246094 12.71875 11.367188 13.285156 11.296875 13.21875 C 11.289062 13.207031 11.179688 13.128906 11.058594 13.046875 C 9.699219 12.113281 8.722656 10.601562 8.449219 9.023438 C 8.425781 8.878906 8.417969 8.761719 8.429688 8.761719 C 8.441406 8.761719 8.585938 8.816406 8.746094 8.878906 C 10.296875 9.492188 12.140625 9.621094 13.753906 9.234375 C 14.117188 9.144531 14.890625 8.898438 14.871094 8.875 C 14.863281 8.871094 14.722656 8.890625 14.558594 8.921875 C 14.085938 9 13.007812 8.996094 12.480469 8.902344 C 11.453125 8.730469 10.542969 8.375 9.777344 7.863281 C 9.617188 7.753906 9.496094 7.65625 9.507812 7.636719 C 9.515625 7.621094 9.6875 7.542969 9.890625 7.464844 C 11.566406 6.824219 12.996094 5.539062 13.894531 3.863281 C 14.113281 3.453125 14.144531 3.375 13.996094 3.574219 C 13.820312 3.820312 13.453125 4.21875 13.160156 4.480469 C 12.238281 5.292969 11.074219 5.855469 9.855469 6.074219 C 9.28125 6.175781 9.3125 6.195312 9.472656 5.839844 C 9.734375 5.277344 9.953125 4.484375 10.042969 3.792969 C 10.097656 3.375 10.085938 2.445312 10.027344 1.996094 C 9.953125 1.5 9.835938 1.027344 9.667969 0.570312 C 9.53125 0.207031 9.449219 0.0429688 9.484375 0.203125 Z M 7.570312 5.0625 C 7.851562 5.453125 8.019531 5.960938 7.996094 6.347656 L 7.984375 6.535156 L 8.238281 6.375 C 8.632812 6.128906 8.824219 5.890625 8.976562 5.472656 L 9.042969 5.289062 L 9.023438 5.5 C 8.976562 5.960938 8.738281 6.46875 8.410156 6.808594 C 8.179688 7.046875 8.183594 7.046875 8.664062 7.074219 C 9.050781 7.09375 9.414062 7.03125 9.75 6.882812 C 9.875 6.828125 9.988281 6.78125 9.996094 6.78125 C 10.007812 6.78125 9.929688 6.847656 9.824219 6.929688 C 9.390625 7.269531 8.777344 7.488281 8.265625 7.488281 L 8.003906 7.488281 L 8.152344 7.691406 C 8.425781 8.078125 8.753906 8.308594 9.203125 8.433594 L 9.417969 8.492188 L 9.21875 8.46875 C 8.648438 8.414062 8.066406 8.183594 7.695312 7.871094 L 7.476562 7.691406 L 7.449219 7.847656 C 7.382812 8.324219 7.445312 8.761719 7.644531 9.164062 C 7.769531 9.414062 7.710938 9.382812 7.476562 9.078125 C 7.160156 8.660156 7 8.222656 6.992188 7.769531 L 6.988281 7.496094 L 6.769531 7.632812 C 6.351562 7.894531 6.105469 8.203125 5.976562 8.628906 L 5.921875 8.8125 L 5.941406 8.605469 C 5.988281 8.117188 6.242188 7.554688 6.566406 7.207031 C 6.679688 7.09375 6.734375 7.011719 6.710938 7 C 6.691406 6.988281 6.515625 6.96875 6.324219 6.960938 C 5.914062 6.941406 5.5625 7 5.210938 7.152344 L 4.972656 7.25 L 5.117188 7.132812 C 5.511719 6.800781 6.074219 6.582031 6.613281 6.550781 L 6.960938 6.53125 L 6.816406 6.328125 C 6.53125 5.945312 6.285156 5.765625 5.847656 5.625 L 5.582031 5.542969 L 5.78125 5.5625 C 6.34375 5.621094 6.925781 5.855469 7.289062 6.167969 L 7.496094 6.347656 L 7.523438 6.1875 C 7.566406 5.953125 7.554688 5.515625 7.5 5.304688 C 7.476562 5.203125 7.398438 5.003906 7.335938 4.867188 C 7.21875 4.628906 7.21875 4.621094 7.304688 4.71875 C 7.351562 4.769531 7.476562 4.929688 7.570312 5.0625 Z M 7.570312 5.0625 "/>
</g>
</svg>
