<?xml version="1.0" standalone="no"?>
<!DOCTYPE svg PUBLIC "-//W3C//DTD SVG 20010904//EN"
 "http://www.w3.org/TR/2001/REC-SVG-20010904/DTD/svg10.dtd">
<svg version="1.0" xmlns="http://www.w3.org/2000/svg"
 width="557.000000pt" height="556.000000pt" viewBox="0 0 557.000000 556.000000"
 preserveAspectRatio="xMidYMid meet">
<metadata>
Created by potrace 1.16, written by Peter Selinger 2001-2019
</metadata>
<g transform="translate(0.000000,556.000000) scale(0.100000,-0.100000)"
fill="#000000" stroke="none">
<path d="M2006 5448 c-52 -140 -134 -444 -155 -573 -84 -527 -27 -1053 169
-1565 70 -183 68 -170 24 -170 -20 0 -93 11 -163 25 -346 70 -722 244 -1026
474 -130 98 -351 320 -444 444 -40 54 -76 96 -78 93 -10 -9 112 -239 203 -385
143 -229 262 -379 439 -556 171 -171 307 -285 448 -378 125 -83 284 -169 406
-222 153 -65 196 -88 196 -105 0 -24 -249 -185 -410 -265 -240 -119 -508 -200
-790 -241 -204 -30 -556 -20 -755 21 -54 11 82 -47 200 -86 288 -94 538 -132
885 -133 424 -1 704 50 1103 201 95 36 175 63 177 61 8 -8 -46 -271 -80 -386
-142 -497 -467 -976 -869 -1283 -53 -40 -93 -75 -91 -77 7 -8 218 100 340 173
572 344 1030 869 1240 1420 51 132 43 120 66 99 35 -32 192 -273 247 -381 98
-192 191 -460 231 -667 41 -209 46 -679 11 -867 -6 -29 -8 -54 -6 -56 2 -2 20
40 40 94 81 210 145 482 167 707 18 186 6 642 -20 786 -45 242 -105 453 -188
658 -31 79 -42 117 -35 124 23 23 385 -63 572 -135 442 -171 820 -453 1098
-819 37 -48 68 -85 70 -84 2 2 -18 46 -44 97 -352 703 -847 1188 -1499 1469
-174 76 -162 66 -129 101 37 39 145 113 268 184 270 155 635 275 933 306 144
15 588 6 690 -14 40 -8 70 -11 68 -7 -9 14 -370 129 -488 155 -234 51 -321 60
-632 60 -255 0 -307 -3 -435 -23 -263 -42 -471 -99 -699 -192 -69 -27 -127
-48 -130 -45 -10 10 21 188 55 317 47 178 91 295 179 473 134 274 259 449 475
666 80 80 191 181 248 223 56 43 102 80 102 83 0 2 -48 -21 -107 -52 -421
-224 -599 -350 -864 -614 -295 -295 -485 -576 -624 -921 -42 -105 -56 -126
-79 -117 -27 11 -176 249 -255 408 -114 228 -196 492 -243 774 -19 119 -16
529 6 674 9 62 15 115 13 118 -3 2 -17 -29 -31 -69z m824 -1831 c-57 -144 -65
-187 -65 -374 0 -94 3 -174 7 -178 4 -4 38 20 77 53 154 133 364 222 576 246
48 5 47 4 -32 -25 -157 -56 -257 -133 -356 -271 -72 -102 -73 -98 27 -98 169
0 351 -58 507 -162 77 -52 154 -120 119 -105 -8 3 -54 22 -102 42 -110 45
-214 65 -331 64 -122 -1 -181 -10 -184 -29 -2 -8 22 -44 53 -80 129 -151 197
-311 229 -540 8 -58 3 -52 -35 47 -56 146 -119 224 -265 328 l-80 57 -6 -103
c-11 -185 -62 -332 -172 -497 -97 -145 -114 -155 -65 -37 22 54 46 127 54 164
21 102 17 391 -7 391 -4 0 -31 -22 -61 -48 -66 -60 -124 -100 -208 -142 -114
-57 -294 -110 -373 -110 -25 1 -14 8 54 33 108 42 172 82 243 155 77 79 150
184 134 193 -7 3 -56 9 -108 12 -126 8 -233 37 -356 97 -87 42 -251 156 -241
167 2 2 33 -10 69 -26 85 -38 161 -59 255 -72 80 -10 270 -3 294 11 14 9 2 28
-82 135 -84 107 -156 279 -184 439 -21 124 -18 133 15 41 16 -45 41 -103 56
-130 39 -69 141 -174 228 -234 l75 -51 5 42 c3 24 7 81 10 128 8 132 50 257
132 391 41 69 114 163 120 156 3 -2 -9 -38 -26 -80z"/>
</g>
</svg>
