<?xml version="1.0" encoding="UTF-8"?>
<svg xmlns="http://www.w3.org/2000/svg" xmlns:xlink="http://www.w3.org/1999/xlink" width="14px" height="14px" viewBox="0 0 14 14" version="1.1">
<g id="surface1">
<path style=" stroke:none;fill-rule:nonzero;fill:rgb(0%,0%,0%);fill-opacity:1;" d="M 6.152344 0.09375 C 5.851562 0.488281 1.199219 7.328125 1.199219 7.378906 C 1.199219 7.410156 1.390625 7.816406 1.617188 8.277344 C 1.847656 8.734375 2.035156 9.148438 2.035156 9.191406 C 2.035156 9.234375 1.9375 9.519531 1.816406 9.824219 C 1.703125 10.128906 1.605469 10.382812 1.613281 10.386719 C 1.621094 10.394531 1.734375 10.347656 1.867188 10.292969 L 2.105469 10.1875 L 2.609375 8.992188 C 2.890625 8.335938 3.417969 7.089844 3.78125 6.226562 C 4.148438 5.363281 4.453125 4.660156 4.457031 4.667969 C 4.464844 4.671875 4.289062 5.179688 4.074219 5.792969 C 3.855469 6.410156 3.679688 6.914062 3.6875 6.921875 C 3.695312 6.929688 4.121094 6.605469 4.632812 6.203125 C 5.203125 5.75 5.570312 5.441406 5.582031 5.394531 C 5.601562 5.304688 6.289062 0.269531 6.300781 0.125 C 6.3125 -0.0078125 6.238281 -0.0195312 6.152344 0.09375 Z M 6.152344 0.09375 "/>
<path style=" stroke:none;fill-rule:nonzero;fill:rgb(0%,0%,0%);fill-opacity:1;" d="M 7.285156 4.339844 C 5.339844 5.867188 3.738281 7.148438 3.726562 7.1875 C 3.714844 7.226562 3.761719 7.65625 3.832031 8.140625 C 3.90625 8.625 3.964844 9.058594 3.964844 9.097656 C 3.964844 9.144531 3.777344 9.40625 3.488281 9.761719 L 3.011719 10.34375 L 2.679688 10.335938 C 2.152344 10.316406 1.789062 10.453125 1.445312 10.800781 C 1.238281 11.003906 1.105469 11.257812 1.046875 11.550781 C 0.96875 11.949219 1.125 12.441406 1.421875 12.742188 L 1.566406 12.890625 L 1.542969 12.671875 C 1.53125 12.539062 1.539062 12.367188 1.5625 12.246094 C 1.589844 12.136719 1.613281 11.929688 1.621094 11.796875 C 1.632812 11.542969 1.738281 11.257812 1.835938 11.222656 C 1.867188 11.214844 1.929688 11.226562 1.984375 11.253906 C 2.078125 11.304688 2.09375 11.300781 2.25 11.195312 C 2.34375 11.132812 2.472656 11.058594 2.539062 11.027344 C 2.601562 10.996094 2.65625 10.953125 2.65625 10.929688 C 2.65625 10.863281 3.449219 10.859375 3.714844 10.921875 C 3.835938 10.949219 3.945312 10.972656 3.964844 10.972656 C 3.980469 10.972656 4.171875 10.757812 4.386719 10.492188 C 4.84375 9.921875 4.9375 9.820312 5.015625 9.820312 C 5.15625 9.816406 5.179688 9.761719 5.238281 9.21875 C 5.273438 8.921875 5.296875 8.679688 5.292969 8.675781 C 5.289062 8.671875 4.929688 9.132812 4.496094 9.699219 L 3.707031 10.734375 L 3.550781 10.628906 C 3.46875 10.574219 3.398438 10.515625 3.398438 10.5 C 3.398438 10.464844 7.671875 5.503906 7.699219 5.503906 C 7.710938 5.503906 7.703125 5.527344 7.683594 5.546875 C 7.542969 5.710938 5.886719 7.894531 5.898438 7.898438 C 5.90625 7.90625 6.480469 7.640625 7.179688 7.308594 L 8.449219 6.710938 L 9.695312 4.164062 C 10.382812 2.765625 10.929688 1.605469 10.921875 1.59375 C 10.914062 1.578125 10.882812 1.566406 10.863281 1.566406 C 10.835938 1.566406 9.226562 2.816406 7.285156 4.339844 Z M 7.285156 4.339844 "/>
<path style=" stroke:none;fill-rule:nonzero;fill:rgb(0%,0%,0%);fill-opacity:1;" d="M 9.761719 6.308594 C 7.484375 7.367188 5.601562 8.25 5.574219 8.269531 C 5.550781 8.292969 5.492188 8.683594 5.425781 9.261719 C 5.367188 9.789062 5.308594 10.234375 5.292969 10.253906 C 5.273438 10.289062 4.175781 11.136719 4.085938 11.1875 C 4.066406 11.199219 3.953125 11.179688 3.839844 11.144531 C 3.0625 10.886719 2.246094 11.195312 1.882812 11.878906 C 1.765625 12.101562 1.761719 12.125 1.761719 12.503906 C 1.761719 12.890625 1.765625 12.898438 1.902344 13.152344 C 2.066406 13.464844 2.308594 13.6875 2.65625 13.839844 C 2.875 13.9375 2.921875 13.945312 3.289062 13.945312 C 3.683594 13.945312 3.703125 13.941406 3.972656 13.816406 C 4.59375 13.53125 4.953125 12.894531 4.839844 12.292969 C 4.816406 12.175781 4.816406 12.070312 4.828125 12.058594 C 4.972656 11.945312 5.867188 11.277344 5.957031 11.210938 L 6.078125 11.128906 L 7.132812 11.226562 C 8.039062 11.3125 8.191406 11.320312 8.234375 11.277344 C 8.3125 11.199219 13.886719 4.59375 13.933594 4.519531 C 13.96875 4.476562 13.96875 4.441406 13.941406 4.417969 C 13.917969 4.394531 12.628906 4.976562 9.761719 6.308594 Z M 9.851562 7.554688 C 9.820312 7.578125 8.648438 8.519531 7.238281 9.648438 C 5.832031 10.78125 4.667969 11.707031 4.65625 11.714844 C 4.640625 11.722656 4.574219 11.660156 4.507812 11.585938 C 4.40625 11.464844 4.394531 11.4375 4.441406 11.398438 C 4.53125 11.316406 9.867188 7.507812 9.886719 7.507812 C 9.898438 7.507812 9.882812 7.53125 9.851562 7.554688 Z M 3.433594 11.609375 L 3.570312 11.628906 L 3.554688 11.835938 C 3.546875 11.953125 3.5 12.109375 3.460938 12.183594 C 3.394531 12.3125 3.101562 12.589844 3.070312 12.5625 C 3.0625 12.554688 3.074219 12.496094 3.089844 12.429688 C 3.136719 12.285156 3.136719 11.875 3.09375 11.730469 C 3.066406 11.636719 3.070312 11.621094 3.136719 11.609375 C 3.269531 11.585938 3.285156 11.585938 3.433594 11.609375 Z M 2.53125 12.242188 C 2.515625 12.320312 2.464844 12.445312 2.417969 12.519531 L 2.332031 12.65625 L 2.328125 12.5 C 2.328125 12.328125 2.378906 12.164062 2.46875 12.027344 L 2.527344 11.945312 L 2.539062 12.023438 C 2.546875 12.066406 2.542969 12.167969 2.53125 12.242188 Z M 4.203125 12.179688 C 4.285156 12.363281 4.269531 12.691406 4.167969 12.894531 C 4.015625 13.199219 3.648438 13.421875 3.292969 13.417969 C 3.113281 13.414062 2.773438 13.3125 2.796875 13.265625 C 2.808594 13.246094 2.894531 13.210938 2.988281 13.191406 C 3.246094 13.125 3.445312 13.023438 3.660156 12.835938 C 3.878906 12.636719 4.015625 12.441406 4.078125 12.214844 C 4.105469 12.132812 4.132812 12.058594 4.136719 12.058594 C 4.140625 12.058594 4.175781 12.113281 4.203125 12.179688 Z M 4.203125 12.179688 "/>
<path style=" stroke:none;fill-rule:nonzero;fill:rgb(0%,0%,0%);fill-opacity:1;" d="M 3.023438 8.734375 C 2.757812 9.484375 2.550781 10.105469 2.558594 10.113281 C 2.570312 10.125 2.660156 10.136719 2.765625 10.136719 L 2.957031 10.140625 L 3.066406 9.859375 C 3.175781 9.585938 3.183594 9.570312 3.359375 9.488281 C 3.472656 9.4375 3.59375 9.347656 3.664062 9.253906 L 3.78125 9.105469 L 3.65625 8.253906 C 3.589844 7.785156 3.527344 7.394531 3.519531 7.386719 C 3.511719 7.378906 3.289062 7.988281 3.023438 8.734375 Z M 3.023438 8.734375 "/>
<path style=" stroke:none;fill-rule:nonzero;fill:rgb(0%,0%,0%);fill-opacity:1;" d="M 1.007812 10.714844 C 0.578125 10.882812 0.269531 11.175781 0.113281 11.566406 C -0.167969 12.269531 0.171875 13.054688 0.902344 13.390625 C 1.117188 13.492188 1.183594 13.503906 1.519531 13.515625 L 1.894531 13.527344 L 1.796875 13.363281 C 1.691406 13.183594 1.472656 13.023438 1.183594 12.894531 C 0.976562 12.8125 0.75 12.589844 0.664062 12.410156 C 0.558594 12.167969 0.636719 11.628906 0.792969 11.539062 C 0.816406 11.527344 0.867188 11.414062 0.910156 11.292969 C 0.953125 11.171875 1.0625 10.96875 1.148438 10.851562 C 1.238281 10.734375 1.289062 10.632812 1.261719 10.632812 C 1.238281 10.632812 1.125 10.671875 1.007812 10.714844 Z M 1.007812 10.714844 "/>
</g>
</svg>
