<?xml version="1.0" encoding="UTF-8"?>
<svg xmlns="http://www.w3.org/2000/svg" xmlns:xlink="http://www.w3.org/1999/xlink" width="14px" height="15px" viewBox="0 0 14 15" version="1.1">
<g id="surface1">
<path style=" stroke:none;fill-rule:nonzero;fill:rgb(0%,0%,0%);fill-opacity:1;" d="M 6.171875 1.210938 C 5.640625 1.863281 4.78125 2.914062 4.257812 3.554688 C 3.738281 4.195312 3.304688 4.738281 3.300781 4.757812 C 3.289062 4.804688 6.824219 7.140625 6.855469 7.113281 C 6.875 7.09375 8.914062 2.308594 8.929688 2.246094 C 8.9375 2.207031 7.242188 0.0976562 7.167969 0.0546875 C 7.148438 0.0429688 6.703125 0.566406 6.171875 1.210938 Z M 6.171875 1.210938 "/>
<path style=" stroke:none;fill-rule:nonzero;fill:rgb(0%,0%,0%);fill-opacity:1;" d="M 10.304688 2.667969 C 10.261719 2.753906 9.777344 3.730469 9.21875 4.839844 C 8.585938 6.101562 8.21875 6.871094 8.238281 6.894531 C 8.273438 6.945312 11.910156 9.679688 11.925781 9.664062 C 11.929688 9.660156 12.390625 9.164062 12.945312 8.5625 C 13.5 7.960938 13.953125 7.457031 13.949219 7.4375 C 13.921875 7.371094 10.425781 2.523438 10.402344 2.523438 C 10.386719 2.519531 10.339844 2.585938 10.304688 2.667969 Z M 10.304688 2.667969 "/>
<path style=" stroke:none;fill-rule:nonzero;fill:rgb(0%,0%,0%);fill-opacity:1;" d="M 1.179688 6.320312 C 0.6875 6.851562 0.230469 7.34375 0.160156 7.417969 L 0.0351562 7.554688 L 1.820312 10.035156 C 3.476562 12.339844 3.605469 12.515625 3.648438 12.4375 C 3.882812 12.007812 5.789062 8.152344 5.78125 8.125 C 5.769531 8.089844 2.125 5.359375 2.09375 5.359375 C 2.078125 5.359375 1.667969 5.792969 1.179688 6.320312 Z M 1.179688 6.320312 "/>
<path style=" stroke:none;fill-rule:nonzero;fill:rgb(0%,0%,0%);fill-opacity:1;" d="M 7.023438 7.957031 C 7.003906 8.003906 6.566406 9.035156 6.050781 10.25 C 5.53125 11.46875 5.074219 12.539062 5.039062 12.632812 L 4.972656 12.800781 L 5.847656 13.875 C 6.328125 14.464844 6.738281 14.949219 6.753906 14.957031 C 6.804688 14.976562 10.648438 10.25 10.613281 10.214844 C 10.585938 10.195312 7.183594 7.949219 7.085938 7.890625 C 7.070312 7.882812 7.042969 7.910156 7.023438 7.957031 Z M 7.023438 7.957031 "/>
</g>
</svg>
