<?xml version="1.0" encoding="UTF-8"?>
<svg xmlns="http://www.w3.org/2000/svg" xmlns:xlink="http://www.w3.org/1999/xlink" width="17px" height="15px" viewBox="0 0 17 15" version="1.1">
<g id="surface1">
<path style=" stroke:none;fill-rule:nonzero;fill:rgb(0%,0%,0%);fill-opacity:1;" d="M 7.8125 0.03125 C 7.753906 0.0429688 7.570312 0.0898438 7.398438 0.132812 C 7.121094 0.210938 7.050781 0.214844 6.769531 0.167969 C 6.398438 0.113281 5.984375 0.148438 5.621094 0.257812 C 5.484375 0.300781 5.21875 0.363281 5.039062 0.402344 C 4.367188 0.539062 3.835938 0.816406 3.613281 1.136719 C 3.535156 1.25 3.421875 1.335938 3.234375 1.425781 C 2.484375 1.777344 1.875 2.324219 1.585938 2.90625 C 1.496094 3.09375 1.394531 3.371094 1.371094 3.523438 C 1.324219 3.761719 1.285156 3.832031 1.078125 4.082031 C 0.945312 4.246094 0.773438 4.496094 0.699219 4.648438 C 0.585938 4.882812 0.5625 4.976562 0.554688 5.269531 C 0.546875 5.601562 0.542969 5.617188 0.359375 5.863281 C -0.0234375 6.386719 -0.0820312 6.925781 0.191406 7.34375 C 0.292969 7.496094 0.304688 7.5625 0.3125 7.875 C 0.316406 8.277344 0.402344 8.511719 0.621094 8.769531 C 0.789062 8.957031 1.195312 9.164062 1.46875 9.199219 L 1.675781 9.230469 L 1.511719 9.402344 C 1.285156 9.636719 1.210938 9.800781 1.210938 10.066406 C 1.210938 10.375 1.304688 10.617188 1.546875 10.9375 C 2.230469 11.855469 3.945312 12.691406 5.140625 12.691406 L 5.304688 12.691406 L 5.304688 12.96875 C 5.304688 13.53125 5.136719 14.34375 4.90625 14.886719 C 4.863281 14.992188 5.257812 14.722656 5.6875 14.351562 C 6.199219 13.914062 6.53125 13.492188 6.789062 12.964844 C 7.042969 12.441406 7.148438 12.082031 7.152344 11.703125 L 7.15625 11.445312 L 7.320312 11.417969 C 7.535156 11.386719 7.84375 11.222656 7.984375 11.070312 C 8.105469 10.945312 8.265625 10.625 8.269531 10.503906 C 8.269531 10.410156 8.28125 10.410156 8.472656 10.527344 C 8.898438 10.796875 9.386719 10.871094 9.792969 10.734375 L 10.046875 10.644531 L 10.296875 10.734375 C 10.5 10.804688 10.617188 10.8125 10.945312 10.796875 C 11.671875 10.757812 12.097656 10.5 12.367188 9.921875 C 12.492188 9.652344 12.511719 9.574219 12.511719 9.28125 C 12.511719 9.039062 12.488281 8.90625 12.433594 8.804688 L 12.359375 8.671875 L 12.523438 8.699219 C 12.621094 8.714844 12.777344 8.699219 12.9375 8.652344 L 13.1875 8.582031 L 13.578125 8.71875 C 13.90625 8.832031 14.050781 8.855469 14.429688 8.875 C 15.234375 8.90625 15.679688 8.742188 16.191406 8.238281 C 16.519531 7.902344 16.699219 7.578125 16.738281 7.234375 C 16.75 7.113281 16.796875 6.949219 16.835938 6.863281 C 17.105469 6.335938 16.992188 5.28125 16.589844 4.511719 C 16.421875 4.191406 16.121094 3.859375 15.921875 3.777344 C 15.839844 3.738281 15.789062 3.683594 15.773438 3.605469 C 15.742188 3.4375 15.269531 2.949219 14.890625 2.6875 C 14.515625 2.425781 14.101562 2.230469 13.847656 2.195312 C 13.683594 2.171875 13.640625 2.144531 13.476562 1.925781 C 13.144531 1.5 12.652344 1.199219 12.160156 1.113281 C 12.03125 1.09375 11.886719 1.019531 11.703125 0.875 C 11.097656 0.410156 10.421875 0.207031 9.53125 0.214844 C 9.171875 0.21875 9.035156 0.203125 8.835938 0.128906 C 8.585938 0.0429688 8.027344 -0.0117188 7.8125 0.03125 Z M 7.8125 0.03125 "/>
</g>
</svg>
