<?xml version="1.0" encoding="UTF-8"?>
<svg xmlns="http://www.w3.org/2000/svg" xmlns:xlink="http://www.w3.org/1999/xlink" width="15px" height="14px" viewBox="0 0 15 14" version="1.1">
<g id="surface1">
<path style=" stroke:none;fill-rule:nonzero;fill:rgb(0%,0%,0%);fill-opacity:1;" d="M 7.476562 0.0859375 C 7.390625 0.296875 6.316406 2.761719 6.308594 2.777344 C 6.296875 2.785156 5.730469 2.378906 5.046875 1.878906 C 4.359375 1.378906 3.792969 0.976562 3.792969 0.980469 C 3.785156 0.988281 3.878906 1.644531 3.996094 2.445312 C 4.113281 3.242188 4.203125 3.90625 4.195312 3.910156 C 4.1875 3.921875 3.488281 3.835938 2.644531 3.726562 C 1.800781 3.617188 1.097656 3.527344 1.082031 3.53125 C 1.066406 3.539062 1.492188 4.0625 2.019531 4.695312 C 2.550781 5.335938 2.984375 5.863281 2.984375 5.875 C 2.984375 5.890625 2.332031 6.144531 1.535156 6.445312 C 0.734375 6.75 0.0820312 7.007812 0.0820312 7.015625 C 0.0820312 7.027344 0.734375 7.28125 1.535156 7.585938 C 2.332031 7.886719 2.984375 8.140625 2.984375 8.15625 C 2.984375 8.164062 2.550781 8.695312 2.019531 9.332031 C 1.492188 9.972656 1.0625 10.496094 1.066406 10.5 C 1.070312 10.507812 1.773438 10.421875 2.625 10.308594 C 3.480469 10.195312 4.183594 10.113281 4.195312 10.117188 C 4.203125 10.128906 4.113281 10.789062 3.996094 11.589844 C 3.878906 12.386719 3.785156 13.046875 3.789062 13.054688 C 3.792969 13.054688 4.355469 12.648438 5.046875 12.148438 C 5.917969 11.511719 6.300781 11.253906 6.316406 11.285156 C 6.335938 11.308594 6.601562 11.914062 6.914062 12.636719 C 7.21875 13.359375 7.484375 13.960938 7.496094 13.972656 C 7.511719 13.988281 7.78125 13.386719 8.109375 12.636719 C 8.433594 11.886719 8.703125 11.269531 8.71875 11.265625 C 8.730469 11.257812 9.296875 11.65625 9.976562 12.148438 C 10.832031 12.773438 11.210938 13.03125 11.21875 12.996094 C 11.222656 12.964844 11.132812 12.308594 11.015625 11.53125 C 10.902344 10.757812 10.8125 10.117188 10.816406 10.113281 C 10.816406 10.105469 11.519531 10.191406 12.375 10.308594 C 13.226562 10.417969 13.933594 10.5 13.9375 10.496094 C 13.949219 10.488281 13.515625 9.953125 12.984375 9.3125 L 12.011719 8.148438 L 12.238281 8.058594 C 12.363281 8.011719 13.023438 7.757812 13.707031 7.5 C 14.390625 7.246094 14.953125 7.027344 14.953125 7.015625 C 14.953125 7.007812 14.292969 6.75 13.492188 6.449219 C 12.6875 6.148438 12.03125 5.894531 12.023438 5.890625 C 12.015625 5.886719 12.449219 5.359375 12.984375 4.71875 C 13.515625 4.074219 13.945312 3.546875 13.9375 3.539062 C 13.929688 3.527344 13.226562 3.613281 12.375 3.726562 C 11.519531 3.835938 10.816406 3.925781 10.816406 3.921875 C 10.8125 3.914062 10.902344 3.277344 11.015625 2.5 C 11.132812 1.726562 11.222656 1.0625 11.21875 1.035156 C 11.210938 0.992188 10.859375 1.234375 9.972656 1.882812 C 9.296875 2.378906 8.726562 2.773438 8.710938 2.757812 C 8.695312 2.746094 8.425781 2.132812 8.105469 1.394531 C 7.789062 0.65625 7.523438 0.0429688 7.515625 0.0351562 C 7.507812 0.03125 7.488281 0.0546875 7.476562 0.0859375 Z M 8.15625 3.609375 C 9.308594 3.796875 10.296875 4.496094 10.816406 5.488281 C 11.117188 6.058594 11.171875 6.308594 11.171875 7.015625 C 11.171875 7.527344 11.164062 7.640625 11.089844 7.890625 C 10.730469 9.113281 9.714844 10.058594 8.402344 10.378906 C 8.042969 10.464844 7.386719 10.496094 6.996094 10.445312 C 5.503906 10.238281 4.316406 9.242188 3.925781 7.863281 C 3.84375 7.582031 3.835938 7.46875 3.835938 7.015625 C 3.835938 6.5625 3.84375 6.453125 3.925781 6.171875 C 4.433594 4.398438 6.246094 3.296875 8.15625 3.609375 Z M 8.15625 3.609375 "/>
<path style=" stroke:none;fill-rule:nonzero;fill:rgb(0%,0%,0%);fill-opacity:1;" d="M 7.132812 4.867188 C 6.632812 4.949219 6.113281 5.21875 5.785156 5.5625 C 5.566406 5.792969 5.34375 6.183594 5.261719 6.472656 C 5.191406 6.726562 5.179688 7.199219 5.242188 7.472656 C 5.300781 7.753906 5.566406 8.242188 5.78125 8.46875 C 6.238281 8.945312 7.027344 9.246094 7.675781 9.1875 C 8.027344 9.152344 8.203125 9.105469 8.539062 8.957031 C 8.789062 8.84375 8.898438 8.773438 9.148438 8.53125 C 9.492188 8.207031 9.644531 7.957031 9.757812 7.53125 C 9.933594 6.898438 9.769531 6.183594 9.332031 5.675781 C 8.796875 5.054688 7.949219 4.742188 7.132812 4.867188 Z M 7.132812 4.867188 "/>
</g>
</svg>
