<?xml version="1.0" encoding="UTF-8"?>
<svg xmlns="http://www.w3.org/2000/svg" xmlns:xlink="http://www.w3.org/1999/xlink" width="8px" height="15px" viewBox="0 0 8 15" version="1.1">
<g id="surface1">
<path style=" stroke:none;fill-rule:nonzero;fill:rgb(0%,0%,0%);fill-opacity:1;" d="M 3.441406 3.371094 C 3.148438 5.207031 2.90625 6.730469 2.90625 6.75 C 2.90625 6.789062 3 6.796875 3.246094 6.796875 C 3.433594 6.796875 3.585938 6.792969 3.585938 6.78125 C 3.585938 6.667969 3.972656 4.363281 3.996094 4.339844 C 4.035156 4.304688 4.03125 4.277344 4.25 5.65625 L 4.429688 6.796875 L 4.78125 6.796875 C 5.128906 6.796875 5.132812 6.796875 5.113281 6.714844 C 5.09375 6.640625 4.039062 0.09375 4.039062 0.0546875 C 4.039062 0.0429688 4.023438 0.0351562 4.007812 0.0351562 C 3.992188 0.0351562 3.734375 1.535156 3.441406 3.371094 Z M 3.441406 3.371094 "/>
<path style=" stroke:none;fill-rule:nonzero;fill:rgb(0%,0%,0%);fill-opacity:1;" d="M 1.121094 1.078125 C 1.097656 1.164062 0.0390625 7.722656 0.0390625 7.777344 C 0.0390625 7.796875 0.191406 7.804688 0.375 7.804688 C 0.691406 7.804688 0.710938 7.800781 0.730469 7.722656 C 0.742188 7.679688 0.828125 7.140625 0.925781 6.527344 C 1.023438 5.914062 1.109375 5.386719 1.121094 5.359375 C 1.164062 5.25 1.207031 5.457031 1.378906 6.546875 C 1.472656 7.152344 1.558594 7.679688 1.566406 7.722656 C 1.585938 7.800781 1.605469 7.804688 1.925781 7.804688 C 2.113281 7.804688 2.265625 7.796875 2.265625 7.789062 C 2.265625 7.714844 1.203125 1.183594 1.179688 1.097656 L 1.144531 0.988281 Z M 1.121094 1.078125 "/>
<path style=" stroke:none;fill-rule:nonzero;fill:rgb(0%,0%,0%);fill-opacity:1;" d="M 6.828125 1.023438 C 6.828125 1.042969 6.589844 2.539062 6.300781 4.351562 C 6.011719 6.160156 5.765625 7.675781 5.761719 7.714844 C 5.753906 7.785156 5.777344 7.789062 6.09375 7.789062 L 6.433594 7.789062 L 6.609375 6.707031 C 6.703125 6.113281 6.792969 5.5625 6.808594 5.476562 C 6.820312 5.390625 6.847656 5.324219 6.863281 5.324219 C 6.878906 5.324219 6.945312 5.667969 7.011719 6.085938 C 7.082031 6.507812 7.171875 7.066406 7.214844 7.328125 L 7.292969 7.804688 L 7.625 7.804688 C 7.917969 7.804688 7.960938 7.796875 7.960938 7.742188 C 7.960938 7.59375 6.894531 1.058594 6.863281 1.023438 C 6.84375 1.007812 6.828125 1.007812 6.828125 1.023438 Z M 6.828125 1.023438 "/>
<path style=" stroke:none;fill-rule:nonzero;fill:rgb(0%,0%,0%);fill-opacity:1;" d="M 3.742188 7.109375 L 3.660156 7.160156 L 3.660156 15.003906 L 4.011719 14.992188 L 4.359375 14.980469 L 4.371094 11.113281 L 4.378906 7.242188 L 4.296875 7.144531 C 4.234375 7.066406 4.191406 7.050781 4.023438 7.050781 C 3.910156 7.050781 3.792969 7.070312 3.742188 7.109375 Z M 3.742188 7.109375 "/>
<path style=" stroke:none;fill-rule:nonzero;fill:rgb(0%,0%,0%);fill-opacity:1;" d="M 0.855469 8.136719 C 0.800781 8.207031 0.792969 8.582031 0.792969 11.46875 L 0.792969 14.714844 L 1.144531 14.703125 L 1.492188 14.695312 L 1.503906 11.460938 C 1.511719 8.609375 1.503906 8.214844 1.453125 8.140625 C 1.402344 8.066406 1.367188 8.058594 1.152344 8.058594 C 0.945312 8.058594 0.902344 8.066406 0.855469 8.136719 Z M 0.855469 8.136719 "/>
<path style=" stroke:none;fill-rule:nonzero;fill:rgb(0%,0%,0%);fill-opacity:1;" d="M 6.578125 8.109375 C 6.507812 8.160156 6.507812 8.234375 6.507812 11.429688 L 6.507812 14.695312 L 6.859375 14.703125 L 7.207031 14.714844 L 7.207031 11.445312 C 7.207031 8.324219 7.203125 8.171875 7.136719 8.117188 C 7.046875 8.042969 6.683594 8.035156 6.578125 8.109375 Z M 6.578125 8.109375 "/>
</g>
</svg>
