<?xml version="1.0" encoding="UTF-8"?>
<svg xmlns="http://www.w3.org/2000/svg" xmlns:xlink="http://www.w3.org/1999/xlink" width="15px" height="14px" viewBox="0 0 15 14" version="1.1">
<g id="surface1">
<path style=" stroke:none;fill-rule:nonzero;fill:rgb(0%,0%,0%);fill-opacity:1;" d="M 6.90625 0.0351562 C 5.785156 0.113281 4.515625 0.503906 3.578125 1.058594 C 1.800781 2.105469 0.609375 3.691406 0.167969 5.609375 C 0.0820312 5.980469 0.0703125 6.121094 0.0585938 6.867188 C 0.0429688 7.617188 0.046875 7.753906 0.117188 8.136719 C 0.640625 11.042969 2.933594 13.269531 6.03125 13.882812 C 6.636719 14.003906 7.863281 14.035156 8.519531 13.953125 C 10.902344 13.640625 12.980469 12.269531 14.109375 10.261719 C 14.460938 9.640625 14.683594 9.042969 14.851562 8.257812 C 14.925781 7.917969 14.933594 7.777344 14.933594 7.035156 C 14.933594 6.140625 14.917969 5.980469 14.738281 5.304688 C 14.15625 3.101562 12.390625 1.253906 10.105469 0.457031 C 9.128906 0.113281 7.957031 -0.0390625 6.90625 0.0351562 Z M 8.210938 0.777344 C 9.730469 0.929688 11.140625 1.566406 12.230469 2.585938 C 14.613281 4.8125 14.855469 8.351562 12.800781 10.84375 C 11.222656 12.757812 8.609375 13.65625 6.101562 13.152344 C 4.804688 12.894531 3.578125 12.257812 2.667969 11.363281 C 1.726562 10.445312 1.160156 9.402344 0.882812 8.074219 C 0.78125 7.601562 0.792969 6.390625 0.894531 5.890625 C 1.175781 4.609375 1.734375 3.589844 2.65625 2.679688 C 4.078125 1.277344 6.160156 0.5625 8.210938 0.777344 Z M 8.210938 0.777344 "/>
<path style=" stroke:none;fill-rule:nonzero;fill:rgb(0%,0%,0%);fill-opacity:1;" d="M 6.71875 1.449219 C 5.796875 1.558594 4.789062 1.933594 3.96875 2.480469 C 3.582031 2.734375 2.910156 3.375 2.617188 3.761719 C 2.15625 4.367188 1.796875 5.148438 1.617188 5.917969 C 1.546875 6.21875 1.539062 6.363281 1.539062 7.015625 C 1.539062 7.671875 1.546875 7.816406 1.617188 8.113281 C 1.796875 8.886719 2.15625 9.667969 2.617188 10.273438 C 2.914062 10.664062 3.582031 11.296875 3.96875 11.550781 C 5.113281 12.3125 6.386719 12.667969 7.746094 12.613281 C 11.554688 12.464844 14.246094 9.050781 13.285156 5.601562 C 12.660156 3.363281 10.660156 1.730469 8.179688 1.445312 C 7.824219 1.402344 7.089844 1.40625 6.71875 1.449219 Z M 7.875 2.144531 C 9.171875 2.25 10.253906 2.714844 11.171875 3.574219 C 11.90625 4.261719 12.386719 5.082031 12.609375 6.042969 C 12.707031 6.453125 12.707031 7.582031 12.609375 7.992188 C 12.386719 8.949219 11.90625 9.773438 11.171875 10.457031 C 10.585938 11.011719 9.863281 11.433594 9.113281 11.660156 C 8.621094 11.8125 8.570312 11.804688 8.914062 11.632812 C 10.289062 10.960938 11.25 9.71875 11.5 8.296875 C 11.59375 7.761719 11.554688 6.996094 11.414062 6.472656 C 11.167969 5.589844 10.746094 4.914062 10.023438 4.265625 C 9.328125 3.636719 8.441406 3.222656 7.46875 3.070312 C 6.890625 2.980469 6.042969 3.015625 5.492188 3.148438 C 4.617188 3.367188 3.945312 3.714844 3.261719 4.324219 C 3.082031 4.480469 2.996094 4.542969 3.035156 4.480469 C 3.476562 3.816406 4.179688 3.171875 4.894531 2.78125 C 5.476562 2.460938 6.324219 2.210938 7.003906 2.152344 C 7.476562 2.113281 7.441406 2.113281 7.875 2.144531 Z M 7.175781 3.761719 C 8.902344 3.972656 10.328125 5.183594 10.6875 6.75 C 10.726562 6.921875 10.710938 6.90625 10.511719 6.582031 C 10.367188 6.339844 9.941406 5.898438 9.644531 5.6875 C 8.988281 5.214844 8.128906 4.96875 7.289062 5.011719 C 5.726562 5.101562 4.441406 6.101562 4.039062 7.539062 C 3.960938 7.824219 3.945312 7.945312 3.945312 8.34375 C 3.945312 8.738281 3.960938 8.863281 4.035156 9.136719 C 4.28125 10.023438 4.859375 10.75 5.671875 11.199219 C 5.820312 11.28125 5.921875 11.347656 5.898438 11.347656 C 5.875 11.347656 5.71875 11.3125 5.546875 11.265625 C 4.167969 10.886719 3.074219 9.835938 2.710938 8.539062 C 2.597656 8.136719 2.558594 7.441406 2.621094 7.011719 C 2.710938 6.441406 3.007812 5.773438 3.378906 5.304688 C 3.601562 5.027344 4.085938 4.582031 4.363281 4.40625 C 5.199219 3.882812 6.222656 3.644531 7.175781 3.761719 Z M 8.167969 5.808594 C 9.144531 6.039062 9.929688 6.765625 10.195312 7.679688 C 10.292969 8.015625 10.296875 8.605469 10.210938 8.945312 C 10.074219 9.472656 9.667969 10.070312 9.230469 10.378906 C 8.84375 10.660156 8.34375 10.871094 7.949219 10.921875 C 7.804688 10.941406 7.804688 10.941406 7.894531 10.886719 C 7.945312 10.859375 8.109375 10.714844 8.261719 10.570312 C 8.480469 10.367188 8.570312 10.25 8.6875 10.027344 C 8.960938 9.492188 8.992188 8.917969 8.773438 8.375 C 8.453125 7.582031 7.589844 7.015625 6.695312 7.015625 C 5.992188 7.015625 5.203125 7.402344 4.847656 7.921875 C 4.785156 8.015625 4.726562 8.085938 4.71875 8.085938 C 4.710938 8.078125 4.734375 7.960938 4.761719 7.824219 C 4.992188 6.777344 5.859375 5.988281 7.015625 5.761719 C 7.238281 5.722656 7.902344 5.746094 8.167969 5.808594 Z M 7.152344 7.820312 C 7.550781 7.945312 7.824219 8.183594 8.015625 8.5625 C 8.117188 8.757812 8.128906 8.808594 8.128906 9.113281 C 8.128906 9.410156 8.117188 9.472656 8.027344 9.648438 C 7.835938 10.03125 7.550781 10.28125 7.148438 10.410156 C 6.828125 10.519531 6.367188 10.492188 6.0625 10.351562 C 5.472656 10.078125 5.132812 9.472656 5.242188 8.898438 C 5.34375 8.378906 5.734375 7.957031 6.257812 7.804688 C 6.484375 7.734375 6.914062 7.746094 7.152344 7.820312 Z M 7.152344 7.820312 "/>
</g>
</svg>
