<?xml version="1.0" encoding="UTF-8"?>
<svg xmlns="http://www.w3.org/2000/svg" xmlns:xlink="http://www.w3.org/1999/xlink" width="15px" height="14px" viewBox="0 0 15 14" version="1.1">
<g id="surface1">
<path style=" stroke:none;fill-rule:nonzero;fill:rgb(0%,0%,0%);fill-opacity:1;" d="M 7.023438 0.0390625 C 5.875 0.128906 4.613281 0.554688 3.636719 1.179688 C 3.265625 1.421875 2.867188 1.710938 2.917969 1.710938 C 2.933594 1.710938 3.039062 1.664062 3.15625 1.605469 C 3.625 1.382812 4.390625 1.175781 5.050781 1.097656 C 7.054688 0.859375 9.199219 1.664062 10.488281 3.140625 C 11.273438 4.042969 11.726562 4.992188 11.921875 6.144531 C 12 6.59375 11.980469 7.570312 11.886719 8.050781 C 11.46875 10.199219 9.871094 11.964844 7.734375 12.644531 C 6.992188 12.878906 6.707031 12.917969 5.765625 12.917969 C 5.027344 12.917969 4.878906 12.910156 4.554688 12.84375 C 4.070312 12.742188 3.675781 12.621094 3.253906 12.441406 C 3.0625 12.359375 2.902344 12.296875 2.902344 12.304688 C 2.902344 12.335938 3.636719 12.84375 3.917969 13.003906 C 4.574219 13.382812 5.378906 13.683594 6.1875 13.851562 C 6.625 13.945312 6.675781 13.949219 7.679688 13.949219 C 8.679688 13.949219 8.734375 13.945312 9.171875 13.851562 C 11.234375 13.425781 12.945312 12.242188 13.996094 10.519531 C 15.03125 8.816406 15.265625 6.683594 14.613281 4.800781 C 14.464844 4.359375 14.070312 3.578125 13.8125 3.199219 C 13.242188 2.367188 12.40625 1.582031 11.550781 1.074219 C 10.550781 0.480469 9.425781 0.125 8.25 0.0351562 C 7.738281 -0.00390625 7.5625 -0.00390625 7.023438 0.0390625 Z M 7.023438 0.0390625 "/>
<path style=" stroke:none;fill-rule:nonzero;fill:rgb(0%,0%,0%);fill-opacity:1;" d="M 3.921875 2.671875 C 3.175781 2.78125 2.449219 3.074219 1.832031 3.5 C 1.523438 3.714844 1.003906 4.238281 0.785156 4.554688 C 0.21875 5.378906 -0.0195312 6.191406 0.0195312 7.1875 C 0.0664062 8.324219 0.496094 9.273438 1.34375 10.085938 C 2.230469 10.933594 3.320312 11.363281 4.5625 11.363281 C 5.347656 11.363281 5.980469 11.21875 6.671875 10.878906 C 7.945312 10.25 8.835938 9.070312 9.074219 7.703125 C 9.164062 7.207031 9.132812 6.445312 9.007812 5.988281 C 8.554688 4.308594 7.285156 3.113281 5.550781 2.734375 C 5.195312 2.65625 4.265625 2.617188 3.921875 2.671875 Z M 3.921875 2.671875 "/>
</g>
</svg>
