<?xml version="1.0" encoding="UTF-8"?>
<svg xmlns="http://www.w3.org/2000/svg" xmlns:xlink="http://www.w3.org/1999/xlink" width="8px" height="15px" viewBox="0 0 8 15" version="1.1">
<g id="surface1">
<path style=" stroke:none;fill-rule:nonzero;fill:rgb(0%,0%,0%);fill-opacity:1;" d="M 2.964844 0.105469 C 2.222656 0.261719 1.613281 0.617188 1.195312 1.136719 C 0.921875 1.46875 0.773438 1.765625 0.539062 2.421875 C 0.304688 3.074219 0.308594 3.050781 0.449219 3.601562 C 0.488281 3.753906 0.519531 3.914062 0.519531 3.957031 C 0.519531 4.007812 0.4375 4.09375 0.28125 4.214844 C 0.113281 4.34375 0.0390625 4.425781 0.0390625 4.480469 C 0.0390625 4.527344 0.144531 4.714844 0.28125 4.902344 C 0.664062 5.453125 0.671875 5.46875 0.625 5.929688 C 0.585938 6.320312 0.605469 6.652344 0.667969 6.753906 C 0.695312 6.796875 0.746094 6.765625 0.917969 6.605469 C 1.035156 6.496094 1.273438 6.292969 1.445312 6.152344 C 1.882812 5.796875 1.875 5.804688 1.78125 5.65625 C 1.738281 5.585938 1.703125 5.476562 1.703125 5.414062 C 1.703125 5.273438 1.894531 4.824219 2.023438 4.660156 C 2.105469 4.554688 2.136719 4.539062 2.289062 4.539062 C 2.480469 4.539062 2.914062 4.648438 3.191406 4.765625 C 3.550781 4.917969 3.425781 5.101562 2.398438 5.949219 C 0.964844 7.125 0.261719 7.777344 0.261719 7.925781 C 0.261719 7.960938 0.4375 8.359375 0.652344 8.820312 C 1.25 10.066406 1.585938 10.835938 1.75 11.300781 C 1.917969 11.804688 1.917969 11.800781 1.660156 12.738281 L 1.507812 13.292969 L 1.789062 13.628906 C 2.101562 14.003906 2.222656 14.09375 2.316406 14.019531 C 2.402344 13.949219 2.386719 13.878906 2.1875 13.34375 L 1.996094 12.851562 L 2.117188 12.648438 C 2.179688 12.535156 2.300781 12.351562 2.382812 12.242188 L 2.53125 12.046875 L 2.449219 11.554688 C 2.378906 11.121094 2.351562 11.035156 2.226562 10.824219 C 2.140625 10.679688 1.890625 10.0625 1.597656 9.277344 C 1.332031 8.558594 1.113281 7.957031 1.113281 7.945312 C 1.113281 7.9375 1.316406 7.792969 1.566406 7.628906 L 2.027344 7.332031 L 2.316406 7.613281 L 2.601562 7.890625 L 2.578125 8.078125 C 2.566406 8.183594 2.5 8.445312 2.425781 8.664062 C 2.355469 8.882812 2.296875 9.101562 2.296875 9.148438 C 2.296875 9.199219 2.488281 9.65625 2.726562 10.164062 C 2.964844 10.675781 3.203125 11.207031 3.261719 11.351562 L 3.371094 11.617188 L 3.128906 12.5 C 2.996094 12.988281 2.878906 13.472656 2.867188 13.582031 L 2.84375 13.785156 L 3.089844 14.050781 C 3.257812 14.234375 3.34375 14.363281 3.371094 14.46875 C 3.476562 14.894531 3.613281 15.0625 3.730469 14.90625 C 3.847656 14.746094 3.742188 14.304688 3.484375 13.917969 C 3.324219 13.667969 3.332031 13.539062 3.558594 12.941406 C 3.808594 12.285156 3.902344 11.910156 3.878906 11.695312 C 3.855469 11.511719 3.699219 11.09375 3.316406 10.1875 C 3.03125 9.515625 3.03125 9.5 3.203125 8.664062 C 3.304688 8.160156 3.433594 7.851562 3.628906 7.617188 C 3.761719 7.464844 3.820312 7.449219 3.925781 7.554688 C 4 7.628906 4 7.628906 4.074219 7.554688 C 4.113281 7.515625 4.171875 7.480469 4.199219 7.480469 C 4.277344 7.480469 4.464844 7.71875 4.59375 7.972656 C 4.710938 8.203125 4.925781 9.171875 4.925781 9.453125 C 4.925781 9.558594 4.847656 9.789062 4.679688 10.1875 C 4.304688 11.089844 4.148438 11.507812 4.125 11.671875 C 4.09375 11.890625 4.164062 12.175781 4.410156 12.851562 C 4.667969 13.546875 4.675781 13.664062 4.515625 13.917969 C 4.351562 14.164062 4.226562 14.484375 4.222656 14.644531 C 4.222656 14.992188 4.40625 15.078125 4.527344 14.78125 C 4.5625 14.691406 4.605469 14.554688 4.628906 14.472656 C 4.652344 14.378906 4.746094 14.238281 4.90625 14.058594 C 5.09375 13.851562 5.148438 13.765625 5.148438 13.679688 C 5.148438 13.539062 5.050781 13.152344 4.8125 12.285156 L 4.625 11.621094 L 4.734375 11.359375 C 4.792969 11.214844 5.042969 10.664062 5.289062 10.128906 L 5.734375 9.167969 L 5.589844 8.71875 C 5.511719 8.472656 5.433594 8.1875 5.421875 8.082031 L 5.398438 7.890625 L 5.683594 7.613281 L 5.972656 7.332031 L 6.433594 7.628906 C 6.683594 7.792969 6.886719 7.9375 6.886719 7.945312 C 6.886719 7.972656 6.679688 8.535156 6.253906 9.675781 C 6.050781 10.210938 5.828125 10.742188 5.757812 10.855469 C 5.648438 11.03125 5.617188 11.128906 5.550781 11.554688 L 5.46875 12.042969 L 5.648438 12.28125 C 5.742188 12.40625 5.863281 12.589844 5.910156 12.683594 L 6 12.855469 L 5.929688 13.046875 C 5.636719 13.832031 5.609375 13.910156 5.652344 13.972656 C 5.671875 14.007812 5.71875 14.042969 5.75 14.046875 C 5.820312 14.0625 6.070312 13.824219 6.320312 13.5 C 6.492188 13.285156 6.492188 13.28125 6.449219 13.132812 C 6.277344 12.539062 6.140625 11.972656 6.136719 11.820312 C 6.128906 11.5 6.402344 10.808594 7.261719 8.996094 C 7.523438 8.445312 7.738281 7.953125 7.738281 7.910156 C 7.738281 7.773438 6.605469 6.742188 5.519531 5.886719 C 4.835938 5.351562 4.628906 5.128906 4.628906 4.929688 C 4.628906 4.855469 4.667969 4.824219 4.808594 4.765625 C 5.085938 4.648438 5.519531 4.539062 5.710938 4.539062 C 5.867188 4.539062 5.894531 4.554688 5.980469 4.664062 C 6.113281 4.835938 6.292969 5.257812 6.296875 5.40625 C 6.296875 5.472656 6.261719 5.585938 6.21875 5.65625 C 6.125 5.804688 6.117188 5.796875 6.554688 6.152344 C 6.726562 6.292969 6.964844 6.496094 7.085938 6.605469 C 7.269531 6.769531 7.308594 6.792969 7.339844 6.746094 C 7.394531 6.644531 7.414062 6.238281 7.375 5.90625 C 7.355469 5.722656 7.355469 5.539062 7.371094 5.476562 C 7.386719 5.417969 7.527344 5.1875 7.679688 4.964844 C 7.835938 4.738281 7.960938 4.523438 7.960938 4.476562 C 7.960938 4.425781 7.882812 4.339844 7.71875 4.214844 C 7.5625 4.09375 7.480469 4.007812 7.480469 3.957031 C 7.480469 3.914062 7.511719 3.753906 7.550781 3.601562 C 7.691406 3.050781 7.695312 3.074219 7.460938 2.421875 C 7.230469 1.78125 7.082031 1.480469 6.824219 1.152344 C 6.472656 0.699219 5.847656 0.3125 5.203125 0.140625 C 4.949219 0.0742188 4.789062 0.0585938 4.09375 0.0507812 C 3.40625 0.0390625 3.226562 0.046875 2.964844 0.105469 Z M 4.257812 5.769531 C 4.421875 5.9375 4.628906 6.328125 4.628906 6.464844 C 4.628906 6.660156 4.378906 6.792969 4 6.792969 C 3.628906 6.792969 3.371094 6.660156 3.371094 6.472656 C 3.371094 6.335938 3.582031 5.933594 3.738281 5.773438 C 3.929688 5.574219 4.070312 5.574219 4.257812 5.769531 Z M 4.257812 5.769531 "/>
</g>
</svg>
