<?xml version="1.0" encoding="UTF-8"?>
<svg xmlns="http://www.w3.org/2000/svg" xmlns:xlink="http://www.w3.org/1999/xlink" width="12px" height="15px" viewBox="0 0 12 15" version="1.1">
<g id="surface1">
<path style=" stroke:none;fill-rule:nonzero;fill:rgb(0%,0%,0%);fill-opacity:1;" d="M 6.140625 3.714844 C 4.136719 5.757812 2.492188 7.445312 2.484375 7.46875 C 2.476562 7.484375 3.265625 7.5 4.5625 7.5 C 6.261719 7.5 6.660156 7.507812 6.675781 7.546875 C 6.683594 7.570312 5.875 9.246094 4.875 11.261719 C 3.875 13.277344 3.058594 14.933594 3.058594 14.945312 C 3.058594 14.957031 3.078125 14.964844 3.109375 14.964844 C 3.148438 14.964844 11.390625 6.304688 11.609375 6.027344 C 11.644531 5.984375 11.664062 5.9375 11.65625 5.929688 C 11.648438 5.921875 10.628906 5.84375 9.390625 5.761719 C 8.152344 5.683594 7.128906 5.601562 7.113281 5.589844 C 7.097656 5.574219 7.707031 4.324219 8.46875 2.8125 C 9.339844 1.078125 9.84375 0.0507812 9.820312 0.0273438 C 9.800781 0.0078125 8.4375 1.371094 6.140625 3.714844 Z M 6.140625 3.714844 "/>
<path style=" stroke:none;fill-rule:nonzero;fill:rgb(0%,0%,0%);fill-opacity:1;" d="M 1.625 6.023438 C 1.53125 6.273438 0.0117188 11.445312 0.0273438 11.460938 C 0.0351562 11.46875 0.410156 11.414062 0.859375 11.339844 C 1.3125 11.265625 1.683594 11.207031 1.691406 11.21875 C 1.699219 11.226562 1.855469 11.945312 2.042969 12.820312 C 2.226562 13.691406 2.394531 14.417969 2.40625 14.4375 C 2.425781 14.457031 2.453125 14.460938 2.460938 14.449219 C 2.484375 14.425781 2.765625 10.417969 2.765625 10.085938 C 2.765625 9.914062 2.765625 9.914062 2.652344 9.917969 C 2.585938 9.917969 2.253906 9.964844 1.914062 10.019531 C 1.578125 10.078125 1.28125 10.109375 1.265625 10.097656 C 1.25 10.082031 1.347656 9.164062 1.480469 8.0625 C 1.664062 6.574219 1.714844 6.042969 1.683594 6.015625 C 1.65625 5.984375 1.636719 5.984375 1.625 6.023438 Z M 1.625 6.023438 "/>
<path style=" stroke:none;fill-rule:nonzero;fill:rgb(0%,0%,0%);fill-opacity:1;" d="M 9.703125 10.363281 C 8.515625 10.925781 7.542969 11.402344 7.542969 11.421875 C 7.542969 11.441406 7.761719 11.625 8.027344 11.828125 C 8.289062 12.023438 8.507812 12.210938 8.507812 12.234375 C 8.507812 12.257812 7.597656 12.863281 6.488281 13.570312 C 4.730469 14.703125 4.335938 14.976562 4.550781 14.933594 C 4.679688 14.910156 10.722656 12.28125 10.722656 12.253906 C 10.722656 12.234375 10.472656 12.058594 10.167969 11.859375 C 9.863281 11.660156 9.609375 11.480469 9.601562 11.457031 C 9.597656 11.429688 10.132812 10.957031 10.792969 10.40625 C 11.453125 9.855469 11.992188 9.386719 11.992188 9.371094 C 11.992188 9.351562 11.964844 9.339844 11.929688 9.34375 C 11.894531 9.34375 10.890625 9.804688 9.703125 10.363281 Z M 9.703125 10.363281 "/>
</g>
</svg>
