<?xml version="1.0" encoding="UTF-8"?>
<svg xmlns="http://www.w3.org/2000/svg" xmlns:xlink="http://www.w3.org/1999/xlink" width="15px" height="14px" viewBox="0 0 15 14" version="1.1">
<g id="surface1">
<path style=" stroke:none;fill-rule:nonzero;fill:rgb(0%,0%,0%);fill-opacity:1;" d="M 8.1875 0.0742188 C 6.933594 0.144531 5.742188 0.417969 4.859375 0.832031 C 4.257812 1.109375 3.621094 1.550781 3.5625 1.71875 C 3.550781 1.753906 3.847656 3.5 4.21875 5.597656 C 4.589844 7.691406 4.890625 9.410156 4.886719 9.414062 C 4.886719 9.417969 4.785156 9.398438 4.664062 9.371094 C 3.460938 9.101562 1.90625 9.558594 0.933594 10.460938 C 0.339844 11.015625 0.0390625 11.613281 0.0390625 12.238281 C 0.0390625 13.890625 2.410156 14.507812 4.460938 13.390625 C 5.527344 12.8125 6.199219 11.898438 6.203125 11.039062 C 6.203125 10.785156 6.101562 10.179688 5.644531 7.8125 C 5.335938 6.207031 5.085938 4.859375 5.085938 4.8125 C 5.085938 4.746094 5.148438 4.6875 5.375 4.550781 C 6.46875 3.855469 8.4375 3.488281 10.742188 3.546875 C 11.1875 3.554688 11.710938 3.589844 11.90625 3.617188 C 12.34375 3.683594 12.730469 3.769531 12.796875 3.824219 C 12.835938 3.851562 12.949219 4.597656 13.214844 6.539062 C 13.414062 8.011719 13.566406 9.226562 13.554688 9.230469 C 13.546875 9.242188 13.40625 9.226562 13.246094 9.199219 C 11.414062 8.890625 9.242188 10.09375 8.824219 11.644531 C 8.777344 11.804688 8.765625 11.957031 8.777344 12.1875 C 8.792969 12.457031 8.816406 12.542969 8.925781 12.761719 C 9.164062 13.230469 9.628906 13.566406 10.269531 13.730469 C 10.613281 13.816406 11.371094 13.832031 11.753906 13.761719 C 13.394531 13.460938 14.742188 12.335938 14.933594 11.117188 C 14.972656 10.851562 14.953125 10.671875 14.339844 6.003906 C 13.820312 2.046875 13.691406 1.144531 13.636719 1.074219 C 13.539062 0.941406 13.109375 0.707031 12.691406 0.554688 C 11.558594 0.136719 9.949219 -0.0351562 8.1875 0.0742188 Z M 8.1875 0.0742188 "/>
</g>
</svg>
