<?xml version="1.0" encoding="UTF-8"?>
<svg xmlns="http://www.w3.org/2000/svg" xmlns:xlink="http://www.w3.org/1999/xlink" width="15px" height="15px" viewBox="0 0 15 15" version="1.1">
<g id="surface1">
<path style=" stroke:none;fill-rule:nonzero;fill:rgb(0%,0%,0%);fill-opacity:1;" d="M 7.292969 0.140625 C 7.105469 0.273438 6.851562 0.542969 6.476562 1.007812 C 6.304688 1.214844 6.113281 1.433594 6.054688 1.5 L 5.945312 1.613281 L 5.425781 1.347656 C 4.796875 1.023438 4.335938 0.839844 4.011719 0.769531 L 3.769531 0.71875 L 3.59375 0.90625 C 3.378906 1.144531 3.054688 1.613281 2.84375 2.003906 C 2.753906 2.167969 2.671875 2.300781 2.65625 2.300781 C 2.644531 2.300781 2.425781 2.203125 2.164062 2.085938 C 1.628906 1.839844 1.210938 1.695312 0.960938 1.664062 C 0.800781 1.648438 0.773438 1.65625 0.726562 1.730469 C 0.597656 1.933594 0.527344 2.640625 0.585938 3.171875 C 0.621094 3.484375 0.617188 3.539062 0.550781 3.703125 C 0.351562 4.21875 0.367188 5.464844 0.59375 7.347656 L 0.671875 7.984375 L 0.355469 8.328125 C 0.183594 8.519531 0.0390625 8.691406 0.0390625 8.714844 C 0.0390625 8.8125 0.855469 10.203125 0.976562 10.304688 C 1.183594 10.488281 1.878906 10.875 3.003906 11.429688 C 4.148438 11.992188 4.195312 12.007812 4.320312 11.820312 C 4.375 11.742188 4.371094 11.703125 4.308594 11.339844 C 4.167969 10.628906 4.191406 10.503906 4.742188 9.320312 C 5.175781 8.378906 5.207031 8.261719 5.082031 8.023438 C 5.050781 7.957031 4.980469 7.871094 4.925781 7.839844 C 4.867188 7.796875 4.472656 7.707031 3.769531 7.578125 L 2.703125 7.386719 L 2.695312 6.75 L 2.6875 6.109375 L 2.8125 5.984375 C 2.90625 5.890625 2.964844 5.863281 3.070312 5.863281 C 3.144531 5.863281 3.90625 6.035156 4.757812 6.246094 C 5.902344 6.523438 6.328125 6.644531 6.390625 6.703125 C 6.574219 6.871094 6.574219 6.925781 6.292969 8.351562 C 6.148438 9.074219 6.03125 9.707031 6.03125 9.753906 C 6.03125 9.921875 6.105469 10.109375 6.230469 10.234375 L 6.351562 10.359375 L 7.488281 10.359375 C 8.601562 10.359375 8.632812 10.359375 8.730469 10.28125 C 8.855469 10.183594 8.964844 9.949219 8.96875 9.785156 C 8.96875 9.710938 8.855469 9.066406 8.710938 8.34375 C 8.4375 6.933594 8.429688 6.863281 8.609375 6.703125 C 8.707031 6.613281 11.691406 5.863281 11.933594 5.863281 C 12.101562 5.863281 12.257812 5.976562 12.296875 6.121094 C 12.304688 6.164062 12.308594 6.472656 12.304688 6.796875 L 12.296875 7.386719 L 11.230469 7.578125 C 10.539062 7.703125 10.132812 7.796875 10.074219 7.839844 C 10.019531 7.871094 9.949219 7.957031 9.917969 8.023438 C 9.792969 8.257812 9.824219 8.367188 10.257812 9.3125 C 10.484375 9.796875 10.691406 10.285156 10.71875 10.390625 C 10.789062 10.65625 10.78125 10.949219 10.695312 11.367188 C 10.621094 11.753906 10.640625 11.863281 10.816406 11.921875 C 10.914062 11.953125 11.03125 11.90625 11.996094 11.429688 C 13.117188 10.878906 13.8125 10.492188 14.027344 10.304688 C 14.101562 10.242188 14.3125 9.910156 14.574219 9.449219 L 15 8.703125 L 14.660156 8.339844 L 14.324219 7.984375 L 14.386719 7.527344 C 14.628906 5.71875 14.65625 4.226562 14.457031 3.726562 C 14.414062 3.625 14.402344 3.503906 14.414062 3.34375 C 14.460938 2.59375 14.402344 1.933594 14.273438 1.730469 C 14.222656 1.65625 14.199219 1.648438 14.039062 1.664062 C 13.78125 1.699219 13.351562 1.847656 12.820312 2.09375 C 12.558594 2.214844 12.34375 2.304688 12.335938 2.296875 C 12.328125 2.292969 12.238281 2.128906 12.128906 1.941406 C 11.890625 1.519531 11.632812 1.152344 11.40625 0.910156 L 11.230469 0.722656 L 11.035156 0.757812 C 10.730469 0.816406 10.292969 0.992188 9.644531 1.316406 L 9.050781 1.613281 L 8.945312 1.5 C 8.882812 1.433594 8.667969 1.183594 8.464844 0.933594 C 7.976562 0.339844 7.648438 0.0351562 7.496094 0.0351562 C 7.464844 0.0351562 7.371094 0.0820312 7.292969 0.140625 Z M 7.292969 0.140625 "/>
<path style=" stroke:none;fill-rule:nonzero;fill:rgb(0%,0%,0%);fill-opacity:1;" d="M 5.828125 11.910156 C 5.570312 11.96875 5.238281 12.164062 4.835938 12.5 L 4.449219 12.824219 L 4.457031 13.648438 L 4.46875 14.472656 L 4.617188 14.523438 C 4.925781 14.628906 5.882812 14.851562 6.304688 14.914062 C 6.910156 15.003906 8.089844 15.003906 8.695312 14.914062 C 9.117188 14.851562 10.074219 14.628906 10.382812 14.523438 L 10.53125 14.472656 L 10.542969 13.644531 L 10.550781 12.816406 L 10.164062 12.496094 C 9.398438 11.863281 9.429688 11.871094 7.480469 11.875 C 6.65625 11.878906 5.910156 11.890625 5.828125 11.910156 Z M 5.828125 11.910156 "/>
</g>
</svg>
