<?xml version="1.0" encoding="UTF-8"?>
<svg xmlns="http://www.w3.org/2000/svg" xmlns:xlink="http://www.w3.org/1999/xlink" width="28px" height="15px" viewBox="0 0 28 15" version="1.1">
<g id="surface1">
<path style=" stroke:none;fill-rule:nonzero;fill:rgb(0%,0%,0%);fill-opacity:1;" d="M 23.402344 0.121094 C 22.898438 0.238281 20.488281 0.949219 20.4375 1 C 20.40625 1.035156 21.109375 3.636719 21.171875 3.695312 C 21.191406 3.71875 21.847656 3.546875 22.636719 3.3125 C 23.808594 2.960938 24.070312 2.90625 24.144531 2.984375 C 24.238281 3.078125 25.113281 6.09375 25.113281 6.320312 C 25.113281 6.476562 24.984375 6.519531 23.132812 7.054688 C 22.65625 7.199219 22.238281 7.328125 22.210938 7.355469 C 22.171875 7.390625 22.855469 10.019531 22.921875 10.089844 C 22.957031 10.128906 26.125 9.148438 26.355469 9.03125 C 27.367188 8.488281 27.992188 7.34375 27.917969 6.148438 C 27.878906 5.507812 26.953125 2.179688 26.671875 1.636719 C 26.273438 0.882812 25.535156 0.320312 24.710938 0.128906 C 24.160156 -0.00390625 23.9375 -0.00390625 23.402344 0.121094 Z M 23.402344 0.121094 "/>
<path style=" stroke:none;fill-rule:nonzero;fill:rgb(0%,0%,0%);fill-opacity:1;" d="M 9.902344 4.039062 C 4.808594 5.523438 0.570312 6.777344 0.484375 6.828125 C 0.253906 6.949219 0.0664062 7.308594 0.0664062 7.625 C 0.0664062 8.042969 1.382812 12.800781 1.53125 12.910156 C 1.707031 13.054688 5.507812 14.988281 5.507812 14.941406 C 5.507812 14.921875 5.324219 14.277344 5.101562 13.507812 C 4.882812 12.738281 4.699219 12.078125 4.699219 12.039062 C 4.699219 11.996094 5.605469 12.429688 6.722656 13 C 7.835938 13.5625 8.75 14.023438 8.757812 14.007812 C 8.769531 13.992188 8.589844 13.316406 8.359375 12.492188 C 8.117188 11.625 7.976562 11 8.015625 11.015625 C 8.0625 11.027344 8.964844 11.496094 10.03125 12.050781 C 11.09375 12.613281 11.972656 13.058594 11.984375 13.046875 C 12.003906 13.03125 11.832031 12.347656 11.601562 11.53125 C 11.382812 10.707031 11.214844 10.019531 11.234375 10 C 11.253906 9.976562 12.105469 10.425781 13.140625 10.988281 C 14.167969 11.550781 15.074219 12.042969 15.15625 12.09375 C 15.289062 12.160156 15.296875 12.15625 15.234375 11.941406 C 14.644531 9.792969 14.464844 9.078125 14.53125 9.097656 C 14.570312 9.121094 15.476562 9.59375 16.550781 10.164062 C 17.621094 10.734375 18.503906 11.1875 18.519531 11.179688 C 18.527344 11.164062 18.359375 10.5 18.136719 9.691406 C 17.914062 8.886719 17.746094 8.214844 17.761719 8.199219 C 17.773438 8.1875 18.679688 8.640625 19.769531 9.210938 C 20.863281 9.785156 21.753906 10.226562 21.753906 10.199219 C 21.761719 10.019531 19.292969 1.320312 19.238281 1.328125 C 19.203125 1.335938 15 2.550781 9.902344 4.039062 Z M 9.902344 4.039062 "/>
</g>
</svg>
