<?xml version="1.0" encoding="UTF-8"?>
<svg xmlns="http://www.w3.org/2000/svg" xmlns:xlink="http://www.w3.org/1999/xlink" width="17px" height="15px" viewBox="0 0 17 15" version="1.1">
<g id="surface1">
<path style=" stroke:none;fill-rule:nonzero;fill:rgb(0%,0%,0%);fill-opacity:1;" d="M 0.0898438 0.0742188 C 0.0390625 0.105469 0 0.164062 0 0.195312 C 0 0.269531 3.894531 7.097656 3.996094 7.207031 C 4.050781 7.269531 4.09375 7.277344 4.152344 7.25 C 4.261719 7.203125 8.195312 0.316406 8.195312 0.183594 C 8.195312 0.136719 8.15625 0.0742188 8.117188 0.0507812 C 8.0625 0.0195312 6.738281 0.0078125 4.109375 0.0078125 C 0.621094 0.0078125 0.171875 0.015625 0.0898438 0.0742188 Z M 0.0898438 0.0742188 "/>
<path style=" stroke:none;fill-rule:nonzero;fill:rgb(0%,0%,0%);fill-opacity:1;" d="M 8.878906 0.0546875 C 8.839844 0.0742188 8.804688 0.140625 8.804688 0.195312 C 8.804688 0.339844 12.726562 7.199219 12.835938 7.25 C 12.90625 7.277344 12.945312 7.269531 13 7.207031 C 13.070312 7.132812 16.925781 0.386719 16.980469 0.246094 C 16.996094 0.207031 16.972656 0.144531 16.921875 0.09375 C 16.835938 0.0078125 16.832031 0.0078125 12.894531 0.0078125 C 10.289062 0.0117188 8.925781 0.0234375 8.878906 0.0546875 Z M 8.878906 0.0546875 "/>
<path style=" stroke:none;fill-rule:nonzero;fill:rgb(0%,0%,0%);fill-opacity:1;" d="M 8.386719 1.933594 C 8.375 1.957031 7.777344 3.003906 7.058594 4.273438 C 6.335938 5.539062 5.75 6.609375 5.757812 6.644531 C 5.769531 6.710938 5.957031 6.714844 8.480469 6.714844 C 10.949219 6.714844 11.191406 6.710938 11.203125 6.648438 C 11.210938 6.613281 10.617188 5.53125 9.882812 4.242188 C 8.589844 1.980469 8.46875 1.789062 8.386719 1.933594 Z M 8.386719 1.933594 "/>
<path style=" stroke:none;fill-rule:nonzero;fill:rgb(0%,0%,0%);fill-opacity:1;" d="M 4.421875 7.824219 C 4.359375 7.925781 4.394531 7.996094 6.351562 11.429688 C 8.242188 14.746094 8.355469 14.929688 8.472656 14.941406 C 8.589844 14.957031 8.605469 14.925781 10.5625 11.496094 C 11.648438 9.59375 12.539062 7.996094 12.546875 7.941406 C 12.582031 7.714844 12.792969 7.726562 8.476562 7.726562 L 4.484375 7.726562 Z M 4.421875 7.824219 "/>
</g>
</svg>
