<?xml version="1.0" encoding="UTF-8"?>
<svg xmlns="http://www.w3.org/2000/svg" xmlns:xlink="http://www.w3.org/1999/xlink" width="16px" height="15px" viewBox="0 0 16 15" version="1.1">
<g id="surface1">
<path style=" stroke:none;fill-rule:nonzero;fill:rgb(0%,0%,0%);fill-opacity:1;" d="M 3.707031 0.261719 C 3.460938 0.535156 3.113281 1.238281 3.003906 1.695312 C 2.890625 2.160156 2.914062 2.445312 3.085938 2.742188 C 3.257812 3.03125 3.6875 3.507812 3.925781 3.671875 C 4.082031 3.777344 4.136719 3.792969 4.289062 3.777344 C 4.699219 3.742188 5.277344 3.296875 5.417969 2.910156 C 5.488281 2.722656 5.488281 2.710938 5.40625 2.386719 C 5.304688 1.964844 5.042969 1.394531 4.726562 0.90625 C 4.460938 0.5 4.054688 0.0390625 3.960938 0.0390625 C 3.929688 0.0390625 3.816406 0.136719 3.707031 0.261719 Z M 3.707031 0.261719 "/>
<path style=" stroke:none;fill-rule:nonzero;fill:rgb(0%,0%,0%);fill-opacity:1;" d="M 11.757812 0.304688 C 11.152344 0.984375 10.5625 2.164062 10.5625 2.699219 C 10.5625 3.015625 10.9375 3.453125 11.390625 3.675781 C 11.804688 3.878906 12.027344 3.804688 12.488281 3.316406 C 12.964844 2.820312 13.140625 2.429688 13.082031 2.011719 C 13.027344 1.597656 12.855469 1.109375 12.597656 0.660156 C 12.425781 0.355469 12.148438 0.0390625 12.058594 0.0390625 C 12.023438 0.0390625 11.886719 0.15625 11.757812 0.304688 Z M 11.757812 0.304688 "/>
<path style=" stroke:none;fill-rule:nonzero;fill:rgb(0%,0%,0%);fill-opacity:1;" d="M 7.808594 1.566406 C 7.417969 1.78125 6.195312 2.933594 5.917969 3.351562 L 5.808594 3.519531 L 5.894531 3.6875 C 6.527344 4.855469 6.960938 5.777344 7.003906 6.058594 C 7.027344 6.199219 7.023438 6.199219 6.882812 6.199219 C 6.574219 6.199219 5.589844 5.761719 4.820312 5.292969 C 3.628906 4.558594 2.65625 3.675781 1.960938 2.695312 L 1.730469 2.367188 L 1.601562 2.472656 C 1.285156 2.714844 0.945312 3.335938 0.828125 3.859375 C 0.78125 4.066406 0.769531 4.257812 0.78125 4.503906 C 0.804688 4.894531 0.800781 4.890625 1.441406 6.058594 C 1.679688 6.496094 1.789062 6.734375 1.757812 6.742188 C 1.683594 6.761719 1.171875 6.546875 0.871094 6.378906 C 0.730469 6.296875 0.496094 6.113281 0.351562 5.976562 L 0.0898438 5.71875 L 0.0585938 5.984375 C 0.046875 6.128906 0.0390625 6.628906 0.0507812 7.089844 L 0.0703125 7.929688 L 0.199219 8.15625 C 0.375 8.453125 0.804688 8.925781 1.097656 9.132812 C 1.523438 9.441406 2.0625 9.671875 2.371094 9.671875 C 2.507812 9.671875 2.492188 9.714844 2.324219 9.824219 C 1.664062 10.253906 0.890625 10.886719 0.890625 10.992188 C 0.890625 11.066406 1.425781 11.304688 1.933594 11.460938 C 2.675781 11.6875 3 11.738281 3.671875 11.742188 C 4.007812 11.742188 4.28125 11.753906 4.28125 11.765625 C 4.28125 11.796875 3.933594 12.292969 3.777344 12.484375 L 3.65625 12.632812 L 3.980469 12.789062 C 4.308594 12.949219 5.070312 13.222656 5.175781 13.222656 C 5.203125 13.222656 5.296875 13.34375 5.378906 13.488281 C 5.734375 14.113281 6.207031 14.800781 6.28125 14.800781 C 6.296875 14.800781 6.289062 14.671875 6.257812 14.515625 C 6.195312 14.191406 6.183594 13.578125 6.238281 13.398438 C 6.289062 13.234375 6.183594 12.980469 5.535156 11.667969 L 5.023438 10.644531 L 4.578125 10.535156 C 4.332031 10.472656 4.019531 10.371094 3.882812 10.304688 C 3.574219 10.164062 3.316406 9.914062 3.316406 9.757812 C 3.316406 9.550781 3.660156 9.164062 4.039062 8.9375 C 4.167969 8.859375 4.214844 8.847656 4.277344 8.878906 C 4.320312 8.902344 4.574219 9.167969 4.84375 9.472656 C 5.109375 9.777344 5.335938 10.027344 5.339844 10.027344 C 5.347656 10.027344 5.59375 9.78125 5.886719 9.480469 C 6.488281 8.867188 6.925781 8.519531 7.398438 8.277344 C 7.6875 8.128906 7.753906 8.113281 8 8.113281 C 8.246094 8.113281 8.308594 8.128906 8.609375 8.28125 C 9.09375 8.527344 9.515625 8.863281 10.117188 9.480469 C 10.640625 10.019531 10.652344 10.03125 10.722656 9.960938 C 10.765625 9.917969 10.996094 9.671875 11.226562 9.402344 C 11.460938 9.136719 11.683594 8.902344 11.726562 8.878906 C 11.824219 8.828125 12.046875 8.957031 12.355469 9.242188 C 12.714844 9.578125 12.761719 9.769531 12.5625 10.007812 C 12.496094 10.082031 12.320312 10.207031 12.167969 10.28125 C 11.914062 10.410156 11.230469 10.617188 11.058594 10.617188 C 11 10.617188 10.871094 10.859375 10.46875 11.675781 C 10.183594 12.257812 9.90625 12.847656 9.851562 12.988281 C 9.746094 13.234375 9.746094 13.25 9.792969 13.566406 C 9.832031 13.839844 9.828125 13.957031 9.773438 14.328125 C 9.738281 14.574219 9.71875 14.777344 9.726562 14.789062 C 9.777344 14.839844 10.339844 14.011719 10.683594 13.394531 C 10.730469 13.296875 10.800781 13.222656 10.835938 13.222656 C 11 13.222656 12.257812 12.726562 12.308594 12.640625 C 12.320312 12.625 12.25 12.511719 12.152344 12.394531 C 12.003906 12.210938 11.71875 11.789062 11.71875 11.753906 C 11.71875 11.746094 12 11.742188 12.347656 11.738281 C 12.84375 11.738281 13.050781 11.71875 13.375 11.648438 C 14.125 11.484375 15.109375 11.117188 15.109375 10.996094 C 15.109375 10.96875 15.085938 10.921875 15.0625 10.886719 C 14.976562 10.777344 14.410156 10.332031 13.964844 10.027344 C 13.726562 9.863281 13.535156 9.71875 13.53125 9.707031 C 13.53125 9.695312 13.625 9.671875 13.742188 9.65625 C 14.011719 9.625 14.398438 9.472656 14.703125 9.289062 C 15.007812 9.09375 15.527344 8.585938 15.742188 8.253906 L 15.917969 7.992188 L 15.953125 7.34375 C 15.976562 6.929688 15.980469 6.511719 15.957031 6.21875 C 15.9375 5.957031 15.917969 5.734375 15.917969 5.726562 C 15.917969 5.71875 15.792969 5.835938 15.640625 5.984375 C 15.460938 6.160156 15.246094 6.320312 15.039062 6.425781 C 14.730469 6.59375 14.339844 6.75 14.238281 6.75 C 14.214844 6.75 14.421875 6.328125 14.699219 5.808594 L 15.207031 4.875 L 15.207031 4.363281 C 15.203125 3.929688 15.191406 3.808594 15.117188 3.59375 C 14.992188 3.230469 14.742188 2.820312 14.496094 2.566406 L 14.289062 2.347656 L 14.207031 2.464844 C 13.4375 3.558594 12.667969 4.308594 11.539062 5.070312 C 10.601562 5.695312 9.210938 6.320312 9.015625 6.199219 C 8.90625 6.125 9.25 5.308594 9.894531 4.089844 L 10.1875 3.539062 L 10.117188 3.402344 C 10.023438 3.222656 9.261719 2.410156 8.855469 2.058594 C 8.226562 1.515625 8.054688 1.433594 7.808594 1.566406 Z M 7.808594 1.566406 "/>
<path style=" stroke:none;fill-rule:nonzero;fill:rgb(0%,0%,0%);fill-opacity:1;" d="M 7.730469 9.160156 C 7.46875 9.21875 6.976562 9.46875 6.667969 9.707031 C 6.316406 9.980469 5.859375 10.476562 5.859375 10.589844 C 5.859375 10.730469 6.246094 11.488281 6.320312 11.488281 C 6.355469 11.488281 6.441406 11.46875 6.515625 11.449219 C 6.734375 11.378906 7.371094 11.285156 7.398438 11.3125 C 7.464844 11.382812 6.90625 11.765625 6.539062 11.898438 C 6.445312 11.929688 6.46875 12.0625 6.652344 12.457031 C 6.773438 12.730469 6.792969 12.757812 6.871094 12.730469 C 7.429688 12.542969 7.65625 12.507812 8.117188 12.523438 C 8.476562 12.539062 8.648438 12.570312 8.902344 12.652344 C 9.078125 12.707031 9.238281 12.742188 9.253906 12.722656 C 9.289062 12.6875 9.5625 12.019531 9.5625 11.96875 C 9.5625 11.953125 9.429688 11.878906 9.273438 11.804688 C 9 11.683594 8.636719 11.40625 8.636719 11.324219 C 8.636719 11.277344 8.855469 11.304688 9.363281 11.414062 C 9.71875 11.492188 9.730469 11.492188 9.785156 11.417969 C 9.867188 11.308594 10.175781 10.636719 10.175781 10.5625 C 10.175781 10.464844 9.542969 9.832031 9.199219 9.597656 C 8.675781 9.230469 8.160156 9.074219 7.730469 9.160156 Z M 7.730469 9.160156 "/>
<path style=" stroke:none;fill-rule:nonzero;fill:rgb(0%,0%,0%);fill-opacity:1;" d="M 7.488281 13.164062 C 7.355469 13.191406 7.171875 13.257812 7.082031 13.308594 C 6.933594 13.394531 6.917969 13.421875 6.890625 13.613281 C 6.859375 13.796875 6.882812 14.171875 6.921875 14.171875 C 6.925781 14.171875 7.007812 14.128906 7.097656 14.074219 C 7.328125 13.9375 7.527344 13.941406 7.628906 14.078125 C 7.675781 14.136719 7.730469 14.25 7.753906 14.335938 C 7.789062 14.472656 7.78125 14.519531 7.714844 14.65625 C 7.640625 14.804688 7.640625 14.824219 7.699219 14.890625 C 7.789062 14.992188 8.207031 14.988281 8.332031 14.886719 L 8.421875 14.816406 L 8.335938 14.703125 C 8.238281 14.578125 8.226562 14.417969 8.304688 14.238281 C 8.425781 13.949219 8.628906 13.894531 8.929688 14.074219 C 9.074219 14.160156 9.101562 14.167969 9.121094 14.117188 C 9.160156 14.011719 9.121094 13.429688 9.074219 13.382812 C 9.046875 13.355469 8.910156 13.289062 8.765625 13.234375 C 8.429688 13.113281 7.855469 13.078125 7.488281 13.164062 Z M 7.488281 13.164062 "/>
</g>
</svg>
