<?xml version="1.0" encoding="UTF-8"?>
<svg xmlns="http://www.w3.org/2000/svg" xmlns:xlink="http://www.w3.org/1999/xlink" width="30px" height="15px" viewBox="0 0 30 15" version="1.1">
<g id="surface1">
<path style=" stroke:none;fill-rule:nonzero;fill:rgb(0%,0%,0%);fill-opacity:1;" d="M 13.425781 0.113281 C 10.324219 0.261719 6.425781 1.585938 3.183594 3.585938 C 2.703125 3.890625 2.21875 4.152344 2.121094 4.175781 C 1.992188 4.210938 1.765625 4.128906 1.386719 3.890625 C 0.53125 3.363281 0.433594 3.460938 0.984375 4.292969 L 1.316406 4.8125 L 0.71875 5.371094 C 0.386719 5.675781 0.160156 5.929688 0.203125 5.929688 C 0.25 5.9375 0.695312 5.878906 1.203125 5.824219 L 2.113281 5.707031 L 3.742188 7.367188 C 7.386719 11.109375 10.675781 13.542969 13.613281 14.664062 L 14.433594 14.984375 L 16.234375 14.984375 C 18.097656 14.984375 19.136719 14.902344 19.960938 14.6875 C 20.621094 14.515625 21.960938 13.847656 23.515625 12.910156 L 24.824219 12.128906 L 26.824219 12.074219 C 29.023438 12.007812 29.789062 11.941406 29.933594 11.792969 C 30.039062 11.6875 30.121094 11.808594 28.476562 9.5 C 26.757812 7.097656 26.175781 6.382812 24.523438 4.695312 C 22.066406 2.195312 20.613281 1.144531 18.832031 0.566406 C 17.597656 0.171875 15.621094 0.0078125 13.425781 0.113281 Z M 12.339844 2.65625 C 11.597656 3.027344 11.402344 3.167969 10.804688 3.792969 C 10.425781 4.175781 10.046875 4.644531 9.960938 4.828125 C 9.871094 5.007812 9.789062 5.171875 9.773438 5.199219 C 9.757812 5.222656 9.675781 5.148438 9.597656 5.03125 L 9.433594 4.828125 L 9.433594 5.074219 C 9.433594 5.722656 9.945312 6.90625 10.597656 7.804688 C 11.628906 9.203125 13.515625 10.460938 15.242188 10.894531 C 15.765625 11.027344 16.175781 11.070312 16.976562 11.070312 C 17.894531 11.0625 18.105469 11.035156 18.675781 10.847656 C 19.78125 10.476562 20.636719 9.761719 21.28125 8.675781 C 21.425781 8.4375 21.636719 8.183594 21.742188 8.09375 C 21.945312 7.945312 21.945312 7.9375 21.855469 7.417969 C 21.804688 7.128906 21.667969 6.660156 21.554688 6.375 C 21.445312 6.085938 21.371094 5.832031 21.386719 5.804688 C 21.484375 5.714844 23.402344 7.925781 23.917969 8.726562 L 24.144531 9.078125 L 23.96875 9.234375 C 23.710938 9.441406 20.289062 11.191406 19.257812 11.644531 C 14.636719 13.652344 10.425781 12.0625 3.433594 5.675781 L 3.039062 5.3125 L 3.523438 5.050781 C 4.582031 4.480469 7.675781 3.3125 9.515625 2.8125 C 10.976562 2.410156 11.804688 2.253906 12.582031 2.246094 L 13.183594 2.246094 Z M 16.394531 3.339844 C 17.515625 3.652344 18.605469 4.472656 18.78125 5.15625 C 18.902344 5.609375 18.894531 6.464844 18.757812 6.785156 C 18.628906 7.105469 18.023438 7.671875 17.460938 8 C 16.765625 8.40625 16.742188 8.363281 17.074219 7.394531 C 17.410156 6.421875 17.46875 5.773438 17.234375 5.417969 C 17.03125 5.097656 16.402344 4.65625 15.871094 4.449219 C 15.46875 4.300781 15.28125 4.277344 14.339844 4.308594 C 13.332031 4.332031 13.242188 4.351562 12.824219 4.582031 C 12.226562 4.910156 11.515625 5.648438 11.386719 6.070312 C 11.144531 6.90625 10.886719 6.824219 10.886719 5.914062 C 10.886719 5.125 11.015625 4.679688 11.371094 4.277344 C 11.734375 3.855469 12.445312 3.40625 12.96875 3.25 C 13.484375 3.101562 15.75 3.15625 16.394531 3.339844 Z M 14.675781 5.15625 C 14.675781 5.171875 14.546875 5.492188 14.386719 5.863281 C 13.878906 7.039062 13.925781 7.738281 14.554688 8.304688 C 15.5 9.152344 17.332031 9.367188 18.5 8.757812 C 19.105469 8.445312 19.765625 7.722656 20.039062 7.0625 C 20.160156 6.761719 20.296875 6.511719 20.332031 6.511719 C 20.453125 6.511719 20.5 6.90625 20.46875 7.679688 C 20.445312 8.394531 20.425781 8.46875 20.167969 8.839844 C 19.484375 9.8125 17.976562 10.3125 16.160156 10.179688 C 14.855469 10.089844 14.007812 9.761719 13.296875 9.085938 C 12.355469 8.191406 12.234375 7.0625 12.984375 6.101562 C 13.316406 5.675781 14.144531 5.113281 14.445312 5.113281 C 14.574219 5.113281 14.675781 5.132812 14.675781 5.15625 Z M 16.453125 5.609375 C 16.824219 5.988281 16.53125 7.105469 15.933594 7.648438 C 15.566406 7.976562 15.296875 7.984375 14.992188 7.671875 C 14.675781 7.351562 14.675781 6.949219 14.992188 6.382812 C 15.460938 5.550781 16.082031 5.230469 16.453125 5.609375 Z M 16.453125 5.609375 "/>
</g>
</svg>
